<?xml version="1.0" encoding="UTF-8"?>
<!DOCTYPE svg PUBLIC "-//W3C//DTD SVG 1.1//EN" "http://www.w3.org/Graphics/SVG/1.1/DTD/svg11.dtd">
<!-- Creator: CorelDRAW 2021 (64-Bit) -->
<svg xmlns="http://www.w3.org/2000/svg" xml:space="preserve" width="12.4624in" height="8.26772in" version="1.1" style="shape-rendering:geometricPrecision; text-rendering:geometricPrecision; image-rendering:optimizeQuality; fill-rule:evenodd; clip-rule:evenodd"
viewBox="0 0 12461.94 8267.44"
 xmlns:xlink="http://www.w3.org/1999/xlink"
 xmlns:xodm="http://www.corel.com/coreldraw/odm/2003">
 <defs>
  <style type="text/css">
   <![CDATA[
    .str1 {stroke:#00AFEF;stroke-width:39.37;stroke-miterlimit:2.61313}
    .str5 {stroke:#373435;stroke-width:29.53;stroke-miterlimit:2.61313}
    .str6 {stroke:#373435;stroke-width:19.68;stroke-miterlimit:2.61313}
    .str8 {stroke:#373435;stroke-width:9.84;stroke-miterlimit:2.61313}
    .str0 {stroke:#373435;stroke-width:9.84;stroke-miterlimit:2.61313}
    .str7 {stroke:#373435;stroke-width:6.94;stroke-miterlimit:2.61313}
    .str2 {stroke:#96989A;stroke-width:19.68;stroke-miterlimit:2.61313;stroke-dasharray:39.368760 19.684380}
    .str4 {stroke:#FEFEFE;stroke-width:59.05;stroke-linecap:round;stroke-linejoin:round;stroke-miterlimit:2.61313}
    .str3 {stroke:#FEFEFE;stroke-width:30.01;stroke-linecap:round;stroke-linejoin:round;stroke-miterlimit:2.61313}
    .fil2 {fill:none}
    .fil9 {fill:none;fill-rule:nonzero}
    .fil13 {fill:#373435}
    .fil15 {fill:#FFF212}
    .fil0 {fill:#F17193}
    .fil14 {fill:#ED3237}
    .fil16 {fill:#00A859}
    .fil4 {fill:#0166AE}
    .fil5 {fill:#09397A}
    .fil6 {fill:#3B85C5}
    .fil7 {fill:#5EAADE}
    .fil3 {fill:#B8E5FA}
    .fil12 {fill:#F3771A}
    .fil11 {fill:#FFCB39}
    .fil1 {fill:#FEFEFE;fill-rule:nonzero}
    .fil8 {fill:#373435;fill-rule:nonzero}
    .fil10 {fill:#373435;fill-rule:nonzero}
   ]]>
  </style>
    <clipPath id="id0">
     <path d="M2619.45 2332.06l121.15 69.94 121.15 69.95 0 139.89 0 139.89 -121.15 69.95 -121.15 69.95 -121.15 -69.95 -121.15 -69.95 0 -139.89 0 -139.89 121.15 -69.95 121.15 -69.94z"/>
    </clipPath>
     <clipPath id="id1">
      <path d="M3462.07 1777.53c27.27,-9.99 56,-7.98 80.41,3.34 11.32,-24.41 31.95,-44.51 59.21,-54.5 54.53,-19.98 114.93,8.03 134.9,62.56 9.99,27.26 7.98,55.99 -3.34,80.41l-88.47 190.78 -190.78 -88.47c-24.41,-11.32 -44.51,-31.96 -54.49,-59.22 -19.98,-54.53 8.03,-114.93 62.55,-134.9z"/>
     </clipPath>
 </defs>
 <g id="Layer_x0020_1">
  <metadata id="CorelCorpID_0Corel-Layer"/>
  <rect class="fil0" x="3248.17" y="1497.22" width="1560.18" height="690.68" rx="102.37" ry="100"/>
  <path class="fil1 str0" d="M1183.04 7147.63l2020.81 0c56.91,-101.81 156.58,-176.45 274.7,-199.63l1950.14 -6041.5 373.7 119.95 -790.33 2448.43 3700.96 3672.75 2293.44 0 0 393.69 -7096.75 0c-69.1,123.62 -201.24,207.23 -352.93,207.23 -151.69,0 -283.83,-83.6 -352.93,-207.23l-2020.81 0 0 -393.69zm2668.98 -78.98c22.26,23.81 41.66,50.33 57.69,78.98l4246.01 0 -3278.87 -3253.88 -1024.83 3174.9z"/>
  <path class="fil2 str1" d="M10899.88 7254.2l-2189.58 0c-27.4,0 -50.99,-9.72 -70.44,-29.02l-3705.75 -3677.51c-27.41,-27.2 -36.59,-64.94 -24.72,-101.69l440.32 -1364.1c16.76,-51.92 -11.37,-107.87 -63.03,-125.41l-141 -47.86"/>
  <path class="fil2 str1" d="M1289.61 7434.74l1911.62 0c36.95,0 68.66,18.45 86.93,50.57 45.37,79.79 141.89,156.65 268.61,156.65 270.24,0 392.09,-319.97 216.3,-508.54 -25.4,-27.25 -33.48,-63.44 -22.03,-98.89l1184.57 -3669.77"/>
  <g id="_2190528903664">
   <polyline class="fil2 str2" points="1183.04,7344.47 3204.82,7344.47 11006.46,7344.47 "/>
   <g>
    <line class="fil2 str2" x1="5615.54" y1="966.47" x2="3556.78" y2= "7344.47" />
    <line class="fil2 str2" x1="4788.27" y1="3529.32" x2="8632.72" y2= "7344.47" />
   </g>
  </g>
  <g id="_2190528906736">
   <g>
    <polygon class="fil2 str3" points="2619.45,2332.06 2740.59,2402.01 2861.74,2471.95 2861.74,2611.84 2861.74,2751.73 2740.59,2821.68 2619.45,2891.62 2498.3,2821.68 2377.15,2751.73 2377.15,2611.84 2377.15,2471.95 2498.3,2402.01 "/>
   </g>
   <polygon id="_1" class="fil3" points="2619.45,2332.06 2740.59,2402.01 2861.74,2471.95 2861.74,2611.84 2861.74,2751.73 2740.59,2821.68 2619.45,2891.62 2498.3,2821.68 2377.15,2751.73 2377.15,2611.84 2377.15,2471.95 2498.3,2402.01 "/>
   <g style="clip-path:url(#id0)">
    <g id="_2190528846208">
     <polygon id="_2" class="fil4" points="2377.15,2751.73 2619.72,2612 2619.45,2891.62 "/>
     <polygon class="fil5" points="2619.45,2891.62 2619.72,2612 2861.74,2751.73 "/>
     <polygon class="fil6" points="2619.45,2332.06 2516.88,2552.62 2377.15,2471.95 "/>
     <polygon class="fil4" points="2377.15,2751.73 2516.88,2552.62 2377.15,2471.95 "/>
     <polygon class="fil7" points="2516.88,2552.62 2619.72,2612 2377.15,2751.73 "/>
     <polygon class="fil6" points="2619.99,2332.06 2722.56,2552.62 2862.29,2471.95 "/>
     <polygon class="fil4" points="2862.29,2751.73 2722.56,2552.62 2862.29,2471.95 "/>
     <polygon class="fil7" points="2722.56,2552.62 2619.72,2612 2862.29,2751.73 "/>
    </g>
   </g>
   <path class="fil8" d="M3055.09 2677.6l15.56 -11.76c2.78,-2.03 5.56,-3.08 8.26,-3.08 2.99,0 5.9,1.14 8.77,3.46l15.56 12.1 0 -56.34c0,-3.71 -1.18,-5.56 -3.58,-5.56 -1.56,0 -2.32,1.39 -2.32,4.09 0,3.88 1.47,6.91 4.43,9.15l-4.43 6.16c-8.81,-4.09 -13.24,-10.33 -13.24,-18.64 0,-14.33 8.35,-21.5 25.09,-21.5 16.66,0 24.96,8.77 24.96,26.31l0 84.88 -27.2 0 -27.79 -23.49 -27.79 23.49 -27.2 0 0 -119.08c-2.95,-1.65 -5.36,-3.92 -7.17,-6.87 -1.81,-2.91 -2.7,-6.03 -2.7,-9.32 3.54,-5.86 10.5,-11.51 20.83,-17.03 10.33,-5.52 21.89,-8.31 34.62,-8.31 8.35,0 24.16,5.02 47.44,14.97 12.15,-9.95 23.36,-14.97 33.74,-14.97 8.9,0 21.5,4.22 37.82,12.61 16.28,8.39 24.46,17.37 24.46,26.94l0 121.06 -30.9 0 0 -121.06c0,-2.57 -5.74,-6.2 -17.29,-10.92 -11.51,-4.77 -20.16,-7.13 -25.93,-7.13 -5.18,0 -14.67,5.52 -28.42,16.57 -29.48,-11.05 -47.69,-16.57 -54.6,-16.57 -6.16,0 -12.06,1.43 -17.67,4.34 3.46,6.41 9.02,12.23 16.7,17.41l0 88.09z"/>
   <path id="_1_0" class="fil8" d="M3366.99 2580.62c0.42,2.7 0.63,5.57 0.63,8.52 0,15.9 -8.77,23.82 -26.31,23.82 -12.52,0 -18.8,-5.48 -18.8,-16.53 0,-4.39 1.77,-7.3 5.31,-8.77 1.18,3.88 2.95,5.78 5.31,5.78 2.4,0 3.58,-1.43 3.58,-4.3 0,-15.39 -8.01,-23.11 -24.08,-23.11 -16.07,0 -24.08,7.72 -24.08,23.11 0,14.08 26.36,32.93 79.06,56.59l0 29.01c0,21.42 -12.06,32.13 -36.22,32.13 -7.55,0 -14.97,-3.63 -22.14,-10.92 -7.21,-7.3 -14.13,-10.96 -20.7,-10.96l0 21.89 -30.9 0 0 -64.22 30.9 0 0 22.6c8.81,0 17.25,3.63 25.3,10.92 8.09,7.3 13.91,10.92 17.54,10.92 3.54,0 5.31,-4.09 5.31,-12.36l0 -21c-52.71,-23.7 -79.06,-45.25 -79.06,-64.6 0,-28.59 18.34,-42.88 54.98,-42.88 26.35,0 43.22,7.42 50.64,22.26l0 -0.89c0,-6.83 2.28,-11.64 6.79,-14.46 7.59,-4.6 15.14,-6.92 22.6,-6.92 8.98,0 20.24,4.68 33.74,14.04 13.53,9.36 20.28,19.99 20.28,31.92l0 114.65 -30.9 0 0 -114.65c0,-3.12 -3.59,-7.63 -10.79,-13.53 -7.21,-5.86 -12.95,-8.81 -17.25,-8.81 -6.07,0 -12.99,3.58 -20.75,10.75z"/>
   <path id="_2_1" class="fil8" d="M3522.03 2661.03c5.02,-7.34 11.18,-11.01 18.51,-11.01 11.55,0 17.29,6.41 17.29,19.15 0,11.97 -5.35,17.92 -16.02,17.92 0,-8.22 -3.33,-12.36 -9.91,-12.36 -3.46,0 -6.75,3.12 -9.87,9.41l0 22.73 -30.9 0 0 -80.28c0,-24.71 18.34,-37.07 54.98,-37.07 36.64,0 54.99,12.35 54.99,37.07l0 80.28 -30.91 0 0 -80.28c0,-11.55 -8.01,-17.33 -24.08,-17.33 -16.07,0 -24.08,5.78 -24.08,17.33l0 34.45zm158.12 45.83l-30.9 0 0 -121.06c0,-2.57 -5.74,-6.2 -17.29,-10.92 -11.51,-4.77 -20.16,-7.13 -25.93,-7.13 -5.18,0 -14.67,5.52 -28.42,16.57 -29.48,-11.05 -47.69,-16.57 -54.6,-16.57 -6.16,0 -10.92,1.47 -14.21,4.47 3.88,5.48 7.17,8.26 9.91,8.26 2.7,0 5.19,-0.59 7.38,-1.73 -6.33,9.4 -13.16,14.08 -20.5,14.08 -4.76,0 -11.76,-2.95 -21,-8.9l-3.33 -12.35c3.54,-5.86 10.5,-11.51 20.83,-17.03 10.33,-5.52 21.89,-8.31 34.62,-8.31 8.35,0 24.16,5.02 47.44,14.97 12.15,-9.95 23.36,-14.97 33.74,-14.97 8.9,0 21.5,4.22 37.82,12.61 16.28,8.39 24.46,17.37 24.46,26.94l0 121.06z"/>
   <path id="_3" class="fil8" d="M4059.65 2669.8c0,24.71 -17.33,37.07 -51.91,37.07 -34.57,0 -51.86,-12.35 -51.86,-37.07l0 -40.77c0,-11.51 -8.26,-17.29 -24.71,-17.29 -16.49,0 -24.71,5.78 -24.71,17.29l0 49.42c0,4.93 1.86,7.42 5.57,7.42 4.51,0 6.79,-4.05 6.79,-12.1 0,-9.49 -3.08,-16.28 -9.28,-20.41l2.49 -8.65c7.17,0 13.37,2.7 18.64,8.05 5.27,5.35 7.93,12.35 7.93,21 0,22.05 -10.5,33.1 -31.54,33.1 -21,0 -31.5,-9.49 -31.5,-28.42l0 -49.42c0,-15.22 7.08,-25.76 21.25,-31.62 -3.2,-1.39 -6.58,-2.44 -10.12,-3.2l-4.93 -15.05c2.78,-6.74 7.55,-13.91 14.21,-21.5 6.67,-7.59 13.37,-11.39 20.11,-11.39 5.1,0 11.47,1.85 19.06,5.57 7.55,3.71 12.99,5.57 16.28,5.57 4.85,0 8.39,-0.55 10.63,-1.6 -1.65,17.03 -8.43,25.55 -20.37,25.55 -7.84,0 -15.81,-2.36 -24,-7.17 -5.9,0 -11.05,2.61 -15.43,7.8 9.49,3.2 17.12,6.58 22.98,10.12 1.9,-0.09 3.88,-0.13 5.94,-0.13 37.07,0 55.58,12.36 55.58,37.07l0 40.77c0,11.55 7,17.29 21,17.29 14,0 21,-5.74 21,-17.29l0 -56.33c-0.8,-8.73 -4.93,-13.92 -12.35,-15.56l-4.93 -15.05c1.98,-8.43 7.76,-16.61 17.29,-24.58 9.57,-8.01 20.45,-12.02 32.64,-12.02 18.77,0 36.35,4.68 52.75,14.04 16.36,9.36 24.59,19.99 24.59,31.92l0 114.65 -30.91 0 0 -114.65c0,-3.12 -5.44,-7.63 -16.36,-13.53 -10.92,-5.86 -20.83,-8.81 -29.73,-8.81 -15.48,0 -25.38,4.85 -29.77,14.59 18.47,6.49 27.7,14.93 27.7,25.3l0 60.05z"/>
   <path id="_4" class="fil8" d="M3942.9 2746.75c0,-9.36 3.63,-17.33 10.88,-23.82 7.17,-6.58 17.96,-9.91 32.34,-9.91 13.53,0 25.13,3.16 34.87,9.4 9.53,6.28 16.49,13.11 20.87,20.5 4.26,7.59 8.26,12.9 11.97,15.94 3.8,3.17 7.97,4.72 12.61,4.72 0,7.46 -2.07,11.22 -6.2,11.22 -12.35,0 -21.25,-1.69 -26.69,-5.06 -5.4,-3.54 -9.91,-9.07 -13.45,-16.53 -3.54,-7.42 -8.77,-13.53 -15.68,-18.34 -6.92,-4.85 -13.03,-7.25 -18.3,-7.25 -6.58,0 -11.3,1.77 -14.17,5.31 -2.91,3.54 -4.34,8.14 -4.34,13.83 0,5.61 1.56,9.83 4.68,12.61 3.08,2.82 7.67,4.22 13.83,4.22 0,3.71 -1.01,6.49 -3.08,8.39 -2.07,1.9 -5.15,2.83 -9.28,2.83 -8.22,0 -15.43,-2.32 -21.59,-7.04 -6.2,-4.68 -9.28,-11.68 -9.28,-21z"/>
   <path id="_5" class="fil8" d="M4183.16 2613.47c0,-8.73 -3.71,-13.92 -11.09,-15.56l-4.94 -15.05c1.94,-8.43 5.44,-16.61 10.5,-24.58 5.02,-8.01 10.08,-12.02 15.18,-12.02 5.1,0 10.63,1.85 16.53,5.57 5.94,3.71 10.16,5.57 12.61,5.57 3.2,0 5.95,-0.55 8.18,-1.6 -1.65,17.03 -7.21,25.55 -16.7,25.55 -6.16,0 -12.52,-2.36 -19.02,-7.17 -2.66,0 -4.89,3.46 -6.79,10.29 17.63,4.85 26.44,12.48 26.44,22.85l0 62.49c0,11.55 8.01,17.29 24.08,17.29 16.07,0 24.08,-5.74 24.08,-17.29l0 -56.33c0,-8.73 -3.71,-13.92 -11.09,-15.56l-4.93 -15.05c1.94,-8.43 5.44,-16.61 10.5,-24.58 5.02,-8.01 10.08,-12.02 15.18,-12.02 5.1,0 10.63,1.85 16.53,5.57 5.95,3.71 10.17,5.57 12.61,5.57 3.2,0 5.94,-0.55 8.18,-1.6 -1.65,17.03 -7.21,25.55 -16.7,25.55 -6.15,0 -12.52,-2.36 -19.02,-7.17 -2.66,0 -4.89,3.46 -6.79,10.29 17.63,4.85 26.44,12.48 26.44,22.85l0 62.49c0,24.71 -18.34,37.07 -54.99,37.07 -36.64,0 -54.98,-12.35 -54.98,-37.07l0 -56.33z"/>
   <path id="_6" class="fil8" d="M4446.91 2580.62c0.42,2.7 0.63,5.57 0.63,8.52 0,15.9 -8.77,23.82 -26.31,23.82 -12.52,0 -18.8,-5.48 -18.8,-16.53 0,-4.39 1.77,-7.3 5.31,-8.77 1.18,3.88 2.95,5.78 5.31,5.78 2.4,0 3.58,-1.43 3.58,-4.3 0,-15.39 -8.01,-23.11 -24.08,-23.11 -16.07,0 -24.08,7.72 -24.08,23.11 0,14.08 26.36,32.93 79.06,56.59l0 29.01c0,21.42 -12.06,32.13 -36.22,32.13 -7.55,0 -14.97,-3.63 -22.14,-10.92 -7.21,-7.3 -14.13,-10.96 -20.7,-10.96l0 21.89 -30.9 0 0 -64.22 30.9 0 0 22.6c8.81,0 17.25,3.63 25.3,10.92 8.09,7.3 13.91,10.92 17.54,10.92 3.54,0 5.31,-4.09 5.31,-12.36l0 -21c-52.71,-23.7 -79.06,-45.25 -79.06,-64.6 0,-28.59 18.34,-42.88 54.98,-42.88 26.35,0 43.22,7.42 50.64,22.26l0 -0.89c0,-6.83 2.28,-11.64 6.79,-14.46 7.59,-4.6 15.14,-6.92 22.6,-6.92 8.98,0 20.24,4.68 33.74,14.04 13.53,9.36 20.28,19.99 20.28,31.92l0 114.65 -30.9 0 0 -114.65c0,-3.12 -3.59,-7.63 -10.79,-13.53 -7.21,-5.86 -12.95,-8.81 -17.25,-8.81 -6.07,0 -12.99,3.58 -20.75,10.75z"/>
   <path id="_7" class="fil8" d="M3765.37 2680.93c0,17.29 -9.66,25.93 -29.01,25.93 -18.55,0 -27.79,-8.98 -27.79,-26.94 0,-7 1.6,-13.16 4.81,-18.51 3.2,-5.35 8.81,-8.05 16.78,-8.05l2.49 6.2c-3.71,4.13 -5.57,10.92 -5.57,20.37 0,3.96 1.02,5.94 3.08,5.94 2.91,0 4.35,-1.65 4.35,-4.93l0 -67.47c-6.62,-8.73 -13.62,-13.92 -21,-15.56l-4.94 -15.05c1.94,-8.43 5.86,-16.61 11.72,-24.58 5.82,-8.01 12.15,-12.02 18.89,-12.02 5.1,0 11.47,1.85 19.02,5.57 7.59,3.71 12.61,5.57 15.09,5.57 3.2,0 5.91,-0.55 8.14,-1.6 -1.64,17.03 -7.21,25.55 -16.7,25.55 -9.44,0 -17.46,-2.36 -23.95,-7.17 -5.9,0 -9.82,3.46 -11.72,10.29 24.2,6.49 36.31,14.93 36.31,25.3l0 71.18z"/>
   <polygon id="_8" class="fil8" points="4635.81,2721.03 4635.81,2510.03 4818.73,2615.57 "/>
  </g>
  <g>
   <g id="_2190528849232">
    <g>
     <path class="fil9 str4" d="M4273.73 1950.86l-27.2 0 -27.79 -23.49 -27.79 23.49 -27.2 0 0 -112.29c-6.58,-4.59 -9.87,-12.27 -9.87,-22.98 2.78,-6.66 7.25,-12.57 13.33,-17.67 6.11,-5.1 13.41,-7.67 21.89,-7.67 9.4,0 17.79,2.7 25.22,8.1 7.38,5.39 13.62,8.09 18.64,8.09 6.58,0 9.87,-3.75 9.87,-11.22 0,-13.53 -6.58,-20.28 -19.74,-20.28 0,-7.8 6.58,-11.72 19.74,-11.72 20.62,0 30.91,10.66 30.91,32 0,20.66 -13.58,30.99 -40.77,30.99 -8.98,0 -17.29,-2.02 -24.88,-6.07 -7.63,-4.01 -13.96,-6.03 -18.97,-6.03 -6.83,0.8 -11.77,2.74 -14.85,5.82 2.66,3.84 9.45,7.85 20.41,11.98l0 89.69 15.56 -11.76c2.78,-2.03 5.56,-3.08 8.26,-3.08 2.99,0 5.9,1.14 8.77,3.46l15.56 12.1 0 -55.45c0,-4.93 -1.43,-7.42 -4.3,-7.42 -2.91,0 -4.35,1.98 -4.35,5.94 0,6.16 1.86,10.5 5.57,12.95l-4.93 8.64c-3.04,0 -6.79,-2.02 -11.26,-6.15 -4.43,-4.13 -6.66,-9.28 -6.66,-15.44 0,-17.96 9.49,-26.94 28.42,-26.94 18.93,0 28.42,9.49 28.42,28.42l0 84z"/>
    </g>
    <g>
     <path id="_1_2" class="fil9 str4" d="M4205.76 1967.77c0,-0.89 -1.73,-1.35 -5.19,-1.35 0,-3.12 1.1,-5.44 3.2,-6.91 2.24,-1.65 7.42,-2.49 15.6,-2.49 8.22,0 13.41,0.84 15.56,2.49 2.19,1.48 3.33,3.8 3.33,6.91 0,3.2 -2.32,7.8 -7,13.79 -4.64,5.94 -9.83,10.41 -15.56,13.41 -5.74,2.95 -11.18,5.48 -16.36,7.5 0,1.26 0.63,2.32 1.85,3.16 1.22,0.89 2.7,1.31 4.43,1.31 6.28,0 12.23,-2.28 17.92,-6.79 5.69,-4.55 11.34,-11.17 16.95,-19.9l1.48 -4.3c0.8,-2.74 2.19,-4.76 4.18,-6.07 1.9,-1.39 7.25,-2.11 16.06,-2.11 5.61,0 8.39,1.6 8.39,4.81l0 38.08c0,3.2 -2.07,5.61 -6.28,7.17 -8.48,1.65 -19.15,2.44 -32,2.44 3.96,-3.2 5.94,-6.41 5.94,-9.61l0 -2.99c-3.63,3.46 -8.05,6.45 -13.28,8.98 -5.23,2.49 -11.68,3.75 -19.35,3.75 -10.67,0 -19.82,-1.52 -27.41,-4.64 -7.59,-3.08 -11.34,-7.59 -11.39,-13.49 0.04,-5.23 2.19,-8.31 6.58,-9.28 17.29,-4.13 26.99,-8.64 29.14,-13.53 2.15,-4.89 3.2,-8.35 3.2,-10.33z"/>
    </g>
    <g>
     <path id="_2_3" class="fil9 str4" d="M4348.45 1808.17c-5.78,0 -8.65,3.29 -8.65,9.91 0,6.58 2.87,9.87 8.65,9.87 5.78,0 8.64,-3.29 8.64,-9.87 0,-6.62 -2.87,-9.91 -8.64,-9.91zm0 -17.92c20.2,0 30.27,9.28 30.27,27.83 0,18.51 -10.08,27.79 -30.27,27.79 -20.16,0 -30.27,-9.28 -30.27,-27.79 0,-18.55 10.12,-27.83 30.27,-27.83zm0 122.92c-5.78,0 -8.65,3.33 -8.65,9.91 0,6.58 2.87,9.87 8.65,9.87 5.78,0 8.64,-3.29 8.64,-9.87 0,-6.58 -2.87,-9.91 -8.64,-9.91zm0 -17.88c20.2,0 30.27,9.24 30.27,27.79 0,18.51 -10.08,27.79 -30.27,27.79 -20.16,0 -30.27,-9.28 -30.27,-27.79 0,-18.55 10.12,-27.79 30.27,-27.79z"/>
    </g>
    <g>
     <path id="_3_4" class="fil9 str4" d="M4612.2 1950.86l-30.9 0 0 -121.06c0,-2.57 -5.74,-6.2 -17.29,-10.92 -11.51,-4.77 -20.16,-7.13 -25.93,-7.13 -5.18,0 -14.67,5.52 -28.42,16.57 -29.48,-11.05 -47.69,-16.57 -54.6,-16.57 -6.16,0 -10.92,1.47 -14.21,4.47 3.88,5.48 7.17,8.26 9.91,8.26 2.7,0 5.19,-0.59 7.38,-1.73 -6.33,9.4 -13.16,14.08 -20.5,14.08 -4.76,0 -11.76,-2.95 -21,-8.9l-3.33 -12.35c3.54,-5.86 10.5,-11.51 20.83,-17.03 10.33,-5.52 21.89,-8.31 34.62,-8.31 8.35,0 24.16,5.02 47.44,14.97 12.15,-9.95 23.36,-14.97 33.74,-14.97 8.9,0 21.5,4.22 37.82,12.61 16.28,8.39 24.46,17.37 24.46,26.94l0 121.06zm-158.12 0l-30.9 0 0 -80.28c0,-24.71 18.34,-37.07 54.98,-37.07 36.64,0 54.99,12.35 54.99,37.07l0 80.28 -30.91 0 0 -80.28c0,-11.55 -8.01,-17.33 -24.08,-17.33 -16.07,0 -24.08,5.78 -24.08,17.33l0 80.28z"/>
    </g>
    <g>
     <path id="_4_5" class="fil9 str4" d="M4697.42 1924.93c0,17.29 -9.66,25.93 -29.01,25.93 -18.55,0 -27.79,-8.98 -27.79,-26.94 0,-7 1.6,-13.16 4.81,-18.51 3.2,-5.35 8.81,-8.05 16.78,-8.05l2.49 6.2c-3.71,4.13 -5.57,10.92 -5.57,20.37 0,3.96 1.02,5.94 3.08,5.94 2.91,0 4.35,-1.65 4.35,-4.93l0 -67.47c-6.62,-8.73 -13.62,-13.92 -21,-15.56l-4.94 -15.05c1.94,-8.43 5.86,-16.61 11.72,-24.58 5.82,-8.01 12.15,-12.02 18.89,-12.02 5.1,0 11.47,1.85 19.02,5.57 7.59,3.71 12.61,5.57 15.09,5.57 3.2,0 5.91,-0.55 8.14,-1.6 -1.64,17.03 -7.21,25.55 -16.7,25.55 -9.44,0 -17.46,-2.36 -23.95,-7.17 -5.9,0 -9.82,3.46 -11.72,10.29 24.2,6.49 36.31,14.93 36.31,25.3l0 71.18z"/>
    </g>
    <g>
     <polygon id="_5_6" class="fil9 str4" points="4872.37,1965.03 4872.37,1754.03 5055.29,1859.57 "/>
    </g>
    <path id="_6_7" class="fil10" d="M4273.73 1950.86l-27.2 0 -27.79 -23.49 -27.79 23.49 -27.2 0 0 -112.29c-6.58,-4.59 -9.87,-12.27 -9.87,-22.98 2.78,-6.66 7.25,-12.57 13.33,-17.67 6.11,-5.1 13.41,-7.67 21.89,-7.67 9.4,0 17.79,2.7 25.22,8.1 7.38,5.39 13.62,8.09 18.64,8.09 6.58,0 9.87,-3.75 9.87,-11.22 0,-13.53 -6.58,-20.28 -19.74,-20.28 0,-7.8 6.58,-11.72 19.74,-11.72 20.62,0 30.91,10.66 30.91,32 0,20.66 -13.58,30.99 -40.77,30.99 -8.98,0 -17.29,-2.02 -24.88,-6.07 -7.63,-4.01 -13.96,-6.03 -18.97,-6.03 -6.83,0.8 -11.77,2.74 -14.85,5.82 2.66,3.84 9.45,7.85 20.41,11.98l0 89.69 15.56 -11.76c2.78,-2.03 5.56,-3.08 8.26,-3.08 2.99,0 5.9,1.14 8.77,3.46l15.56 12.1 0 -55.45c0,-4.93 -1.43,-7.42 -4.3,-7.42 -2.91,0 -4.35,1.98 -4.35,5.94 0,6.16 1.86,10.5 5.57,12.95l-4.93 8.64c-3.04,0 -6.79,-2.02 -11.26,-6.15 -4.43,-4.13 -6.66,-9.28 -6.66,-15.44 0,-17.96 9.49,-26.94 28.42,-26.94 18.93,0 28.42,9.49 28.42,28.42l0 84z"/>
    <path id="_7_8" class="fil10" d="M4205.76 1967.77c0,-0.89 -1.73,-1.35 -5.19,-1.35 0,-3.12 1.1,-5.44 3.2,-6.91 2.24,-1.65 7.42,-2.49 15.6,-2.49 8.22,0 13.41,0.84 15.56,2.49 2.19,1.48 3.33,3.8 3.33,6.91 0,3.2 -2.32,7.8 -7,13.79 -4.64,5.94 -9.83,10.41 -15.56,13.41 -5.74,2.95 -11.18,5.48 -16.36,7.5 0,1.26 0.63,2.32 1.85,3.16 1.22,0.89 2.7,1.31 4.43,1.31 6.28,0 12.23,-2.28 17.92,-6.79 5.69,-4.55 11.34,-11.17 16.95,-19.9l1.48 -4.3c0.8,-2.74 2.19,-4.76 4.18,-6.07 1.9,-1.39 7.25,-2.11 16.06,-2.11 5.61,0 8.39,1.6 8.39,4.81l0 38.08c0,3.2 -2.07,5.61 -6.28,7.17 -8.48,1.65 -19.15,2.44 -32,2.44 3.96,-3.2 5.94,-6.41 5.94,-9.61l0 -2.99c-3.63,3.46 -8.05,6.45 -13.28,8.98 -5.23,2.49 -11.68,3.75 -19.35,3.75 -10.67,0 -19.82,-1.52 -27.41,-4.64 -7.59,-3.08 -11.34,-7.59 -11.39,-13.49 0.04,-5.23 2.19,-8.31 6.58,-9.28 17.29,-4.13 26.99,-8.64 29.14,-13.53 2.15,-4.89 3.2,-8.35 3.2,-10.33z"/>
    <path id="_8_9" class="fil10" d="M4348.45 1808.17c-5.78,0 -8.65,3.29 -8.65,9.91 0,6.58 2.87,9.87 8.65,9.87 5.78,0 8.64,-3.29 8.64,-9.87 0,-6.62 -2.87,-9.91 -8.64,-9.91zm0 -17.92c20.2,0 30.27,9.28 30.27,27.83 0,18.51 -10.08,27.79 -30.27,27.79 -20.16,0 -30.27,-9.28 -30.27,-27.79 0,-18.55 10.12,-27.83 30.27,-27.83zm0 122.92c-5.78,0 -8.65,3.33 -8.65,9.91 0,6.58 2.87,9.87 8.65,9.87 5.78,0 8.64,-3.29 8.64,-9.87 0,-6.58 -2.87,-9.91 -8.64,-9.91zm0 -17.88c20.2,0 30.27,9.24 30.27,27.79 0,18.51 -10.08,27.79 -30.27,27.79 -20.16,0 -30.27,-9.28 -30.27,-27.79 0,-18.55 10.12,-27.79 30.27,-27.79z"/>
    <path id="_9" class="fil10" d="M4612.2 1950.86l-30.9 0 0 -121.06c0,-2.57 -5.74,-6.2 -17.29,-10.92 -11.51,-4.77 -20.16,-7.13 -25.93,-7.13 -5.18,0 -14.67,5.52 -28.42,16.57 -29.48,-11.05 -47.69,-16.57 -54.6,-16.57 -6.16,0 -10.92,1.47 -14.21,4.47 3.88,5.48 7.17,8.26 9.91,8.26 2.7,0 5.19,-0.59 7.38,-1.73 -6.33,9.4 -13.16,14.08 -20.5,14.08 -4.76,0 -11.76,-2.95 -21,-8.9l-3.33 -12.35c3.54,-5.86 10.5,-11.51 20.83,-17.03 10.33,-5.52 21.89,-8.31 34.62,-8.31 8.35,0 24.16,5.02 47.44,14.97 12.15,-9.95 23.36,-14.97 33.74,-14.97 8.9,0 21.5,4.22 37.82,12.61 16.28,8.39 24.46,17.37 24.46,26.94l0 121.06zm-158.12 0l-30.9 0 0 -80.28c0,-24.71 18.34,-37.07 54.98,-37.07 36.64,0 54.99,12.35 54.99,37.07l0 80.28 -30.91 0 0 -80.28c0,-11.55 -8.01,-17.33 -24.08,-17.33 -16.07,0 -24.08,5.78 -24.08,17.33l0 80.28z"/>
    <path id="_10" class="fil10" d="M4697.42 1924.93c0,17.29 -9.66,25.93 -29.01,25.93 -18.55,0 -27.79,-8.98 -27.79,-26.94 0,-7 1.6,-13.16 4.81,-18.51 3.2,-5.35 8.81,-8.05 16.78,-8.05l2.49 6.2c-3.71,4.13 -5.57,10.92 -5.57,20.37 0,3.96 1.02,5.94 3.08,5.94 2.91,0 4.35,-1.65 4.35,-4.93l0 -67.47c-6.62,-8.73 -13.62,-13.92 -21,-15.56l-4.94 -15.05c1.94,-8.43 5.86,-16.61 11.72,-24.58 5.82,-8.01 12.15,-12.02 18.89,-12.02 5.1,0 11.47,1.85 19.02,5.57 7.59,3.71 12.61,5.57 15.09,5.57 3.2,0 5.91,-0.55 8.14,-1.6 -1.64,17.03 -7.21,25.55 -16.7,25.55 -9.44,0 -17.46,-2.36 -23.95,-7.17 -5.9,0 -9.82,3.46 -11.72,10.29 24.2,6.49 36.31,14.93 36.31,25.3l0 71.18z"/>
    <polygon id="_11" class="fil10" points="4872.37,1965.03 4872.37,1754.03 5055.29,1859.57 "/>
   </g>
   <g>
    <path class="fil11 str5" d="M3734.32 1607.54c38.27,5.81 70.55,26.58 91.82,55.46 28.89,-21.26 65.88,-31.51 104.15,-25.7 76.53,11.62 129.15,83.08 117.53,159.61 -5.81,38.27 -26.58,70.55 -55.47,91.82l-225.73 166.21 -166.21 -225.73c-21.27,-28.88 -31.51,-65.88 -25.7,-104.15 11.62,-76.53 83.08,-129.15 159.61,-117.53z"/>
    <path class="fil12" d="M3462.07 1777.53c27.27,-9.99 56,-7.98 80.41,3.34 11.32,-24.41 31.95,-44.51 59.21,-54.5 54.53,-19.98 114.93,8.03 134.9,62.56 9.99,27.26 7.98,55.99 -3.34,80.41l-88.47 190.78 -190.78 -88.47c-24.41,-11.32 -44.51,-31.96 -54.49,-59.22 -19.98,-54.53 8.03,-114.93 62.55,-134.9z"/>
    <g style="clip-path:url(#id1)">
     <g>
      <path id="_1_10" class="fil1" d="M3654.53 1762.67c4.43,4.76 4.17,12.22 -0.6,16.65 -4.76,4.43 -12.22,4.17 -16.65,-0.6 -1.21,-1.31 -5.32,-1.96 -10.68,-1.74 -5.11,0.2 -10.77,1.51 -15.93,4.13l-0.54 0.26c-4.55,2.41 -8.61,5.92 -11.28,10.66 -3.64,6.48 -4.88,15.66 -1.73,28.16 1.58,6.31 -2.26,12.72 -8.58,14.3 -6.31,1.58 -12.72,-2.26 -14.3,-8.58 -4.8,-19.06 -2.36,-34.05 4.04,-45.42 5.1,-9.08 12.65,-15.65 21.02,-20.05l0.67 -0.37c8.26,-4.2 17.39,-6.29 25.71,-6.62 12.01,-0.48 23.04,2.95 28.85,9.22zm-215.68 80.41c4,-5.12 11.4,-6.03 16.52,-2.03 5.12,4 6.03,11.4 2.03,16.52 -4.18,5.35 -6.48,10.48 -7.21,15.37 -1.01,6.74 0.97,13.53 5.04,20.17 4.7,7.67 12.09,15.11 21.02,22.1 33.48,26.2 86.35,44.78 108.81,48.14 6.44,0.94 10.91,6.94 9.96,13.38 -0.94,6.44 -6.94,10.91 -13.38,9.96 -24.79,-3.71 -83.09,-24.15 -119.88,-52.94 -11.07,-8.66 -20.39,-18.17 -26.64,-28.37 -6.89,-11.23 -10.15,-23.24 -8.27,-35.86 1.31,-8.81 5.15,-17.66 12.02,-26.44z"/>
     </g>
    </g>
    <path class="fil2 str6" d="M3462.07 1777.53c27.27,-9.99 56,-7.98 80.41,3.34 11.32,-24.41 31.95,-44.51 59.21,-54.5 54.53,-19.98 114.93,8.03 134.9,62.56 9.99,27.26 7.98,55.99 -3.34,80.41l-88.47 190.78 -190.78 -88.47c-24.41,-11.32 -44.51,-31.96 -54.49,-59.22 -19.98,-54.53 8.03,-114.93 62.55,-134.9z"/>
   </g>
  </g>
  <polygon class="fil8" points="8837.38,6969.9 8700.25,6890.72 8837.38,6811.53 "/>
  <path id="_1_11" class="fil8" d="M9090 6982.05l-27.2 0 -27.79 -23.49 -27.79 23.49 -27.2 0 0 -112.29c-6.58,-4.59 -9.87,-12.27 -9.87,-22.98 2.78,-6.66 7.25,-12.57 13.33,-17.67 6.11,-5.1 13.41,-7.67 21.89,-7.67 9.4,0 17.79,2.7 25.22,8.1 7.38,5.39 13.62,8.09 18.64,8.09 6.58,0 9.87,-3.75 9.87,-11.22 0,-13.53 -6.58,-20.28 -19.74,-20.28 0,-7.8 6.58,-11.72 19.74,-11.72 20.62,0 30.91,10.66 30.91,32 0,20.66 -13.58,30.99 -40.77,30.99 -8.98,0 -17.29,-2.02 -24.88,-6.07 -7.63,-4.01 -13.96,-6.03 -18.97,-6.03 -6.83,0.8 -11.77,2.74 -14.85,5.82 2.66,3.84 9.45,7.85 20.41,11.98l0 89.69 15.56 -11.76c2.78,-2.03 5.56,-3.08 8.26,-3.08 2.99,0 5.9,1.14 8.77,3.46l15.56 12.1 0 -55.45c0,-4.93 -1.43,-7.42 -4.3,-7.42 -2.91,0 -4.35,1.98 -4.35,5.94 0,6.16 1.86,10.5 5.57,12.95l-4.93 8.64c-3.04,0 -6.79,-2.02 -11.26,-6.15 -4.43,-4.13 -6.66,-9.28 -6.66,-15.44 0,-17.96 9.49,-26.94 28.42,-26.94 18.93,0 28.42,9.49 28.42,28.42l0 84z"/>
  <path id="_2_12" class="fil8" d="M9165.35 6963.5c1.48,0 3.5,-0.46 6.03,-1.48 2.49,-1.05 3.75,-2.57 3.84,-4.55l0 -0.13c0.84,0 1.6,0.08 2.36,0.25 0.88,0.25 1.68,0.67 2.32,1.22 1.01,1.1 1.52,3.46 1.52,7.17 0,6.58 -1.81,10.92 -5.44,12.99 -3.63,2.07 -7.17,3.08 -10.63,3.08l0 38.16c0,19.86 -17.71,29.77 -53.13,29.77 -35.42,0 -53.13,-9.91 -53.13,-29.77l0 -8.77c0,-4.26 -4.18,-7.25 -12.61,-8.9 0.17,-9.53 7.04,-14.33 20.66,-14.33 15.22,0 22.85,6.32 22.85,18.93l0 13.07c0,9.15 7.38,13.7 22.22,13.7 14.84,0 22.22,-4.55 22.22,-13.7l0 -38.16 -16.03 0 0 -18.55 16.03 0 0 -74.84c-0.8,-8.73 -4.94,-13.92 -12.36,-15.56l-4.93 -15.05c1.98,-8.43 7.76,-16.61 17.29,-24.58 9.57,-8.01 20.45,-12.02 32.64,-12.02 18.76,0 36.35,4.68 52.75,14.04 16.36,9.36 24.58,19.99 24.58,31.92l0 114.65 -30.91 0 0 -114.65c0,-3.12 -5.44,-7.63 -16.36,-13.53 -10.92,-5.86 -20.79,-8.81 -29.68,-8.81 -15.52,0 -25.43,4.85 -29.77,14.59 18.43,6.49 27.66,14.93 27.66,25.3l0 78.56z"/>
  <path id="_3_13" class="fil8" d="M9329.63 6956.12c0,17.29 -9.66,25.93 -29.01,25.93 -18.55,0 -27.79,-8.98 -27.79,-26.94 0,-7 1.6,-13.16 4.81,-18.51 3.2,-5.35 8.81,-8.05 16.78,-8.05l2.49 6.2c-3.71,4.13 -5.57,10.92 -5.57,20.37 0,3.96 1.02,5.94 3.08,5.94 2.91,0 4.35,-1.65 4.35,-4.93l0 -67.47c-6.62,-8.73 -13.62,-13.92 -21,-15.56l-4.94 -15.05c1.94,-8.43 5.86,-16.61 11.72,-24.58 5.82,-8.01 12.15,-12.02 18.89,-12.02 5.1,0 11.47,1.85 19.02,5.57 7.59,3.71 12.61,5.57 15.09,5.57 3.2,0 5.91,-0.55 8.14,-1.6 -1.64,17.03 -7.21,25.55 -16.7,25.55 -9.44,0 -17.46,-2.36 -23.95,-7.17 -5.9,0 -9.82,3.46 -11.72,10.29 24.2,6.49 36.31,14.93 36.31,25.3l0 71.18z"/>
  <path id="_4_14" class="fil8" d="M9374.07 6888.65c0,-8.73 -3.71,-13.92 -11.09,-15.56l-4.94 -15.05c1.94,-8.43 5.86,-16.61 11.72,-24.58 5.82,-8.01 12.15,-12.02 18.89,-12.02 5.1,0 11.47,1.85 19.02,5.57 7.59,3.71 12.61,5.57 15.09,5.57 3.2,0 5.91,-0.55 8.14,-1.6 -1.64,17.03 -7.21,25.55 -16.7,25.55 -9.44,0 -17.46,-2.36 -23.95,-7.17 -5.9,0 -9.82,3.46 -11.72,10.29 17.63,6.49 26.44,14.93 26.44,25.3l0 71.18c0,3.29 1.44,4.93 4.3,4.93 2.07,0 3.12,-1.98 3.12,-5.94 0,-9.44 -1.86,-16.24 -5.57,-20.37l2.44 -6.2c8.01,0 13.62,2.7 16.82,8.05 3.2,5.35 4.81,11.51 4.81,18.51 0,17.96 -9.28,26.94 -27.79,26.94 -19.35,0 -29.05,-8.65 -29.05,-25.93l0 -67.47z"/>
  <path id="_5_15" class="fil8" d="M9538.35 6869.63l30.91 0 0 112.42 -27.2 0 -27.79 -23.49 -27.79 23.49 -27.2 0 0 -112.29c-6.58,-4.59 -9.87,-12.27 -9.87,-22.98 2.78,-6.66 7.25,-12.57 13.33,-17.67 6.11,-5.1 13.41,-7.67 21.89,-7.67 9.4,0 17.79,2.7 25.22,8.1 7.38,5.39 13.62,8.09 18.64,8.09 6.58,0 9.87,-3.75 9.87,-11.22 0,-13.53 -6.58,-20.28 -19.74,-20.28 0,-7.8 6.58,-11.72 19.74,-11.72 20.62,0 30.91,10.66 30.91,32 0,20.66 -13.58,30.99 -40.77,30.99 -8.98,0 -17.29,-2.02 -24.88,-6.07 -7.63,-4.01 -13.96,-6.03 -18.97,-6.03 -6.83,0.8 -11.77,2.74 -14.85,5.82 2.66,3.84 9.45,7.85 20.41,11.98l0 89.69 15.56 -11.76c2.78,-2.03 5.56,-3.08 8.26,-3.08 2.99,0 5.9,1.14 8.77,3.46l15.56 12.1 0 -83.87z"/>
  <path id="_6_16" class="fil8" d="M9496.35 6774.51l35.84 0c-9.83,-9.07 -20.11,-13.58 -30.91,-13.58 -7.38,0 -11.09,2.44 -11.09,7.42 0,4.09 2.07,6.16 6.16,6.16zm48.57 -15.94c0.55,-2.61 0.85,-5.02 0.85,-7.17 0,-5.74 -2.49,-9.53 -7.42,-11.35 2.15,-3.37 6.62,-5.06 13.37,-5.06 11.68,0 17.54,5.52 17.54,16.66 0,7.84 -1.39,16.49 -4.09,25.93 2.7,3.54 4.09,6.45 4.09,8.65 0,5.35 -4.97,8.05 -14.84,8.05l-64.22 0c-19.77,0 -29.64,-8.64 -29.64,-25.93 0,-18.13 11.51,-27.2 34.58,-27.2 18.34,0 34.96,5.82 49.8,17.41z"/>
  <path id="_7_17" class="fil8" d="M9613.7 6982.05l0 -63.88c0,-3.71 -1.18,-5.56 -3.59,-5.56 -2.36,0 -4.13,2.36 -5.31,7.08 -3.54,-1.52 -5.31,-4.85 -5.31,-10.04 0,-12.69 6.92,-19.02 20.66,-19.02 16.28,0 24.46,7.13 24.46,21.38l0 40.77 15.56 -11.76c2.78,-2.03 5.56,-3.08 8.26,-3.08 2.99,0 5.9,1.14 8.77,3.46l15.56 12.1 0 -67.8c0,-6.83 -2.53,-11.55 -7.63,-14.08 -9.23,7.25 -19.44,10.88 -30.65,10.88 -27.16,0 -40.77,-11.55 -40.77,-34.62 0,-7.8 2.06,-14.29 6.2,-19.44 4.09,-5.15 6.16,-10.63 6.16,-16.36 0,-7 -6.16,-10.5 -18.51,-10.5 0,-8.18 6.58,-12.23 19.77,-12.23 19.74,0 29.64,7.55 29.64,22.73 0,6.16 -2.07,12.02 -6.2,17.59 -4.09,5.56 -6.16,11.64 -6.16,18.22 0,9.32 3.29,13.96 9.87,13.96 6.91,0 13.32,-1.98 19.14,-6.03 -6.15,-4.64 -9.23,-9.65 -9.23,-15.09 0,-12.82 7.8,-19.27 23.44,-19.27 16.49,0 24.71,6.45 24.71,19.27 0,7.17 -2.78,13.32 -8.39,18.42 1.73,0.68 3.5,1.39 5.31,2.24 9.49,4.76 14.21,12.86 14.21,24.33l0 96.35 -27.2 0 -27.79 -23.49 -27.79 23.49 -27.2 0zm76.23 -141.34c0,-3.46 -1.22,-5.19 -3.71,-5.19 -3.04,0 -4.55,1.73 -4.55,5.19 0,2.4 1.94,4.81 5.78,7.17 1.65,-2.19 2.49,-4.6 2.49,-7.17z"/>
  <path id="_8_18" class="fil8" d="M9766.76 6780.71c7.25,0 10.88,2.23 10.88,6.79 0,3.71 2.32,5.57 6.92,5.57 5.86,0 8.77,-3.71 8.77,-11.13 0,-7.42 -2.11,-11.13 -6.28,-11.13l-15.6 0c-10.46,0 -15.69,-4.09 -15.69,-12.36 0,-6.58 -2.44,-9.87 -7.38,-9.87 0,-8.22 4.09,-12.35 12.35,-12.35 8.39,0 13.96,1.85 16.66,5.57 2.66,3.71 3.96,8.43 3.96,14.21l5.69 -2.49c23.61,0 35.42,9.49 35.42,28.42 0,18.13 -12.61,27.16 -37.91,27.16 -19.19,0 -28.8,-5.35 -28.8,-16.02 0,-8.26 3.67,-12.35 11.01,-12.35zm1.35 107.95c0,-8.73 -3.71,-13.92 -11.09,-15.56l-4.94 -15.05c1.94,-8.43 5.86,-16.61 11.72,-24.58 5.82,-8.01 12.15,-12.02 18.89,-12.02 5.1,0 11.47,1.85 19.02,5.57 7.59,3.71 12.61,5.57 15.09,5.57 3.2,0 5.91,-0.55 8.14,-1.6 -1.64,17.03 -7.21,25.55 -16.7,25.55 -9.44,0 -17.46,-2.36 -23.95,-7.17 -5.9,0 -9.82,3.46 -11.72,10.29 17.63,6.49 26.44,14.93 26.44,25.3l0 71.18c0,3.29 1.44,4.93 4.3,4.93 2.07,0 3.12,-1.98 3.12,-5.94 0,-9.44 -1.86,-16.24 -5.57,-20.37l2.44 -6.2c8.01,0 13.62,2.7 16.82,8.05 3.2,5.35 4.81,11.51 4.81,18.51 0,17.96 -9.28,26.94 -27.79,26.94 -19.35,0 -29.05,-8.65 -29.05,-25.93l0 -67.47z"/>
  <path id="_9_19" class="fil8" d="M9853.33 6888.65c0,-8.73 -3.71,-13.92 -11.09,-15.56l-4.94 -15.05c1.94,-8.43 5.44,-16.61 10.5,-24.58 5.02,-8.01 10.08,-12.02 15.18,-12.02 5.1,0 10.63,1.85 16.53,5.57 5.94,3.71 10.16,5.57 12.61,5.57 3.2,0 5.95,-0.55 8.18,-1.6 -1.65,17.03 -7.21,25.55 -16.7,25.55 -6.16,0 -12.52,-2.36 -19.02,-7.17 -2.66,0 -4.89,3.46 -6.79,10.29 17.63,4.85 26.44,12.48 26.44,22.85l0 137.72c0,9.15 7.42,13.7 22.22,13.7 14.84,0 22.26,-4.55 22.26,-13.7l0 -8.77c0,-4.26 -4.22,-7.25 -12.61,-8.9 0.17,-9.53 7.04,-14.33 20.62,-14.33 15.22,0 22.85,6.32 22.85,18.93l0 13.07c0,19.86 -17.71,29.77 -53.13,29.77 -35.42,0 -53.13,-9.91 -53.13,-29.77l0 -131.56z"/>
  <path id="_10_20" class="fil8" d="M9928.68 6858.5c0,-10.04 2.78,-18.72 8.35,-26.06 5.57,-7.34 12.82,-11.01 21.8,-11.01 8.9,0 17.16,5.1 24.83,15.35 7.76,-10.25 16.11,-15.35 25.09,-15.35 8.9,0 16.11,3.67 21.63,11.01 5.48,7.33 8.26,16.02 8.26,26.06l0 123.55 -30.91 0 0 -123.55c0,-8.05 -2.11,-12.1 -6.41,-12.1 -4.3,0 -8.43,3.88 -12.48,11.64 -1.31,2.61 -3.04,3.92 -5.19,3.92 -2.15,0 -3.88,-1.31 -5.18,-3.92 -3.96,-7.76 -8.05,-11.64 -12.35,-11.64 -4.35,0 -6.54,4.05 -6.54,12.1l0 95.13c0,4.93 1.86,7.42 5.57,7.42 4.51,0 6.79,-4.05 6.79,-12.1 0,-9.49 -3.08,-16.28 -9.28,-20.41l2.49 -8.65c7.17,0 13.37,2.7 18.64,8.05 5.27,5.35 7.93,12.35 7.93,21 0,22.05 -10.5,33.1 -31.54,33.1 -21,0 -31.5,-9.49 -31.5,-28.42l0 -95.13z"/>
  <polygon class="fil8" points="2188.64,7500.33 2302.21,7434.74 2188.64,7369.16 2226.56,7434.74 "/>
  <circle class="fil13" cx="3556.78" cy="7344.47" r="155.79"/>
  <polygon class="fil8" points="5270.31,3516.75 5133.19,3437.56 5270.31,3358.37 "/>
  <path id="_1_21" class="fil8" d="M5522.93 3528.89l-27.2 0 -27.79 -23.49 -27.79 23.49 -27.2 0 0 -112.29c-6.58,-4.59 -9.87,-12.27 -9.87,-22.98 2.78,-6.66 7.25,-12.57 13.33,-17.67 6.11,-5.1 13.41,-7.67 21.89,-7.67 9.4,0 17.79,2.7 25.22,8.1 7.38,5.39 13.62,8.09 18.64,8.09 6.58,0 9.87,-3.75 9.87,-11.22 0,-13.53 -6.58,-20.28 -19.74,-20.28 0,-7.8 6.58,-11.72 19.74,-11.72 20.62,0 30.91,10.66 30.91,32 0,20.66 -13.58,30.99 -40.77,30.99 -8.98,0 -17.29,-2.02 -24.88,-6.07 -7.63,-4.01 -13.96,-6.03 -18.97,-6.03 -6.83,0.8 -11.77,2.74 -14.85,5.82 2.66,3.84 9.45,7.85 20.41,11.98l0 89.69 15.56 -11.76c2.78,-2.03 5.56,-3.08 8.26,-3.08 2.99,0 5.9,1.14 8.77,3.46l15.56 12.1 0 -55.45c0,-4.93 -1.43,-7.42 -4.3,-7.42 -2.91,0 -4.35,1.98 -4.35,5.94 0,6.16 1.86,10.5 5.57,12.95l-4.93 8.64c-3.04,0 -6.79,-2.02 -11.26,-6.15 -4.43,-4.13 -6.66,-9.28 -6.66,-15.44 0,-17.96 9.49,-26.94 28.42,-26.94 18.93,0 28.42,9.49 28.42,28.42l0 84z"/>
  <path id="_2_22" class="fil8" d="M5598.28 3510.34c1.48,0 3.5,-0.46 6.03,-1.48 2.49,-1.05 3.75,-2.57 3.84,-4.55l0 -0.13c0.84,0 1.6,0.08 2.36,0.25 0.88,0.25 1.68,0.67 2.32,1.22 1.01,1.1 1.52,3.46 1.52,7.17 0,6.58 -1.81,10.92 -5.44,12.99 -3.63,2.07 -7.17,3.08 -10.63,3.08l0 38.16c0,19.86 -17.71,29.77 -53.13,29.77 -35.42,0 -53.13,-9.91 -53.13,-29.77l0 -8.77c0,-4.26 -4.18,-7.25 -12.61,-8.9 0.17,-9.53 7.04,-14.33 20.66,-14.33 15.22,0 22.85,6.32 22.85,18.93l0 13.07c0,9.15 7.38,13.7 22.22,13.7 14.84,0 22.22,-4.55 22.22,-13.7l0 -38.16 -16.03 0 0 -18.55 16.03 0 0 -74.84c-0.8,-8.73 -4.94,-13.92 -12.36,-15.56l-4.93 -15.05c1.98,-8.43 7.76,-16.61 17.29,-24.58 9.57,-8.01 20.45,-12.02 32.64,-12.02 18.76,0 36.35,4.68 52.75,14.04 16.36,9.36 24.58,19.99 24.58,31.92l0 114.65 -30.91 0 0 -114.65c0,-3.12 -5.44,-7.63 -16.36,-13.53 -10.92,-5.86 -20.79,-8.81 -29.68,-8.81 -15.52,0 -25.43,4.85 -29.77,14.59 18.43,6.49 27.66,14.93 27.66,25.3l0 78.56z"/>
  <path id="_3_23" class="fil8" d="M5762.56 3502.96c0,17.29 -9.66,25.93 -29.01,25.93 -18.55,0 -27.79,-8.98 -27.79,-26.94 0,-7 1.6,-13.16 4.81,-18.51 3.2,-5.35 8.81,-8.05 16.78,-8.05l2.49 6.2c-3.71,4.13 -5.57,10.92 -5.57,20.37 0,3.96 1.02,5.94 3.08,5.94 2.91,0 4.35,-1.65 4.35,-4.93l0 -67.47c-6.62,-8.73 -13.62,-13.92 -21,-15.56l-4.94 -15.05c1.94,-8.43 5.86,-16.61 11.72,-24.58 5.82,-8.01 12.15,-12.02 18.89,-12.02 5.1,0 11.47,1.85 19.02,5.57 7.59,3.71 12.61,5.57 15.09,5.57 3.2,0 5.91,-0.55 8.14,-1.6 -1.64,17.03 -7.21,25.55 -16.7,25.55 -9.44,0 -17.46,-2.36 -23.95,-7.17 -5.9,0 -9.82,3.46 -11.72,10.29 24.2,6.49 36.31,14.93 36.31,25.3l0 71.18z"/>
  <path id="_4_24" class="fil8" d="M5886.07 3491.95l0 -74.25 30.91 0 0 123.55 -30.91 0 0 -14.72c-6.92,1.56 -14.93,2.36 -24.08,2.36 -36.64,0 -54.98,-12.35 -54.98,-37.07l0 -82.01c-2.95,-1.65 -5.36,-3.92 -7.17,-6.87 -1.81,-2.91 -2.7,-6.03 -2.7,-9.32 3.54,-5.86 10.5,-11.51 20.83,-17.03 10.33,-5.52 21.89,-8.31 34.62,-8.31 8.35,0 24.16,5.02 47.44,14.97 12.15,-9.95 23.36,-14.97 33.74,-14.97 8.9,0 21.5,4.22 37.82,12.61 16.28,8.39 24.46,17.37 24.46,26.94l0 121.06 -30.9 0 0 -121.06c0,-2.57 -5.74,-6.2 -17.29,-10.92 -11.51,-4.77 -20.16,-7.13 -25.93,-7.13 -5.18,0 -14.67,5.52 -28.42,16.57 -29.48,-11.05 -47.69,-16.57 -54.6,-16.57 -6.16,0 -12.06,1.43 -17.67,4.34 3.46,6.41 9.02,12.23 16.7,17.41l0 80.28c0,11.55 8.01,17.29 24.08,17.29 15.98,0 24,-5.74 24.08,-17.16z"/>
  <path id="_5_25" class="fil8" d="M6040.48 3469.48c52.71,-26.78 79.06,-46.21 79.06,-58.32 0,-15.39 -8.01,-23.11 -24.08,-23.11 -16.07,0 -24.08,7.72 -24.08,23.11 0,2.87 1.18,4.3 3.59,4.3 2.36,0 4.13,-1.9 5.31,-5.78 3.54,1.48 5.31,4.39 5.31,8.77 0,11.05 -6.28,16.53 -18.81,16.53 -17.54,0 -26.31,-7.92 -26.31,-23.82 0,-28.59 18.34,-42.88 54.98,-42.88 36.64,0 54.99,14.29 54.99,42.88 0,17.88 -26.35,40.18 -79.06,66.96l0 7.89c0,15.43 8.01,23.11 24.08,23.11 16.07,0 24.08,-7.68 24.08,-23.11l0 -21.33 30.91 0 0 21.33c0,28.59 -18.34,42.88 -54.99,42.88 -36.64,0 -54.98,-14.29 -54.98,-42.88l0 -16.53z"/>
  <path id="_6_26" class="fil8" d="M6225.8 3464.42l0 27.41c0,11.55 8.01,17.29 24.08,17.29 16.07,0 24.08,-5.74 24.08,-17.29l0 -27.41 -48.16 0zm0 -19.77l48.16 0 0 -9.15c0,-8.73 -3.71,-13.92 -11.09,-15.56l-4.93 -15.05c1.94,-8.43 5.44,-16.61 10.5,-24.58 5.02,-8.01 10.08,-12.02 15.18,-12.02 5.1,0 10.63,1.85 16.53,5.57 5.95,3.71 10.17,5.57 12.61,5.57 3.2,0 5.94,-0.55 8.18,-1.6 -1.65,17.03 -7.21,25.55 -16.7,25.55 -6.15,0 -12.52,-2.36 -19.02,-7.17 -2.66,0 -4.89,3.46 -6.79,10.29 17.63,4.85 26.44,12.48 26.44,22.85l0 62.49c0,24.71 -18.34,37.07 -54.99,37.07 -36.64,0 -54.98,-12.35 -54.98,-37.07l0 -56.33c0,-8.73 -3.71,-13.92 -11.09,-15.56l-4.94 -15.05c1.94,-8.43 5.44,-16.61 10.5,-24.58 5.02,-8.01 10.08,-12.02 15.18,-12.02 5.1,0 10.63,1.85 16.53,5.57 5.94,3.71 10.16,5.57 12.61,5.57 3.2,0 5.95,-0.55 8.18,-1.6 -1.65,17.03 -7.21,25.55 -16.7,25.55 -6.16,0 -12.52,-2.36 -19.02,-7.17 -2.66,0 -4.89,3.46 -6.79,10.29 17.63,4.85 26.44,12.48 26.44,22.85l0 15.31z"/>
  <path class="fil8" d="M11205.18 7437.11l-30.9 0 0 -80.28c0,-24.71 18.34,-37.07 54.98,-37.07 36.64,0 54.99,12.35 54.99,37.07l0 80.28 -30.91 0 0 -80.28c0,-11.55 -8.01,-17.33 -24.08,-17.33 -16.07,0 -24.08,5.78 -24.08,17.33l0 80.28zm-32.64 -120.3c-5.44,-4.22 -8.14,-9.19 -8.14,-14.97 4.43,-7.5 9.7,-13.58 15.81,-18.3 6.11,-4.68 11.72,-7.04 16.91,-7.04 11.89,0 23.57,4.17 35.08,12.48 9.49,-8.31 17.16,-12.48 22.98,-12.48 5.36,0 11.34,2.87 18.01,8.6 6.62,5.74 11.13,8.6 13.49,8.6 3.54,0 6.03,-0.72 7.42,-2.11 0,5.91 -1.22,11.13 -3.63,15.6 -2.44,4.51 -5.69,6.75 -9.7,6.75 -10.71,0 -22.22,-5.31 -34.49,-15.94 -5.02,0 -10.46,4.68 -16.28,14.08 -22.64,-10.29 -35.5,-15.43 -38.54,-15.43 -3.07,0 -5.27,1.94 -6.7,5.82 3.46,6.32 7.04,9.49 10.76,9.49 1.48,0 3.08,-0.17 4.72,-0.46 -3.46,7.72 -7.59,11.59 -12.35,11.59 -4.81,0 -9.91,-2.11 -15.35,-6.28z"/>
  <path id="_1_27" class="fil8" d="M11229.25 7214.14c-5.78,0 -8.65,3.29 -8.65,9.87 0,6.62 2.87,9.91 8.65,9.91 5.78,0 8.64,-3.29 8.64,-9.91 0,-6.58 -2.87,-9.87 -8.64,-9.87zm0 -17.92c20.15,0 30.27,9.28 30.27,27.79 0,18.55 -10.12,27.79 -30.27,27.79 -20.2,0 -30.27,-9.24 -30.27,-27.79 0,-18.51 10.07,-27.79 30.27,-27.79z"/>
  <path id="_2_28" class="fil8" d="M11328.68 7313.57c0,-10.04 2.78,-18.72 8.35,-26.06 5.57,-7.34 12.82,-11.01 21.8,-11.01 8.9,0 17.16,5.1 24.83,15.35 7.76,-10.25 16.11,-15.35 25.09,-15.35 8.9,0 16.11,3.67 21.63,11.01 5.48,7.33 8.26,16.02 8.26,26.06l0 123.55 -30.91 0 0 -123.55c0,-8.05 -2.11,-12.1 -6.41,-12.1 -4.3,0 -8.43,3.88 -12.48,11.64 -1.31,2.61 -3.04,3.92 -5.19,3.92 -2.15,0 -3.88,-1.31 -5.18,-3.92 -3.96,-7.76 -8.05,-11.64 -12.35,-11.64 -4.35,0 -6.54,4.05 -6.54,12.1l0 95.13c0,4.93 1.86,7.42 5.57,7.42 4.51,0 6.79,-4.05 6.79,-12.1 0,-9.49 -3.08,-16.28 -9.28,-20.41l2.49 -8.65c7.17,0 13.37,2.7 18.64,8.05 5.27,5.35 7.93,12.35 7.93,21 0,22.05 -10.5,33.1 -31.54,33.1 -21,0 -31.5,-9.49 -31.5,-28.42l0 -95.13z"/>
  <path id="_3_29" class="fil8" d="M11483.1 7437.11l0 -63.88c0,-3.71 -1.18,-5.56 -3.59,-5.56 -2.36,0 -4.13,2.36 -5.31,7.08 -3.54,-1.52 -5.31,-4.85 -5.31,-10.04 0,-12.69 6.92,-19.02 20.66,-19.02 16.28,0 24.46,7.13 24.46,21.38l0 40.77 15.56 -11.76c2.78,-2.03 5.56,-3.08 8.26,-3.08 2.99,0 5.9,1.14 8.77,3.46l15.56 12.1 0 -67.8c0,-6.83 -2.53,-11.55 -7.63,-14.08 -9.23,7.25 -19.44,10.88 -30.65,10.88 -27.16,0 -40.77,-11.55 -40.77,-34.62 0,-7.8 2.06,-14.29 6.2,-19.44 4.09,-5.15 6.16,-10.63 6.16,-16.36 0,-7 -6.16,-10.5 -18.51,-10.5 0,-8.18 6.58,-12.23 19.77,-12.23 19.74,0 29.64,7.55 29.64,22.73 0,6.16 -2.07,12.02 -6.2,17.59 -4.09,5.56 -6.16,11.64 -6.16,18.22 0,9.32 3.29,13.96 9.87,13.96 6.91,0 13.32,-1.98 19.14,-6.03 -6.15,-4.64 -9.23,-9.65 -9.23,-15.09 0,-12.82 7.8,-19.27 23.44,-19.27 16.49,0 24.71,6.45 24.71,19.27 0,7.17 -2.78,13.32 -8.39,18.42 1.73,0.68 3.5,1.39 5.31,2.24 9.49,4.76 14.21,12.86 14.21,24.33l0 96.35 -27.2 0 -27.79 -23.49 -27.79 23.49 -27.2 0zm76.23 -141.34c0,-3.46 -1.22,-5.19 -3.71,-5.19 -3.04,0 -4.55,1.73 -4.55,5.19 0,2.4 1.94,4.81 5.78,7.17 1.65,-2.19 2.49,-4.6 2.49,-7.17z"/>
  <path id="_4_30" class="fil8" d="M11553.51 7190.06l0 53.09c0,6.62 -5.15,10.71 -15.43,12.35 -10.29,-1.65 -15.43,-5.73 -15.43,-12.35l0 -53.09 30.87 0z"/>
  <path id="_5_31" class="fil8" d="M11627.64 7301.84c3.54,-5.86 10.5,-11.51 20.83,-17.03 10.33,-5.52 21.89,-8.31 34.62,-8.31 8.35,0 24.16,5.02 47.44,14.97 12.15,-9.95 23.36,-14.97 33.74,-14.97 8.9,0 21.5,4.22 37.82,12.61 16.28,8.39 24.46,17.37 24.46,26.94l0 121.06 -30.9 0 0 -121.06c0,-2.57 -5.74,-6.2 -17.29,-10.92 -11.51,-4.77 -20.16,-7.13 -25.93,-7.13 -5.18,0 -14.67,5.52 -28.42,16.57 -29.48,-11.05 -47.69,-16.57 -54.6,-16.57 -6.16,0 -12.06,1.43 -17.67,4.34 3.46,6.41 9.02,12.23 16.7,17.41l0 80.28c0,11.55 8.01,17.29 24.08,17.29 16.07,0 24.08,-5.74 24.08,-17.29l0 -47.82c0,-3.71 -1.18,-5.56 -3.58,-5.56 -1.56,0 -2.32,1.39 -2.32,4.09 0,3.88 1.47,6.91 4.43,9.15l-4.43 6.16c-8.81,-4.09 -13.24,-10.33 -13.24,-18.64 0,-14.33 8.35,-21.5 25.09,-21.5 16.66,0 24.96,8.77 24.96,26.31l0 47.82c0,24.71 -18.34,37.07 -54.99,37.07 -36.64,0 -54.98,-12.35 -54.98,-37.07l0 -82.01c-2.95,-1.65 -5.36,-3.92 -7.17,-6.87 -1.81,-2.91 -2.7,-6.03 -2.7,-9.32z"/>
  <path id="_6_32" class="fil8" d="M11901.88 7372.64l0 27.41c0,11.55 8.01,17.29 24.08,17.29 16.07,0 24.08,-5.74 24.08,-17.29l0 -27.41 -48.16 0zm0 -19.77l48.16 0 0 -9.15c0,-8.73 -3.71,-13.92 -11.09,-15.56l-4.93 -15.05c1.94,-8.43 5.44,-16.61 10.5,-24.58 5.02,-8.01 10.08,-12.02 15.18,-12.02 5.1,0 10.63,1.85 16.53,5.57 5.95,3.71 10.17,5.57 12.61,5.57 3.2,0 5.94,-0.55 8.18,-1.6 -1.65,17.03 -7.21,25.55 -16.7,25.55 -6.15,0 -12.52,-2.36 -19.02,-7.17 -2.66,0 -4.89,3.46 -6.79,10.29 17.63,4.85 26.44,12.48 26.44,22.85l0 62.49c0,24.71 -18.34,37.07 -54.99,37.07 -36.64,0 -54.98,-12.35 -54.98,-37.07l0 -56.33c0,-8.73 -3.71,-13.92 -11.09,-15.56l-4.94 -15.05c1.94,-8.43 5.44,-16.61 10.5,-24.58 5.02,-8.01 10.08,-12.02 15.18,-12.02 5.1,0 10.63,1.85 16.53,5.57 5.94,3.71 10.16,5.57 12.61,5.57 3.2,0 5.95,-0.55 8.18,-1.6 -1.65,17.03 -7.21,25.55 -16.7,25.55 -6.16,0 -12.52,-2.36 -19.02,-7.17 -2.66,0 -4.89,3.46 -6.79,10.29 17.63,4.85 26.44,12.48 26.44,22.85l0 15.31z"/>
  <path class="fil8" d="M477.99 7310.65c-5.44,-4.22 -8.14,-9.19 -8.14,-14.97 4.43,-7.5 9.7,-13.58 15.81,-18.3 6.11,-4.68 11.72,-7.04 16.91,-7.04 11.89,0 23.57,4.17 35.08,12.48 9.49,-8.31 17.16,-12.48 22.98,-12.48 5.36,0 11.34,2.87 18.01,8.6 6.62,5.74 11.13,8.6 13.49,8.6 3.54,0 6.03,-0.72 7.42,-2.11 0,5.91 -1.22,11.13 -3.63,15.6 -2.44,4.51 -5.69,6.75 -9.7,6.75 -10.71,0 -22.22,-5.31 -34.49,-15.94 -5.02,0 -10.46,4.68 -16.28,14.08 -22.64,-10.29 -35.5,-15.43 -38.54,-15.43 -3.07,0 -5.27,1.94 -6.7,5.82 3.46,6.32 7.04,9.49 10.76,9.49 1.48,0 3.08,-0.17 4.72,-0.46 -3.46,7.72 -7.59,11.59 -12.35,11.59 -4.81,0 -9.91,-2.11 -15.35,-6.28zm32.64 46.18c0,6.58 1.86,14.25 5.57,22.98 3.71,8.73 5.52,16.95 5.52,24.71 0,17.63 -10.46,26.44 -31.37,26.44 -16.95,0 -25.43,-9.19 -25.43,-27.53 0,-9.07 2.53,-15.18 7.63,-18.3 2.4,-1.48 4.43,-2.24 6.07,-2.24 1.98,0 3.5,1.01 4.55,2.99 -1.48,3.37 -2.19,8.22 -2.19,14.55 0,6.37 2.28,9.53 6.91,9.53 3.63,0 5.44,-1.81 5.44,-5.44 0,-4.38 -2.28,-11.09 -6.79,-20.15 -4.55,-9.02 -6.83,-18.22 -6.83,-27.53l0 -6.16c0,-24.71 18.34,-37.07 54.98,-37.07 36.64,0 54.99,12.35 54.99,37.07l0 80.28 -30.91 0 0 -80.28c0,-11.55 -8.01,-17.33 -24.08,-17.33 -16.07,0 -24.08,5.78 -24.08,17.33l0 6.16z"/>
  <path id="_1_33" class="fil8" d="M509.36 7485.31c-20.58,0 -30.87,-6.58 -30.87,-19.77 0,-14.46 14,-21.72 42,-21.72l27.2 0 0 -6.7 29.64 0 0 6.7 18.51 0 0 15.56 -18.51 0 0 9.02c4.09,0 7.21,1.14 9.24,3.46 2.07,2.28 3.12,6.54 3.12,12.69 0,4.72 -1.31,8.22 -3.83,10.54 -2.66,2.28 -6.5,3.46 -11.64,3.46 -12.48,0 -20.07,-1.48 -22.73,-4.34 -2.53,-2.7 -3.8,-6.83 -3.8,-12.35l-25.98 3.33 -3.33 0c-0.63,0 -1.27,0.04 -1.77,0.08 -0.55,0.04 -2.95,0.04 -7.25,0.04zm-1.22 -19.77c0,4.39 2.07,6.58 6.2,6.58 5.98,0 10.12,-0.13 12.35,-0.38l21 -3.33 0 -9.02 -27.2 0c-8.22,0 -12.35,2.07 -12.35,6.16z"/>
  <path id="_2_34" class="fil8" d="M534.71 7207.98c-5.78,0 -8.65,3.29 -8.65,9.87 0,6.62 2.87,9.91 8.65,9.91 5.78,0 8.64,-3.29 8.64,-9.91 0,-6.58 -2.87,-9.87 -8.64,-9.87zm0 -17.92c20.15,0 30.27,9.28 30.27,27.79 0,18.55 -10.12,27.79 -30.27,27.79 -20.2,0 -30.27,-9.24 -30.27,-27.79 0,-18.51 10.07,-27.79 30.27,-27.79z"/>
  <path id="_3_35" class="fil8" d="M634.14 7337.56c0,-8.73 -3.71,-13.92 -11.09,-15.56l-4.94 -15.05c1.94,-8.43 5.86,-16.61 11.72,-24.58 5.82,-8.01 12.15,-12.02 18.89,-12.02 5.1,0 11.47,1.85 19.02,5.57 7.59,3.71 12.61,5.57 15.09,5.57 3.2,0 5.91,-0.55 8.14,-1.6 -1.64,17.03 -7.21,25.55 -16.7,25.55 -9.44,0 -17.46,-2.36 -23.95,-7.17 -5.9,0 -9.82,3.46 -11.72,10.29 17.63,6.49 26.44,14.93 26.44,25.3l0 71.18c0,3.29 1.44,4.93 4.3,4.93 2.07,0 3.12,-1.98 3.12,-5.94 0,-9.44 -1.86,-16.24 -5.57,-20.37l2.44 -6.2c8.01,0 13.62,2.7 16.82,8.05 3.2,5.35 4.81,11.51 4.81,18.51 0,17.96 -9.28,26.94 -27.79,26.94 -19.35,0 -29.05,-8.65 -29.05,-25.93l0 -67.47z"/>
  <path id="_4_36" class="fil8" d="M719.35 7307.41c0,-10.04 2.78,-18.72 8.35,-26.06 5.57,-7.34 12.82,-11.01 21.8,-11.01 8.9,0 17.16,5.1 24.83,15.35 7.76,-10.25 16.11,-15.35 25.09,-15.35 8.9,0 16.11,3.67 21.63,11.01 5.48,7.33 8.26,16.02 8.26,26.06l0 123.55 -30.91 0 0 -123.55c0,-8.05 -2.11,-12.1 -6.41,-12.1 -4.3,0 -8.43,3.88 -12.48,11.64 -1.31,2.61 -3.04,3.92 -5.19,3.92 -2.15,0 -3.88,-1.31 -5.18,-3.92 -3.96,-7.76 -8.05,-11.64 -12.35,-11.64 -4.35,0 -6.54,4.05 -6.54,12.1l0 95.13c0,4.93 1.86,7.42 5.57,7.42 4.51,0 6.79,-4.05 6.79,-12.1 0,-9.49 -3.08,-16.28 -9.28,-20.41l2.49 -8.65c7.17,0 13.37,2.7 18.64,8.05 5.27,5.35 7.93,12.35 7.93,21 0,22.05 -10.5,33.1 -31.54,33.1 -21,0 -31.5,-9.49 -31.5,-28.42l0 -95.13z"/>
  <path id="_5_37" class="fil8" d="M1034.5 7437.11c18.85,0 28.29,9.07 28.29,27.2 0,23.07 -14.46,34.58 -43.39,34.58 -23.02,0 -47.4,-6.87 -72.99,-20.66 -25.59,-13.83 -43.77,-20.7 -54.48,-20.7 -7.17,0 -12.4,0.89 -15.69,2.7 3.29,-15.39 10.37,-23.11 21.26,-23.11 10.79,0 28.97,7.63 54.6,22.85 25.59,15.26 46.38,22.85 62.36,22.85 11.64,0 17.42,-4.09 17.42,-12.31 0,-5.78 -1.86,-8.69 -5.53,-8.69 -3.71,0 -5.56,1.22 -5.56,3.59 0,2.4 1.94,3.75 5.78,4.09 -0.63,4.38 -2.32,6.54 -5.06,6.54 -10.2,0 -15.31,-5.23 -15.31,-15.69 0,-15.47 9.44,-23.23 28.29,-23.23zm-59.29 -156.14c7.63,-7.08 19.74,-10.63 36.31,-10.63 34.2,0 51.27,12.35 51.27,37.07l0 123.55 -30.9 0 0 -123.55c0,-11.51 -6.79,-17.29 -20.37,-17.29 -18.51,0 -27.79,5.78 -27.79,17.29l0 123.55 -30.91 0 0 -123.55c0,-8.05 -2.11,-12.1 -6.41,-12.1 -4.3,0 -8.43,3.88 -12.48,11.64 -1.31,2.61 -3.04,3.92 -5.19,3.92 -2.15,0 -3.88,-1.31 -5.18,-3.92 -3.96,-7.76 -8.05,-11.64 -12.35,-11.64 -4.35,0 -6.54,4.05 -6.54,12.1l0 95.13c0,4.93 1.86,7.42 5.57,7.42 4.51,0 6.79,-4.05 6.79,-12.1 0,-9.49 -3.08,-16.28 -9.28,-20.41l2.49 -8.65c7.17,0 13.37,2.7 18.64,8.05 5.27,5.35 7.93,12.35 7.93,21 0,22.05 -10.5,33.1 -31.54,33.1 -21,0 -31.5,-9.49 -31.5,-28.42l0 -95.13c0,-10.04 2.78,-18.72 8.35,-26.06 5.57,-7.34 12.82,-11.01 21.8,-11.01 8.9,0 17.16,5.1 24.83,15.35 7.76,-10.25 16.11,-15.35 25.09,-15.35 8.73,0 15.85,3.54 21.38,10.63z"/>
  <path class="fil8" d="M5425.11 765.96l-30.9 0 0 -80.28c0,-24.71 18.34,-37.07 54.98,-37.07 36.64,0 54.99,12.35 54.99,37.07l0 80.28 -30.91 0 0 -80.28c0,-11.55 -8.01,-17.33 -24.08,-17.33 -16.07,0 -24.08,5.78 -24.08,17.33l0 80.28zm-32.64 -120.3c-5.44,-4.22 -8.14,-9.19 -8.14,-14.97 4.43,-7.5 9.7,-13.58 15.81,-18.3 6.11,-4.68 11.72,-7.04 16.91,-7.04 11.89,0 23.57,4.17 35.08,12.48 9.49,-8.31 17.16,-12.48 22.98,-12.48 5.36,0 11.34,2.87 18.01,8.6 6.62,5.74 11.13,8.6 13.49,8.6 3.54,0 6.03,-0.72 7.42,-2.11 0,5.91 -1.22,11.13 -3.63,15.6 -2.44,4.51 -5.69,6.75 -9.7,6.75 -10.71,0 -22.22,-5.31 -34.49,-15.94 -5.02,0 -10.46,4.68 -16.28,14.08 -22.64,-10.29 -35.5,-15.43 -38.54,-15.43 -3.07,0 -5.27,1.94 -6.7,5.82 3.46,6.32 7.04,9.49 10.76,9.49 1.48,0 3.08,-0.17 4.72,-0.46 -3.46,7.72 -7.59,11.59 -12.35,11.59 -4.81,0 -9.91,-2.11 -15.35,-6.28z"/>
  <path id="_1_38" class="fil8" d="M5449.19 542.98c-5.78,0 -8.65,3.29 -8.65,9.87 0,6.62 2.87,9.91 8.65,9.91 5.78,0 8.64,-3.29 8.64,-9.91 0,-6.58 -2.87,-9.87 -8.64,-9.87zm0 -17.92c20.15,0 30.27,9.28 30.27,27.79 0,18.55 -10.12,27.79 -30.27,27.79 -20.2,0 -30.27,-9.24 -30.27,-27.79 0,-18.51 10.07,-27.79 30.27,-27.79z"/>
  <path id="_2_39" class="fil8" d="M5548.62 642.41c0,-10.04 2.78,-18.72 8.35,-26.06 5.57,-7.34 12.82,-11.01 21.8,-11.01 8.9,0 17.16,5.1 24.83,15.35 7.76,-10.25 16.11,-15.35 25.09,-15.35 8.9,0 16.11,3.67 21.63,11.01 5.48,7.33 8.26,16.02 8.26,26.06l0 123.55 -30.91 0 0 -123.55c0,-8.05 -2.11,-12.1 -6.41,-12.1 -4.3,0 -8.43,3.88 -12.48,11.64 -1.31,2.61 -3.04,3.92 -5.19,3.92 -2.15,0 -3.88,-1.31 -5.18,-3.92 -3.96,-7.76 -8.05,-11.64 -12.35,-11.64 -4.35,0 -6.54,4.05 -6.54,12.1l0 95.13c0,4.93 1.86,7.42 5.57,7.42 4.51,0 6.79,-4.05 6.79,-12.1 0,-9.49 -3.08,-16.28 -9.28,-20.41l2.49 -8.65c7.17,0 13.37,2.7 18.64,8.05 5.27,5.35 7.93,12.35 7.93,21 0,22.05 -10.5,33.1 -31.54,33.1 -21,0 -31.5,-9.49 -31.5,-28.42l0 -95.13z"/>
  <path id="_3_40" class="fil8" d="M5703.03 765.96l0 -63.88c0,-3.71 -1.18,-5.56 -3.59,-5.56 -2.36,0 -4.13,2.36 -5.31,7.08 -3.54,-1.52 -5.31,-4.85 -5.31,-10.04 0,-12.69 6.92,-19.02 20.66,-19.02 16.28,0 24.46,7.13 24.46,21.38l0 40.77 15.56 -11.76c2.78,-2.03 5.56,-3.08 8.26,-3.08 2.99,0 5.9,1.14 8.77,3.46l15.56 12.1 0 -67.8c0,-6.83 -2.53,-11.55 -7.63,-14.08 -9.23,7.25 -19.44,10.88 -30.65,10.88 -27.16,0 -40.77,-11.55 -40.77,-34.62 0,-7.8 2.06,-14.29 6.2,-19.44 4.09,-5.15 6.16,-10.63 6.16,-16.36 0,-7 -6.16,-10.5 -18.51,-10.5 0,-8.18 6.58,-12.23 19.77,-12.23 19.74,0 29.64,7.55 29.64,22.73 0,6.16 -2.07,12.02 -6.2,17.59 -4.09,5.56 -6.16,11.64 -6.16,18.22 0,9.32 3.29,13.96 9.87,13.96 6.91,0 13.32,-1.98 19.14,-6.03 -6.15,-4.64 -9.23,-9.65 -9.23,-15.09 0,-12.82 7.8,-19.27 23.44,-19.27 16.49,0 24.71,6.45 24.71,19.27 0,7.17 -2.78,13.32 -8.39,18.42 1.73,0.68 3.5,1.39 5.31,2.24 9.49,4.76 14.21,12.86 14.21,24.33l0 96.35 -27.2 0 -27.79 -23.49 -27.79 23.49 -27.2 0zm76.23 -141.34c0,-3.46 -1.22,-5.19 -3.71,-5.19 -3.04,0 -4.55,1.73 -4.55,5.19 0,2.4 1.94,4.81 5.78,7.17 1.65,-2.19 2.49,-4.6 2.49,-7.17z"/>
  <path id="_4_41" class="fil8" d="M5773.44 518.9l0 53.09c0,6.62 -5.15,10.71 -15.43,12.35 -10.29,-1.65 -15.43,-5.73 -15.43,-12.35l0 -53.09 30.87 0z"/>
  <path id="_5_42" class="fil8" d="M5936.5 681.08c0,-3.71 -1.18,-5.56 -3.58,-5.56 -1.56,0 -2.32,1.39 -2.32,4.09 0,3.88 1.47,6.91 4.43,9.15l-4.43 6.16c-8.81,-4.09 -13.24,-10.33 -13.24,-18.64 0,-14.33 8.35,-21.5 25.09,-21.5 16.66,0 24.96,8.77 24.96,26.31l0 84.88 -27.2 0 -27.79 -23.49 -27.79 23.49 -27.2 0 0 -119.08c-2.95,-1.65 -5.36,-3.92 -7.17,-6.87 -1.81,-2.91 -2.7,-6.03 -2.7,-9.32 4.43,-7.5 9.7,-13.58 15.81,-18.3 6.11,-4.68 11.72,-7.04 16.91,-7.04 11.89,0 23.57,4.17 35.08,12.48 9.49,-8.31 17.16,-12.48 22.98,-12.48 5.36,0 11.34,2.87 18.01,8.6 6.62,5.74 11.13,8.6 13.49,8.6 3.54,0 6.03,-0.72 7.42,-2.11 0,5.91 -1.22,11.13 -3.63,15.6 -2.44,4.51 -5.69,6.75 -9.7,6.75 -10.71,0 -22.22,-5.31 -34.49,-15.94 -5.02,0 -10.46,4.68 -16.28,14.08 -22.64,-10.29 -35.5,-15.43 -38.54,-15.43 -3.07,0 -5.27,1.94 -6.7,5.82 3.46,6.32 10.29,12.1 20.41,17.29l0 88.09 15.56 -11.76c2.78,-2.03 5.56,-3.08 8.26,-3.08 2.99,0 5.9,1.14 8.77,3.46l15.56 12.1 0 -56.34z"/>
  <path id="_6_43" class="fil8" d="M5912.42 542.98c-5.78,0 -8.65,3.29 -8.65,9.87 0,6.62 2.87,9.91 8.65,9.91 5.78,0 8.64,-3.29 8.64,-9.91 0,-6.58 -2.87,-9.87 -8.64,-9.87zm0 -17.92c20.15,0 30.27,9.28 30.27,27.79 0,18.55 -10.12,27.79 -30.27,27.79 -20.2,0 -30.27,-9.24 -30.27,-27.79 0,-18.51 10.07,-27.79 30.27,-27.79z"/>
  <polygon class="fil8" points="5891.05,1558.48 5753.92,1479.3 5891.05,1400.11 "/>
  <path id="_1_44" class="fil8" d="M6064.1 1414.11c1.14,-1.81 1.73,-4.01 1.73,-6.54 0,-5.78 -2.02,-9.7 -6.11,-11.81 -4.09,-2.11 -11.89,-3.2 -23.4,-3.29 5.1,-11.34 11.42,-17.03 19.02,-17.03 10.04,0 18.43,2.7 25.13,8.1 6.7,5.4 10.07,13.41 10.07,24.03 0,25.05 -5.56,37.53 -16.7,37.53 -9.44,0 -17.46,-2.36 -23.95,-7.17 -5.9,0 -9.82,3.46 -11.72,10.29 24.2,6.49 36.31,14.93 36.31,25.3l0 71.18c0,17.29 -9.66,25.93 -29.01,25.93 -18.55,0 -27.79,-8.98 -27.79,-26.94 0,-7 1.6,-13.16 4.81,-18.51 3.2,-5.35 8.81,-8.05 16.78,-8.05l2.49 6.2c-3.71,4.13 -5.57,10.92 -5.57,20.37 0,3.96 1.02,5.94 3.08,5.94 2.91,0 4.35,-1.65 4.35,-4.93l0 -67.47c-6.62,-8.73 -13.62,-13.92 -21,-15.56l-4.94 -15.05c1.94,-8.43 5.86,-16.61 11.72,-24.58 5.82,-8.01 12.15,-12.02 18.89,-12.02 4.39,0 9.66,1.39 15.81,4.09z"/>
  <path id="_2_45" class="fil8" d="M5990.43 1356.93c0,-18.13 11.55,-27.2 34.62,-27.2 18.93,0 36.01,6.2 51.27,18.55 15.22,12.31 22.85,21.16 22.85,26.52 0,5.35 -4.98,8.05 -14.84,8.05l-64.22 0c-19.77,0 -29.68,-8.64 -29.68,-25.93zm29.68 0c0,4.09 2.03,6.16 6.16,6.16l35.84 0c-9.82,-9.07 -20.11,-13.58 -30.91,-13.58 -7.38,0 -11.09,2.44 -11.09,7.42z"/>
  <path id="_3_46" class="fil8" d="M6149.82 1461.92c0,12.44 2.53,20.53 7.63,24.33 5.15,3.8 13.7,5.69 25.72,5.69 9.87,0 17.07,-3.29 21.63,-9.91 14.38,0 21.59,4.98 21.59,14.84 0,8.22 -4.09,13.16 -12.35,14.84l0 26.77c0,21.42 -14.8,32.13 -44.44,32.13 -29.69,0 -44.49,-10.71 -44.49,-32.13l0 -18.13 30.87 0 0 18.13c0,8.27 4.55,12.36 13.62,12.36 9.02,0 13.58,-4.09 13.58,-12.36l0 -26.77c-19.02,0 -34.49,-4.17 -46.38,-12.48 -11.93,-8.35 -17.88,-20.79 -17.88,-37.32l0 -9.02c0,-28.59 18.34,-42.88 54.98,-42.88 36.64,0 54.99,12.23 54.99,36.68 0,15.9 -8.77,23.87 -26.31,23.87 -12.52,0 -18.8,-5.53 -18.8,-16.57 0,-4.34 1.77,-7.25 5.31,-8.77 1.18,3.88 2.95,5.82 5.31,5.82 2.4,0 3.58,-1.44 3.58,-4.35 0,-11.26 -8.01,-16.91 -24.08,-16.91 -16.07,0 -24.08,7.72 -24.08,23.11l0 9.02z"/>
  <path id="_4_47" class="fil8" d="M6304.23 1608.79c0,19.86 -17.71,29.77 -53.13,29.77 -35.42,0 -53.13,-9.91 -53.13,-29.77l0 -13.07c0,-12.61 7.63,-18.93 22.85,-18.93 13.62,0 20.49,4.81 20.66,14.33 -8.43,1.65 -12.61,4.64 -12.61,8.9l0 8.77c0,9.15 7.38,13.7 22.22,13.7 14.84,0 22.22,-4.55 22.22,-13.7l0 -131.56c-0.8,-8.73 -4.94,-13.92 -12.36,-15.56l-4.93 -15.05c1.98,-8.43 7.76,-16.61 17.29,-24.58 9.57,-8.01 20.45,-12.02 32.64,-12.02 18.76,0 36.35,4.68 52.75,14.04 16.36,9.36 24.58,19.99 24.58,31.92l0 114.65 -30.91 0 0 -114.65c0,-3.12 -5.44,-7.63 -16.36,-13.53 -10.92,-5.86 -20.79,-8.81 -29.68,-8.81 -15.52,0 -25.43,4.85 -29.77,14.59 18.43,6.49 27.66,14.93 27.66,25.3l0 135.27z"/>
  <path id="_5_48" class="fil8" d="M6611.84 1533.56c0,24.71 -17.33,37.07 -51.91,37.07 -34.57,0 -51.86,-12.35 -51.86,-37.07l0 -86.48c0,-11.51 -8.26,-17.29 -24.71,-17.29 -16.49,0 -24.71,5.78 -24.71,17.29l0 95.13c0,4.93 1.86,7.42 5.57,7.42 4.51,0 6.79,-4.05 6.79,-12.1 0,-9.49 -3.08,-16.28 -9.28,-20.41l2.49 -8.65c7.17,0 13.37,2.7 18.64,8.05 5.27,5.35 7.93,12.35 7.93,21 0,22.05 -10.5,33.1 -31.54,33.1 -21,0 -31.5,-9.49 -31.5,-28.42l0 -95.13c0,-24.71 18.55,-37.07 55.62,-37.07 37.07,0 55.58,12.35 55.58,37.07l0 86.48c0,11.55 7,17.29 21,17.29 14,0 21,-5.74 21,-17.29l0 -56.33c0,-8.73 -3.71,-13.92 -11.09,-15.56l-4.97 -15.05c1.98,-8.43 5.48,-16.61 10.5,-24.58 5.02,-8.01 10.12,-12.02 15.22,-12.02 5.1,0 10.63,1.85 16.53,5.57 5.94,3.71 10.16,5.57 12.61,5.57 3.2,0 5.94,-0.55 8.14,-1.6 -1.64,17.03 -7.17,25.55 -16.65,25.55 -6.2,0 -12.52,-2.36 -19.02,-7.17 -2.66,0 -4.89,3.46 -6.79,10.29 17.63,4.85 26.44,12.48 26.44,22.85l0 62.49z"/>
  <path id="_6_49" class="fil8" d="M6568.58 1350.98c10.71,0 16.07,3.63 16.07,10.88 0,6.58 -3.08,9.87 -9.28,9.87 -0.8,-3.46 -2.66,-5.19 -5.52,-5.19 0,5.27 4.93,7.93 14.8,7.93 16.49,0 24.71,-5.74 24.71,-17.2 0,-7.55 -3.29,-12.27 -9.87,-14.08 0,-5.91 4.09,-8.86 12.35,-8.86 6.16,0 11.81,1.9 17,5.74 5.15,3.84 7.72,9.57 7.72,17.2 0,21.76 -17.33,32.64 -51.91,32.64 -24.71,0 -37.07,-7.8 -37.07,-23.36 0,-10.37 7,-15.56 21,-15.56z"/>
  <path id="_7_50" class="fil8" d="M6656.28 1438.44c0,-18.93 9.91,-28.42 29.64,-28.42 18.98,0 28.42,11.05 28.42,33.14 0,8.64 -2.02,15.43 -6.03,20.37 -4.05,4.93 -8.81,7.42 -14.33,7.42l-3.71 -7.42c3.71,-4.13 5.57,-10.92 5.57,-20.37 0,-8.1 -1.43,-12.15 -4.34,-12.15 -2.87,0 -4.3,2.49 -4.3,7.42l0 95.13c0,11.55 8.86,17.29 26.57,17.29 17.71,0 26.57,-5.74 26.57,-17.29l0 -56.33c0,-8.73 -3.71,-13.92 -11.13,-15.56l-4.93 -15.05c1.98,-8.43 5.48,-16.61 10.5,-24.58 5.02,-8.01 10.08,-12.02 15.18,-12.02 5.1,0 10.63,1.85 16.57,5.57 5.91,3.71 10.12,5.57 12.61,5.57 3.2,0 5.9,-0.55 8.14,-1.6 -1.65,17.03 -7.21,25.55 -16.7,25.55 -6.15,0 -12.52,-2.36 -19.02,-7.17 -2.61,0 -4.89,3.46 -6.79,10.29 17.63,4.85 26.44,12.48 26.44,22.85l0 62.49c0,11.55 7.63,17.29 22.85,17.29 15.22,0 22.85,-5.74 22.85,-17.29l0 -56.33c0,-8.73 -3.71,-13.92 -11.13,-15.56l-4.93 -15.05c1.98,-8.43 5.48,-16.61 10.5,-24.58 5.02,-8.01 10.07,-12.02 15.22,-12.02 5.1,0 10.59,1.85 16.53,5.57 5.94,3.71 10.12,5.57 12.61,5.57 3.2,0 5.91,-0.55 8.14,-1.6 -1.64,17.03 -7.21,25.55 -16.65,25.55 -6.2,0 -12.52,-2.36 -19.02,-7.17 -2.66,0 -4.93,3.46 -6.83,10.29 17.63,4.85 26.44,12.48 26.44,22.85l0 62.49c0,24.71 -17.88,37.07 -53.72,37.07 -16.65,0 -29.39,-2.66 -38.29,-8.01 -8.9,5.35 -22.9,8.01 -42,8.01 -38.33,0 -57.47,-12.35 -57.47,-37.07l0 -95.13z"/>
  <path id="_8_51" class="fil8" d="M6999.73 1533.56c0,24.71 -17.92,37.07 -53.72,37.07 -35.84,0 -53.76,-12.35 -53.76,-37.07l0 -56.33c0,-8.73 -3.71,-13.92 -11.09,-15.56l-4.94 -15.05c1.94,-8.43 5.44,-16.61 10.5,-24.58 5.02,-8.01 10.08,-12.02 15.18,-12.02 5.1,0 10.63,1.85 16.53,5.57 5.94,3.71 10.16,5.57 12.61,5.57 3.2,0 5.95,-0.55 8.18,-1.6 -1.65,17.03 -7.21,25.55 -16.7,25.55 -6.16,0 -12.52,-2.36 -19.02,-7.17 -2.66,0 -4.89,3.46 -6.79,10.29 17.63,4.85 26.44,12.48 26.44,22.85l0 62.49c0,11.55 7.59,17.29 22.86,17.29 15.22,0 22.85,-5.74 22.85,-17.29l0 -86.48c0,-24.71 17.92,-37.07 53.72,-37.07 35.84,0 53.76,12.35 53.76,37.07l0 123.55 -30.91 0 0 -123.55c0,-11.51 -7.59,-17.29 -22.85,-17.29 -15.22,0 -22.85,5.78 -22.85,17.29l0 86.48z"/>
  <path id="_9_52" class="fil8" d="M6964.65 1404.37c-5.44,-2.41 -8.14,-5.23 -8.14,-8.56 4.43,-7.46 9.7,-13.58 15.81,-18.26 6.07,-4.68 11.72,-7.04 16.91,-7.04 11.89,0 23.57,4.18 35.09,12.48 9.48,-8.31 17.16,-12.48 22.98,-12.48 5.35,0 11.34,2.87 17.96,8.6 6.66,5.69 11.17,8.56 13.53,8.56 3.54,0 6.03,-0.67 7.42,-2.11 0,5.94 -1.22,11.13 -3.63,15.65 -2.45,4.47 -5.69,6.74 -9.7,6.74 -10.71,0 -22.22,-5.31 -34.49,-15.94 -5.02,0 -10.46,4.68 -16.32,14.08 -22.64,-10.29 -35.46,-15.48 -38.54,-15.48 -3.04,0 -5.27,1.94 -6.66,5.82 3.46,3.04 7.04,4.6 10.75,4.6 1.48,0 3.04,-0.17 4.68,-0.51 -3.46,4.93 -7.55,7.42 -12.35,7.42 -4.76,0 -9.87,-1.22 -15.31,-3.58z"/>
  <path id="_10_53" class="fil8" d="M7056.57 1576.79c13.16,0 19.77,7.08 19.77,21.25l0 40.52 -30.9 0 0 -37.78c0,-4.93 -3.29,-7.92 -9.87,-8.9 0,-10.04 7,-15.09 21,-15.09z"/>
  <path id="_11_54" class="fil8" d="M7151.7 1452.9c0,14.08 26.36,32.93 79.06,56.59l0 29.01c0,21.42 -12.06,32.13 -36.22,32.13 -7.55,0 -14.97,-3.63 -22.14,-10.92 -7.21,-7.3 -14.13,-10.96 -20.7,-10.96l0 21.89 -30.9 0 0 -64.22 30.9 0 0 22.6c8.81,0 17.25,3.63 25.3,10.92 8.09,7.3 13.91,10.92 17.54,10.92 3.54,0 5.31,-4.09 5.31,-12.36l0 -21c-52.71,-23.7 -79.06,-45.25 -79.06,-64.6 0,-28.59 18.34,-42.88 54.98,-42.88 36.64,0 54.99,14.29 54.99,42.88 0,15.9 -8.77,23.82 -26.31,23.82 -12.52,0 -18.8,-5.48 -18.8,-16.53 0,-4.39 1.77,-7.3 5.31,-8.77 1.18,3.88 2.95,5.78 5.31,5.78 2.4,0 3.58,-1.43 3.58,-4.3 0,-15.39 -8.01,-23.11 -24.08,-23.11 -16.07,0 -24.08,7.72 -24.08,23.11z"/>
  <path id="_12" class="fil8" d="M7287.56 1371.73c-4.51,0 -6.79,1.06 -6.79,3.08 0,4.55 3.08,6.83 9.28,6.83 9.06,0 13.58,-6.2 13.58,-18.55 0,-9.87 -7.42,-14.8 -22.22,-14.8 0,-9.91 4.93,-14.84 14.8,-14.84 24.71,0 37.07,9.87 37.07,29.64 0,23.87 -14.38,35.84 -43.22,35.84 -22.22,0 -33.35,-7 -33.35,-21 0,-12.35 5.14,-18.55 15.43,-18.55 10.29,0 15.43,4.13 15.43,12.35zm-12.35 105.5c0,-8.73 -3.71,-13.92 -11.09,-15.56l-4.94 -15.05c1.94,-8.43 5.86,-16.61 11.72,-24.58 5.82,-8.01 12.15,-12.02 18.89,-12.02 5.1,0 11.47,1.85 19.02,5.57 7.59,3.71 12.61,5.57 15.09,5.57 3.2,0 5.91,-0.55 8.14,-1.6 -1.64,17.03 -7.21,25.55 -16.7,25.55 -9.44,0 -17.46,-2.36 -23.95,-7.17 -5.9,0 -9.82,3.46 -11.72,10.29 17.63,6.49 26.44,14.93 26.44,25.3l0 71.18c0,3.29 1.44,4.93 4.3,4.93 2.07,0 3.12,-1.98 3.12,-5.94 0,-9.44 -1.86,-16.24 -5.57,-20.37l2.44 -6.2c8.01,0 13.62,2.7 16.82,8.05 3.2,5.35 4.81,11.51 4.81,18.51 0,17.96 -9.28,26.94 -27.79,26.94 -19.35,0 -29.05,-8.65 -29.05,-25.93l0 -67.47z"/>
  <path id="_13" class="fil8" d="M7410.09 1455.85c1.9,-0.09 3.88,-0.13 5.94,-0.13 37.07,0 55.58,12.36 55.58,37.07l0 40.77c0,11.55 7,17.29 21,17.29 14,0 21,-5.74 21,-17.29l0 -56.33c0,-8.73 -3.71,-13.92 -11.09,-15.56l-4.97 -15.05c1.98,-8.43 5.48,-16.61 10.5,-24.58 5.02,-8.01 10.12,-12.02 15.22,-12.02 5.1,0 10.63,1.85 16.53,5.57 5.94,3.71 10.16,5.57 12.61,5.57 3.2,0 5.94,-0.55 8.14,-1.6 -1.64,17.03 -7.17,25.55 -16.65,25.55 -6.2,0 -12.52,-2.36 -19.02,-7.17 -2.66,0 -4.89,3.46 -6.79,10.29 17.63,4.85 26.44,12.48 26.44,22.85l0 62.49c0,24.71 -17.33,37.07 -51.91,37.07 -34.57,0 -51.86,-12.35 -51.86,-37.07l0 -40.77c0,-11.51 -8.26,-17.29 -24.71,-17.29 -16.49,0 -24.71,5.78 -24.71,17.29l0 49.42c0,4.93 1.86,7.42 5.57,7.42 4.51,0 6.79,-4.05 6.79,-12.1 0,-9.49 -3.08,-16.28 -9.28,-20.41l2.49 -8.65c7.17,0 13.37,2.7 18.64,8.05 5.27,5.35 7.93,12.35 7.93,21 0,22.05 -10.5,33.1 -31.54,33.1 -21,0 -31.5,-9.49 -31.5,-28.42l0 -49.42c0,-15.22 7.08,-25.76 21.25,-31.62 -3.2,-1.39 -6.58,-2.44 -10.12,-3.2l-4.93 -15.05c2.78,-6.74 7.55,-13.91 14.21,-21.5 6.67,-7.59 13.37,-11.39 20.11,-11.39 5.1,0 11.47,1.85 19.06,5.57 7.55,3.71 12.99,5.57 16.28,5.57 4.85,0 8.39,-0.55 10.63,-1.6 -1.65,17.03 -8.43,25.55 -20.37,25.55 -7.84,0 -15.81,-2.36 -24,-7.17 -5.9,0 -11.05,2.61 -15.43,7.8 9.49,3.2 17.12,6.58 22.98,10.12z"/>
  <path id="_14" class="fil8" d="M7619.87 1452.9c0,14.08 26.36,32.93 79.06,56.59l0 29.01c0,21.42 -12.06,32.13 -36.22,32.13 -7.55,0 -14.97,-3.63 -22.14,-10.92 -7.21,-7.3 -14.13,-10.96 -20.7,-10.96l0 21.89 -30.9 0 0 -64.22 30.9 0 0 22.6c8.81,0 17.25,3.63 25.3,10.92 8.09,7.3 13.91,10.92 17.54,10.92 3.54,0 5.31,-4.09 5.31,-12.36l0 -21c-52.71,-23.7 -79.06,-45.25 -79.06,-64.6 0,-28.59 18.34,-42.88 54.98,-42.88 36.64,0 54.99,14.29 54.99,42.88 0,15.9 -8.77,23.82 -26.31,23.82 -12.52,0 -18.8,-5.48 -18.8,-16.53 0,-4.39 1.77,-7.3 5.31,-8.77 1.18,3.88 2.95,5.78 5.31,5.78 2.4,0 3.58,-1.43 3.58,-4.3 0,-15.39 -8.01,-23.11 -24.08,-23.11 -16.07,0 -24.08,7.72 -24.08,23.11z"/>
  <path id="_15" class="fil8" d="M7858.79 1455.85c1.9,-0.09 3.88,-0.13 5.94,-0.13 37.07,0 55.58,12.36 55.58,37.07l0 40.77c0,11.55 7,17.29 21,17.29 14,0 21,-5.74 21,-17.29l0 -56.33c0,-8.73 -3.71,-13.92 -11.09,-15.56l-4.97 -15.05c1.98,-8.43 5.48,-16.61 10.5,-24.58 5.02,-8.01 10.12,-12.02 15.22,-12.02 5.1,0 10.63,1.85 16.53,5.57 5.94,3.71 10.16,5.57 12.61,5.57 3.2,0 5.94,-0.55 8.14,-1.6 -1.64,17.03 -7.17,25.55 -16.65,25.55 -6.2,0 -12.52,-2.36 -19.02,-7.17 -2.66,0 -4.89,3.46 -6.79,10.29 17.63,4.85 26.44,12.48 26.44,22.85l0 62.49c0,24.71 -17.33,37.07 -51.91,37.07 -34.57,0 -51.86,-12.35 -51.86,-37.07l0 -40.77c0,-11.51 -8.26,-17.29 -24.71,-17.29 -16.49,0 -24.71,5.78 -24.71,17.29l0 49.42c0,4.93 1.86,7.42 5.57,7.42 4.51,0 6.79,-4.05 6.79,-12.1 0,-9.49 -3.08,-16.28 -9.28,-20.41l2.49 -8.65c7.17,0 13.37,2.7 18.64,8.05 5.27,5.35 7.93,12.35 7.93,21 0,22.05 -10.5,33.1 -31.54,33.1 -21,0 -31.5,-9.49 -31.5,-28.42l0 -49.42c0,-15.22 7.08,-25.76 21.25,-31.62 -3.2,-1.39 -6.58,-2.44 -10.12,-3.2l-4.93 -15.05c2.78,-6.74 7.55,-13.91 14.21,-21.5 6.67,-7.59 13.37,-11.39 20.11,-11.39 5.1,0 11.47,1.85 19.06,5.57 7.55,3.71 12.99,5.57 16.28,5.57 4.85,0 8.39,-0.55 10.63,-1.6 -1.65,17.03 -8.43,25.55 -20.37,25.55 -7.84,0 -15.81,-2.36 -24,-7.17 -5.9,0 -11.05,2.61 -15.43,7.8 9.49,3.2 17.12,6.58 22.98,10.12z"/>
  <path id="_16" class="fil8" d="M7938.23 1347.65c-5.78,0 -8.65,3.29 -8.65,9.87 0,6.62 2.87,9.91 8.65,9.91 5.78,0 8.64,-3.29 8.64,-9.91 0,-6.58 -2.87,-9.87 -8.64,-9.87zm0 -17.92c20.15,0 30.27,9.28 30.27,27.79 0,18.55 -10.12,27.79 -30.27,27.79 -20.2,0 -30.27,-9.24 -30.27,-27.79 0,-18.51 10.07,-27.79 30.27,-27.79z"/>
  <path id="_17" class="fil8" d="M8037.66 1477.23c0,-8.73 -3.71,-13.92 -11.09,-15.56l-4.94 -15.05c1.94,-8.43 5.86,-16.61 11.72,-24.58 5.82,-8.01 12.15,-12.02 18.89,-12.02 5.1,0 11.47,1.85 19.02,5.57 7.59,3.71 12.61,5.57 15.09,5.57 3.2,0 5.91,-0.55 8.14,-1.6 -1.64,17.03 -7.21,25.55 -16.7,25.55 -9.44,0 -17.46,-2.36 -23.95,-7.17 -5.9,0 -9.82,3.46 -11.72,10.29 17.63,6.49 26.44,14.93 26.44,25.3l0 71.18c0,3.29 1.44,4.93 4.3,4.93 2.07,0 3.12,-1.98 3.12,-5.94 0,-9.44 -1.86,-16.24 -5.57,-20.37l2.44 -6.2c8.01,0 13.62,2.7 16.82,8.05 3.2,5.35 4.81,11.51 4.81,18.51 0,17.96 -9.28,26.94 -27.79,26.94 -19.35,0 -29.05,-8.65 -29.05,-25.93l0 -67.47z"/>
  <path id="_18" class="fil8" d="M8232.72 1443.88c0.08,1.09 0.13,2.15 0.13,3.2l0 123.55 -30.91 0 0 -123.55c0,-8.05 -2.11,-12.1 -6.41,-12.1 -4.3,0 -8.43,3.88 -12.48,11.64 -1.31,2.61 -3.04,3.92 -5.19,3.92 -2.15,0 -3.88,-1.31 -5.18,-3.92 -3.96,-7.76 -8.05,-11.64 -12.35,-11.64 -4.35,0 -6.54,4.05 -6.54,12.1l0 95.13c0,4.93 1.86,7.42 5.57,7.42 4.51,0 6.79,-4.05 6.79,-12.1 0,-9.49 -3.08,-16.28 -9.28,-20.41l2.49 -8.65c7.17,0 13.37,2.7 18.64,8.05 5.27,5.35 7.93,12.35 7.93,21 0,22.05 -10.5,33.1 -31.54,33.1 -21,0 -31.5,-9.49 -31.5,-28.42l0 -95.13c0,-10.04 2.78,-18.72 8.35,-26.06 5.57,-7.34 12.82,-11.01 21.8,-11.01 8.9,0 17.16,5.1 24.83,15.35 7.76,-10.25 16.11,-15.35 25.09,-15.35 8.9,0 16.11,3.67 21.63,11.01 1.64,2.15 3.04,4.47 4.17,6.91 0.67,-5.02 2.83,-8.68 6.54,-11 7.59,-4.6 15.14,-6.92 22.6,-6.92 8.98,0 20.24,4.68 33.74,14.04 13.53,9.36 20.28,19.99 20.28,31.92l0 114.65 -30.9 0 0 -114.65c0,-3.12 -3.59,-7.63 -10.79,-13.53 -7.21,-5.86 -12.95,-8.81 -17.25,-8.81 -5.99,0 -12.74,3.42 -20.24,10.25z"/>
  <path id="_19" class="fil8" d="M8356.35 1570.63l0 -63.88c0,-3.71 -1.18,-5.56 -3.59,-5.56 -2.36,0 -4.13,2.36 -5.31,7.08 -3.54,-1.52 -5.31,-4.85 -5.31,-10.04 0,-12.69 6.92,-19.02 20.66,-19.02 16.28,0 24.46,7.13 24.46,21.38l0 40.77 15.56 -11.76c2.78,-2.03 5.56,-3.08 8.26,-3.08 2.99,0 5.9,1.14 8.77,3.46l15.56 12.1 0 -67.8c0,-6.83 -2.53,-11.55 -7.63,-14.08 -9.23,7.25 -19.44,10.88 -30.65,10.88 -27.16,0 -40.77,-11.55 -40.77,-34.62 0,-7.8 2.06,-14.29 6.2,-19.44 4.09,-5.15 6.16,-10.63 6.16,-16.36 0,-7 -6.16,-10.5 -18.51,-10.5 0,-8.18 6.58,-12.23 19.77,-12.23 19.74,0 29.64,7.55 29.64,22.73 0,6.16 -2.07,12.02 -6.2,17.59 -4.09,5.56 -6.16,11.64 -6.16,18.22 0,9.32 3.29,13.96 9.87,13.96 6.91,0 13.32,-1.98 19.14,-6.03 -6.15,-4.64 -9.23,-9.65 -9.23,-15.09 0,-12.82 7.8,-19.27 23.44,-19.27 16.49,0 24.71,6.45 24.71,19.27 0,7.17 -2.78,13.32 -8.39,18.42 1.73,0.68 3.5,1.39 5.31,2.24 9.49,4.76 14.21,12.86 14.21,24.33l0 96.35 -27.2 0 -27.79 -23.49 -27.79 23.49 -27.2 0zm76.23 -141.34c0,-3.46 -1.22,-5.19 -3.71,-5.19 -3.04,0 -4.55,1.73 -4.55,5.19 0,2.4 1.94,4.81 5.78,7.17 1.65,-2.19 2.49,-4.6 2.49,-7.17z"/>
  <path id="_20" class="fil8" d="M8589.82 1458.21l30.91 0 0 112.42 -27.2 0 -27.79 -23.49 -27.79 23.49 -27.2 0 0 -112.29c-6.58,-4.59 -9.87,-12.27 -9.87,-22.98 2.78,-6.66 7.25,-12.57 13.33,-17.67 6.11,-5.1 13.41,-7.67 21.89,-7.67 9.4,0 17.79,2.7 25.22,8.1 7.38,5.39 13.62,8.09 18.64,8.09 6.58,0 9.87,-3.75 9.87,-11.22 0,-13.53 -6.58,-20.28 -19.74,-20.28 0,-7.8 6.58,-11.72 19.74,-11.72 20.62,0 30.91,10.66 30.91,32 0,20.66 -13.58,30.99 -40.77,30.99 -8.98,0 -17.29,-2.02 -24.88,-6.07 -7.63,-4.01 -13.96,-6.03 -18.97,-6.03 -6.83,0.8 -11.77,2.74 -14.85,5.82 2.66,3.84 9.45,7.85 20.41,11.98l0 89.69 15.56 -11.76c2.78,-2.03 5.56,-3.08 8.26,-3.08 2.99,0 5.9,1.14 8.77,3.46l15.56 12.1 0 -83.87z"/>
  <path id="_21" class="fil8" d="M8577.46 1350.98c10.71,0 16.07,3.63 16.07,10.88 0,6.58 -3.08,9.87 -9.28,9.87 -0.8,-3.46 -2.66,-5.19 -5.52,-5.19 0,5.27 4.93,7.93 14.8,7.93 16.49,0 24.71,-5.74 24.71,-17.2 0,-7.55 -3.29,-12.27 -9.87,-14.08 0,-5.91 4.09,-8.86 12.35,-8.86 6.16,0 11.81,1.9 17,5.74 5.15,3.84 7.72,9.57 7.72,17.2 0,21.76 -17.33,32.64 -51.91,32.64 -24.71,0 -37.07,-7.8 -37.07,-23.36 0,-10.37 7,-15.56 21,-15.56z"/>
  <path id="_22" class="fil8" d="M8665.17 1438.44c0,-18.93 9.91,-28.42 29.64,-28.42 18.98,0 28.42,11.05 28.42,33.14 0,8.64 -2.02,15.43 -6.03,20.37 -4.05,4.93 -8.81,7.42 -14.33,7.42l-3.71 -7.42c3.71,-4.13 5.57,-10.92 5.57,-20.37 0,-8.1 -1.43,-12.15 -4.34,-12.15 -2.87,0 -4.3,2.49 -4.3,7.42l0 95.13c0,11.55 8.86,17.29 26.57,17.29 17.71,0 26.57,-5.74 26.57,-17.29l0 -56.33c0,-8.73 -3.71,-13.92 -11.13,-15.56l-4.93 -15.05c1.98,-8.43 5.48,-16.61 10.5,-24.58 5.02,-8.01 10.08,-12.02 15.18,-12.02 5.1,0 10.63,1.85 16.57,5.57 5.91,3.71 10.12,5.57 12.61,5.57 3.2,0 5.9,-0.55 8.14,-1.6 -1.65,17.03 -7.21,25.55 -16.7,25.55 -6.15,0 -12.52,-2.36 -19.02,-7.17 -2.61,0 -4.89,3.46 -6.79,10.29 17.63,4.85 26.44,12.48 26.44,22.85l0 62.49c0,11.55 7.63,17.29 22.85,17.29 15.22,0 22.85,-5.74 22.85,-17.29l0 -56.33c0,-8.73 -3.71,-13.92 -11.13,-15.56l-4.93 -15.05c1.98,-8.43 5.48,-16.61 10.5,-24.58 5.02,-8.01 10.07,-12.02 15.22,-12.02 5.1,0 10.59,1.85 16.53,5.57 5.94,3.71 10.12,5.57 12.61,5.57 3.2,0 5.91,-0.55 8.14,-1.6 -1.64,17.03 -7.21,25.55 -16.65,25.55 -6.2,0 -12.52,-2.36 -19.02,-7.17 -2.66,0 -4.93,3.46 -6.83,10.29 17.63,4.85 26.44,12.48 26.44,22.85l0 62.49c0,24.71 -17.88,37.07 -53.72,37.07 -16.65,0 -29.39,-2.66 -38.29,-8.01 -8.9,5.35 -22.9,8.01 -42,8.01 -38.33,0 -57.47,-12.35 -57.47,-37.07l0 -95.13z"/>
  <path class="fil13" d="M9529.03 3054.53c361.79,8.57 653.64,299.62 663.5,661.08l21.42 7.09c4.64,1.54 7.64,5.69 7.64,10.57 0,4.89 -3,9.04 -7.64,10.58l-21.35 7.07c-8.57,361.79 -299.62,653.64 -661.08,663.5l-7.09 21.42c-1.54,4.64 -5.69,7.64 -10.58,7.64 -4.89,0 -9.04,-3 -10.57,-7.64l-7.07 -21.35c-361.78,-8.57 -653.64,-299.62 -663.5,-661.08l-21.41 -7.09c-4.64,-1.54 -7.64,-5.69 -7.64,-10.57 0,-4.89 3,-9.04 7.64,-10.58l21.35 -7.07c8.57,-361.79 299.61,-653.64 661.08,-663.5l7.09 -21.42c1.54,-4.64 5.69,-7.64 10.57,-7.64 4.89,0 9.04,3 10.58,7.64l7.07 21.35zm127.58 981.95l-98.81 298.54c297.4,-22.06 534.65,-260.11 555.49,-557.85l-297.84 98.58 101.95 247.58c1.75,4.25 0.82,8.87 -2.43,12.12 -3.25,3.25 -7.87,4.17 -12.12,2.42l-246.24 -101.39zm-165.99 361.14l-14.99 -45.3c-68.59,-4.05 -134.17,-19.28 -194.96,-43.88l-16.7 41.33c70.36,28.47 146.72,45.24 226.65,47.85zm-20.66 -62.44l-98.69 -298.15 -247.72 102c-4.25,1.75 -8.87,0.82 -12.12,-2.43 -3.25,-3.25 -4.17,-7.87 -2.43,-12.12l101.33 -246.09 -298.23 -98.71c22.06,297.4 260.11,534.65 557.85,555.49zm-620.45 -622.66l45.3 -15c4.05,-68.59 19.29,-134.17 43.88,-194.96l-41.33 -16.7c-28.47,70.37 -45.24,146.72 -47.85,226.66zm62.44 -20.67l298.03 -98.64 -102.12 -248.02c-1.75,-4.25 -0.82,-8.87 2.43,-12.12 3.25,-3.25 7.87,-4.17 12.12,-2.43l246.37 101.45 98.67 -298.1c-297.4,22.06 -534.65,260.11 -555.49,557.85zm622.66 -620.45l15 45.3c68.59,4.05 134.16,19.29 194.96,43.88l16.7 -41.33c-70.37,-28.47 -146.72,-45.24 -226.66,-47.85zm20.67 62.44l98.54 297.72 247.87 -102.07c4.25,-1.75 8.87,-0.82 12.12,2.43 3.25,3.25 4.17,7.87 2.43,12.12l-101.51 246.53 298.4 98.77c-22.06,-297.4 -260.11,-534.65 -557.85,-555.49zm620.45 622.66l-45.3 15c-4.05,68.59 -19.29,134.17 -43.88,194.96l41.33 16.7c28.47,-70.37 45.25,-146.72 47.86,-226.66zm-1045.06 -403.03l362.1 362.1 -264.61 -125.34 -97.49 -236.76zm380.72 -221.14l0 579.46 -127.74 -267.52 127.74 -385.92 0 73.98zm382.03 219.98l-362.1 362.1 125.34 -264.61 236.76 -97.49zm221.37 380.97l-579.46 0 267.52 -127.74 385.92 127.74 -73.99 0zm-220.21 381.78l-362.1 -362.1 264.61 125.34 97.49 236.76zm-380.73 221.63l0 -579.46 127.74 267.52 -127.74 385.92 0 -73.98zm-382.02 -220.47l362.1 -362.1 -125.34 264.61 -236.76 97.49zm-221.39 -380.48l579.46 0 -267.52 127.74 -385.92 -127.74 73.98 0zm1067.27 -474.34c61.64,60.59 111.5,133.13 145.81,213.87l-41.03 17.42c-32.01,-75.32 -78.52,-142.98 -136.02,-199.51l31.24 -31.78zm8.02 938.2c-60.59,61.64 -133.13,111.51 -213.87,145.81l-17.41 -41.03c75.32,-32 142.98,-78.52 199.51,-136.02l31.78 31.24zm-938.2 8.02c-61.63,-60.6 -111.51,-133.13 -145.81,-213.87l41.03 -17.42c32,75.32 78.53,142.98 136.02,199.51l-31.24 31.78zm-8.02 -938.2c60.59,-61.64 133.13,-111.5 213.87,-145.81l17.41 41.03c-75.32,32.01 -142.98,78.52 -199.5,136.02l-31.78 -31.24z"/>
  <path class="fil8" d="M9365.16 2867.19c0,-7.08 -3.01,-11.29 -9,-12.63l-4 -12.21c1.57,-6.84 4.76,-13.48 9.51,-19.95 4.72,-6.5 9.85,-9.75 15.33,-9.75 4.14,0 9.31,1.51 15.43,4.52 6.16,3.01 10.23,4.52 12.25,4.52 2.6,0 4.79,-0.44 6.6,-1.3 -1.33,13.82 -5.85,20.74 -13.55,20.74 -7.66,0 -14.16,-1.92 -19.43,-5.82 -4.79,0 -7.97,2.81 -9.51,8.35 14.3,5.27 21.45,12.11 21.45,20.53l0 57.75c0,2.67 1.17,4 3.49,4 1.68,0 2.53,-1.61 2.53,-4.82 0,-7.67 -1.51,-13.17 -4.52,-16.53l1.98 -5.03c6.5,0 11.05,2.19 13.65,6.53 2.6,4.35 3.9,9.34 3.9,15.02 0,14.57 -7.53,21.86 -22.55,21.86 -15.7,0 -23.57,-7.02 -23.57,-21.04l0 -54.74z"/>
  <path id="_1_55" class="fil8" d="M9498.46 2851.76l25.08 0 0 91.21 -22.07 0 -22.55 -19.06 -22.55 19.06 -22.07 0 0 -91.11c-5.34,-3.73 -8.01,-9.96 -8.01,-18.65 2.26,-5.41 5.89,-10.19 10.81,-14.33 4.96,-4.14 10.88,-6.23 17.76,-6.23 7.63,0 14.44,2.19 20.46,6.57 5.99,4.38 11.05,6.57 15.12,6.57 5.34,0 8.01,-3.04 8.01,-9.1 0,-10.98 -5.34,-16.46 -16.01,-16.46 0,-6.33 5.33,-9.51 16.01,-9.51 16.73,0 25.08,8.65 25.08,25.97 0,16.76 -11.02,25.14 -33.09,25.14 -7.29,0 -14.03,-1.64 -20.18,-4.93 -6.19,-3.25 -11.33,-4.89 -15.4,-4.89 -5.54,0.65 -9.55,2.22 -12.04,4.72 2.15,3.11 7.67,6.37 16.56,9.72l0 72.77 12.63 -9.55c2.26,-1.64 4.52,-2.5 6.7,-2.5 2.43,0 4.79,0.92 7.12,2.8l12.63 9.82 0 -68.05z"/>
  <path id="_2_56" class="fil8" d="M9464.38 2774.57l29.08 0c-7.97,-7.36 -16.32,-11.02 -25.08,-11.02 -5.99,0 -9,1.98 -9,6.02 0,3.32 1.68,5 5,5zm39.42 -12.94c0.44,-2.12 0.68,-4.07 0.68,-5.81 0,-4.65 -2.02,-7.73 -6.02,-9.2 1.74,-2.74 5.37,-4.11 10.85,-4.11 9.48,0 14.23,4.48 14.23,13.52 0,6.37 -1.13,13.38 -3.32,21.04 2.19,2.87 3.32,5.24 3.32,7.02 0,4.34 -4.04,6.53 -12.04,6.53l-52.11 0c-16.05,0 -24.05,-7.01 -24.05,-21.04 0,-14.71 9.34,-22.07 28.06,-22.07 14.88,0 28.36,4.72 40.41,14.13z"/>
  <path id="_3_57" class="fil8" d="M9559.6 2942.97l0 -51.83c0,-3.01 -0.96,-4.52 -2.91,-4.52 -1.91,0 -3.35,1.92 -4.31,5.75 -2.87,-1.23 -4.31,-3.94 -4.31,-8.15 0,-10.3 5.61,-15.43 16.77,-15.43 13.2,0 19.84,5.78 19.84,17.35l0 33.09 12.63 -9.55c2.26,-1.64 4.52,-2.5 6.7,-2.5 2.43,0 4.79,0.92 7.12,2.8l12.63 9.82 0 -55.01c0,-5.54 -2.05,-9.37 -6.19,-11.43 -7.49,5.89 -15.77,8.83 -24.87,8.83 -22.03,0 -33.09,-9.37 -33.09,-28.09 0,-6.33 1.68,-11.6 5.03,-15.77 3.32,-4.17 4.99,-8.62 4.99,-13.28 0,-5.68 -4.99,-8.52 -15.02,-8.52 0,-6.64 5.34,-9.92 16.05,-9.92 16.01,0 24.05,6.12 24.05,18.44 0,5 -1.68,9.75 -5.03,14.27 -3.32,4.52 -5,9.44 -5,14.78 0,7.56 2.67,11.33 8.01,11.33 5.61,0 10.81,-1.61 15.53,-4.89 -4.99,-3.76 -7.49,-7.83 -7.49,-12.25 0,-10.4 6.33,-15.64 19.02,-15.64 13.38,0 20.05,5.24 20.05,15.64 0,5.81 -2.26,10.81 -6.81,14.95 1.41,0.55 2.84,1.13 4.31,1.81 7.7,3.87 11.53,10.44 11.53,19.74l0 78.18 -22.07 0 -22.55 -19.06 -22.55 19.06 -22.07 0zm61.86 -114.69c0,-2.81 -0.99,-4.21 -3.01,-4.21 -2.46,0 -3.7,1.4 -3.7,4.21 0,1.95 1.57,3.9 4.69,5.81 1.33,-1.78 2.02,-3.73 2.02,-5.81z"/>
  <path class="fil8" d="M9361.16 4630.25c3.59,-6.09 7.87,-11.02 12.83,-14.85 4.96,-3.8 9.51,-5.72 13.72,-5.72 9.65,0 19.13,3.39 28.47,10.13 7.7,-6.74 13.92,-10.13 18.65,-10.13 4.35,0 9.2,2.33 14.61,6.98 5.37,4.65 9.04,6.98 10.95,6.98 2.87,0 4.89,-0.58 6.02,-1.71 0,4.79 -0.99,9.03 -2.94,12.66 -1.98,3.66 -4.62,5.48 -7.87,5.48 -8.69,0 -18.03,-4.31 -27.99,-12.94 -4.07,0 -8.49,3.8 -13.21,11.43 -18.37,-8.35 -28.81,-12.52 -31.27,-12.52 -2.5,0 -4.28,1.57 -5.44,4.72 2.81,5.13 5.71,7.7 8.72,7.7 1.2,0 2.5,-0.14 3.83,-0.37 -2.8,6.26 -6.16,9.41 -10.02,9.41 -3.9,0 -8.04,-1.71 -12.45,-5.13 -4.41,-3.39 -6.61,-7.42 -6.61,-12.11zm8.01 44.62c0,-20.05 14.88,-30.07 44.62,-30.07 29.73,0 44.61,10.02 44.61,30.07l0 65.14 -25.08 0 0 -65.14c0,-9.37 -6.5,-14.06 -19.53,-14.06 -13.04,0 -19.54,4.69 -19.54,14.06l0 42.08c0,4 1.51,6.02 4.52,6.02 3.66,0 5.51,-3.28 5.51,-9.82 0,-7.7 -2.5,-13.21 -7.53,-16.56l2.02 -7.02c5.82,0 10.85,2.19 15.13,6.54 4.28,4.35 6.43,10.02 6.43,17.04 0,17.89 -8.52,26.86 -25.59,26.86 -17.04,0 -25.56,-7.7 -25.56,-23.06l0 -42.08z"/>
  <path id="_1_58" class="fil8" d="M9433.32 4760.37c0,-10.23 6.19,-15.36 18.54,-15.36 11.05,0 16.63,3.9 16.77,11.63 -6.85,1.33 -10.23,3.76 -10.23,7.22l0 8.25c7.15,-6.23 13.17,-9.34 18.13,-9.34 4.89,0 10.85,3.11 17.93,9.34l0 -107.88c0,-7.08 -3.01,-11.29 -9,-12.63l-4 -12.21c1.57,-6.84 4.41,-13.48 8.52,-19.95 4.07,-6.5 8.18,-9.75 12.31,-9.75 4.14,0 8.62,1.51 13.41,4.52 4.82,3.01 8.24,4.52 10.23,4.52 2.6,0 4.83,-0.44 6.64,-1.3 -1.33,13.82 -5.85,20.74 -13.55,20.74 -5,0 -10.16,-1.92 -15.43,-5.82 -2.15,0 -3.97,2.81 -5.51,8.35 14.3,3.93 21.45,10.13 21.45,18.54l0 135.9 -22.07 0c-9.68,-11.22 -16.7,-16.83 -21.04,-16.83 -4.35,0 -11.36,5.61 -21.04,16.83l-22.07 0 0 -34.76z"/>
  <path id="_2_59" class="fil8" d="M9390.21 4795.13c-13.55,0 -21.62,-2.36 -24.19,-7.12 -2.57,-4.72 -3.87,-8.38 -3.87,-10.91 0,-1.06 0.2,-2.19 0.61,-3.32l5 -12.32c0.28,-0.82 0.41,-1.57 0.41,-2.29 0,-3.15 -2.81,-5.13 -8.42,-5.92 0,-5.47 5.33,-8.24 16.05,-8.24 10.19,0 15.33,3.42 15.33,10.23 0,2.87 -0.72,6.33 -2.12,10.33l-4.11 10.54c-0.48,0.99 -0.69,1.85 -0.69,2.6 0,2.12 1.98,3.22 5.99,3.22 4.89,0 10.09,-6.16 15.6,-18.48 5.51,-12.28 10.06,-18.44 13.69,-18.44 4.99,0 7.52,1.88 7.52,5.65 0,4.79 -2.8,13.41 -8.35,25.83 -5.54,12.46 -15.02,18.65 -28.47,18.65z"/>
  <path id="_3_60" class="fil8" d="M9555.6 4740.01l0 -51.83c0,-3.01 -0.96,-4.52 -2.91,-4.52 -1.91,0 -3.35,1.92 -4.31,5.75 -2.87,-1.23 -4.31,-3.94 -4.31,-8.15 0,-10.3 5.61,-15.43 16.77,-15.43 13.2,0 19.84,5.78 19.84,17.35l0 33.09 12.63 -9.55c2.26,-1.64 4.52,-2.5 6.7,-2.5 2.43,0 4.79,0.92 7.12,2.8l12.63 9.82 0 -55.01c0,-5.54 -2.05,-9.37 -6.19,-11.43 -7.49,5.89 -15.77,8.83 -24.87,8.83 -22.03,0 -33.09,-9.37 -33.09,-28.09 0,-6.33 1.68,-11.6 5.03,-15.77 3.32,-4.17 4.99,-8.62 4.99,-13.28 0,-5.68 -4.99,-8.52 -15.02,-8.52 0,-6.64 5.34,-9.92 16.05,-9.92 16.01,0 24.05,6.12 24.05,18.44 0,5 -1.68,9.75 -5.03,14.27 -3.32,4.52 -5,9.44 -5,14.78 0,7.56 2.67,11.33 8.01,11.33 5.61,0 10.81,-1.61 15.53,-4.89 -4.99,-3.76 -7.49,-7.83 -7.49,-12.25 0,-10.4 6.33,-15.64 19.02,-15.64 13.38,0 20.05,5.24 20.05,15.64 0,5.81 -2.26,10.81 -6.81,14.95 1.41,0.55 2.84,1.13 4.31,1.81 7.7,3.87 11.53,10.44 11.53,19.74l0 78.18 -22.07 0 -22.55 -19.06 -22.55 19.06 -22.07 0zm61.86 -114.69c0,-2.81 -0.99,-4.21 -3.01,-4.21 -2.46,0 -3.7,1.4 -3.7,4.21 0,1.95 1.57,3.9 4.69,5.81 1.33,-1.78 2.02,-3.73 2.02,-5.81z"/>
  <path class="fil8" d="M10287.77 3734.06c0,-7.08 -3.01,-11.29 -9,-12.63l-4 -12.21c1.57,-6.84 4.76,-13.48 9.51,-19.95 4.72,-6.5 9.85,-9.75 15.33,-9.75 4.14,0 9.31,1.51 15.43,4.52 6.16,3.01 10.23,4.52 12.25,4.52 2.6,0 4.79,-0.44 6.6,-1.3 -1.33,13.82 -5.85,20.74 -13.55,20.74 -7.66,0 -14.16,-1.92 -19.43,-5.82 -4.79,0 -7.97,2.81 -9.51,8.35 14.3,5.27 21.45,12.11 21.45,20.53l0 57.75c0,2.67 1.17,4 3.49,4 1.68,0 2.53,-1.61 2.53,-4.82 0,-7.67 -1.51,-13.17 -4.52,-16.53l1.98 -5.03c6.5,0 11.05,2.19 13.65,6.53 2.6,4.35 3.9,9.34 3.9,15.02 0,14.57 -7.53,21.86 -22.55,21.86 -15.7,0 -23.57,-7.02 -23.57,-21.04l0 -54.74z"/>
  <path id="_1_61" class="fil8" d="M10381.99 3809.84l-25.08 0 0 -65.14c0,-20.05 14.88,-30.07 44.62,-30.07 29.73,0 44.61,10.02 44.61,30.07l0 65.14 -25.08 0 0 -65.14c0,-9.37 -6.5,-14.06 -19.53,-14.06 -13.04,0 -19.54,4.69 -19.54,14.06l0 65.14zm-26.48 -97.61c-4.41,-3.43 -6.61,-7.46 -6.61,-12.15 3.59,-6.09 7.87,-11.02 12.83,-14.85 4.96,-3.8 9.51,-5.72 13.72,-5.72 9.65,0 19.13,3.39 28.47,10.13 7.7,-6.74 13.92,-10.13 18.65,-10.13 4.35,0 9.2,2.33 14.61,6.98 5.37,4.65 9.04,6.98 10.95,6.98 2.87,0 4.89,-0.58 6.02,-1.71 0,4.79 -0.99,9.03 -2.94,12.66 -1.98,3.66 -4.62,5.48 -7.87,5.48 -8.69,0 -18.03,-4.31 -27.99,-12.94 -4.07,0 -8.49,3.8 -13.21,11.43 -18.37,-8.35 -28.81,-12.52 -31.27,-12.52 -2.5,0 -4.28,1.57 -5.44,4.72 2.81,5.13 5.71,7.7 8.72,7.7 1.2,0 2.5,-0.14 3.83,-0.37 -2.8,6.26 -6.16,9.41 -10.02,9.41 -3.9,0 -8.04,-1.71 -12.45,-5.09z"/>
  <path id="_2_62" class="fil8" d="M10386.99 3641.44l29.08 0c-7.97,-7.36 -16.32,-11.02 -25.08,-11.02 -5.99,0 -9,1.98 -9,6.02 0,3.32 1.68,5 5,5zm39.42 -12.94c0.44,-2.12 0.68,-4.07 0.68,-5.81 0,-4.65 -2.02,-7.73 -6.02,-9.2 1.74,-2.74 5.37,-4.11 10.85,-4.11 9.48,0 14.23,4.48 14.23,13.52 0,6.37 -1.13,13.38 -3.32,21.04 2.19,2.87 3.32,5.24 3.32,7.02 0,4.34 -4.04,6.53 -12.04,6.53l-52.11 0c-16.05,0 -24.05,-7.01 -24.05,-21.04 0,-14.71 9.34,-22.07 28.06,-22.07 14.88,0 28.36,4.72 40.41,14.13z"/>
  <path id="_3_63" class="fil8" d="M10474.2 3700.08c3.59,-6.09 7.87,-11.02 12.83,-14.85 4.96,-3.8 9.51,-5.72 13.72,-5.72 9.65,0 19.13,3.39 28.47,10.13 7.7,-6.74 13.92,-10.13 18.65,-10.13 4.35,0 9.2,2.33 14.61,6.98 5.37,4.65 9.04,6.98 10.95,6.98 2.87,0 4.89,-0.58 6.02,-1.71 0,4.79 -0.99,9.03 -2.94,12.66 -1.98,3.66 -4.62,5.48 -7.87,5.48 -8.69,0 -18.03,-4.31 -27.99,-12.94 -4.07,0 -8.49,3.8 -13.21,11.43 -18.37,-8.35 -28.81,-12.52 -31.27,-12.52 -2.5,0 -4.28,1.57 -5.44,4.72 2.81,5.13 5.71,7.7 8.72,7.7 1.2,0 2.5,-0.14 3.83,-0.37 -2.8,6.26 -6.16,9.41 -10.02,9.41 -3.9,0 -8.04,-1.71 -12.45,-5.13 -4.41,-3.39 -6.61,-7.42 -6.61,-12.11zm8.01 44.62c0,-20.05 14.88,-30.07 44.62,-30.07 29.73,0 44.61,10.02 44.61,30.07l0 65.14 -25.08 0 0 -65.14c0,-9.37 -6.5,-14.06 -19.53,-14.06 -13.04,0 -19.54,4.69 -19.54,14.06l0 42.08c0,4 1.51,6.02 4.52,6.02 3.66,0 5.51,-3.28 5.51,-9.82 0,-7.7 -2.5,-13.21 -7.53,-16.56l2.02 -7.02c5.82,0 10.85,2.19 15.13,6.54 4.28,4.35 6.43,10.02 6.43,17.04 0,17.89 -8.52,26.86 -25.59,26.86 -17.04,0 -25.56,-7.7 -25.56,-23.06l0 -42.08z"/>
  <path class="fil8" d="M8585.8 3757.39c0,20.05 -14.06,30.07 -42.12,30.07 -28.05,0 -42.08,-10.02 -42.08,-30.07l0 -70.17c0,-9.34 -6.71,-14.03 -20.05,-14.03 -13.38,0 -20.05,4.69 -20.05,14.03l0 77.19c0,4 1.51,6.02 4.52,6.02 3.66,0 5.51,-3.28 5.51,-9.82 0,-7.7 -2.5,-13.21 -7.53,-16.56l2.02 -7.02c5.82,0 10.85,2.19 15.13,6.54 4.28,4.35 6.43,10.02 6.43,17.04 0,17.89 -8.52,26.86 -25.59,26.86 -17.04,0 -25.56,-7.7 -25.56,-23.06l0 -77.19c0,-20.05 15.05,-30.07 45.13,-30.07 30.07,0 45.09,10.03 45.09,30.07l0 70.17c0,9.37 5.68,14.03 17.04,14.03 11.36,0 17.04,-4.65 17.04,-14.03l0 -45.71c0,-7.08 -3.01,-11.29 -9,-12.63l-4.04 -12.21c1.61,-6.84 4.45,-13.48 8.52,-19.95 4.07,-6.5 8.21,-9.75 12.35,-9.75 4.14,0 8.62,1.51 13.41,4.52 4.82,3.01 8.25,4.52 10.23,4.52 2.6,0 4.82,-0.44 6.6,-1.3 -1.33,13.82 -5.82,20.74 -13.52,20.74 -5.03,0 -10.16,-1.92 -15.43,-5.82 -2.16,0 -3.97,2.81 -5.51,8.35 14.3,3.93 21.45,10.13 21.45,18.54l0 50.71z"/>
  <path id="_1_64" class="fil8" d="M8497.59 3614.07c0,-14.71 9.34,-22.07 28.06,-22.07 15.36,0 29.22,5.03 41.6,15.05 12.35,9.99 18.54,17.18 18.54,21.52 0,4.34 -4.04,6.53 -12.04,6.53l-52.11 0c-16.05,0 -24.05,-7.01 -24.05,-21.04zm24.05 0c0,3.32 1.68,5 5,5l29.08 0c-7.97,-7.36 -16.32,-11.02 -25.08,-11.02 -5.99,0 -9,1.98 -9,6.02z"/>
  <path id="_2_65" class="fil8" d="M8621.86 3690.85c-2.39,-1.33 -4.35,-3.18 -5.81,-5.58 -1.47,-2.36 -2.19,-4.89 -2.19,-7.56 3.59,-6.09 7.87,-11.02 12.83,-14.85 4.96,-3.8 9.51,-5.72 13.72,-5.72 9.65,0 19.13,3.39 28.47,10.13 7.7,-6.74 13.92,-10.13 18.65,-10.13 4.35,0 9.2,2.33 14.61,6.98 5.37,4.65 9.04,6.98 10.95,6.98 2.87,0 4.89,-0.58 6.02,-1.71 0,4.79 -0.99,9.03 -2.94,12.66 -1.98,3.66 -4.62,5.48 -7.87,5.48 -8.69,0 -18.03,-4.31 -27.99,-12.94 -4.07,0 -8.49,3.8 -13.21,11.43 -18.37,-8.35 -28.81,-12.52 -31.27,-12.52 -2.5,0 -4.28,1.57 -5.44,4.72 2.81,5.13 8.35,9.82 16.56,14.03l0 65.14c0,9.37 6.5,14.03 19.54,14.03 13.03,0 19.53,-4.65 19.53,-14.03l0 -38.8c0,-3.01 -0.96,-4.52 -2.91,-4.52 -1.26,0 -1.88,1.13 -1.88,3.32 0,3.15 1.2,5.61 3.59,7.42l-3.59 5c-7.15,-3.32 -10.74,-8.38 -10.74,-15.12 0,-11.63 6.78,-17.45 20.36,-17.45 13.52,0 20.26,7.11 20.26,21.35l0 38.8c0,20.05 -14.88,30.07 -44.61,30.07 -29.74,0 -44.62,-10.02 -44.62,-30.07l0 -66.55z"/>
  <polygon class="fil8" points="3951.86,6617.74 3926.58,6489.05 3827.75,6575.26 3902.08,6560.63 "/>
  <polygon class="fil8" points="4359.11,5358.63 4333.84,5229.94 4235.01,5316.16 4309.34,5301.52 "/>
  <polygon class="fil8" points="4820.94,3923.58 4795.66,3794.89 4696.83,3881.11 4771.16,3866.47 "/>
  <polygon class="fil8" points="9986.61,7319.79 9873.04,7254.2 9986.61,7188.62 9948.69,7254.2 "/>
  <polygon class="fil8" points="7962.2,6640.01 7919.88,6515.99 8048.42,6541.38 7976.8,6565.76 "/>
  <polygon class="fil8" points="6337.46,5023.25 6295.14,4899.23 6423.68,4924.61 6352.05,4949 "/>
  <polygon class="fil8" points="5200.09,2754.38 5174.82,2625.69 5075.99,2711.91 5150.32,2697.27 "/>
  <polygon class="fil8" points="5223.07,1868.49 5094.6,1894.88 5181.67,1992.95 5166.39,1918.75 "/>
  <path class="fil8" d="M1887.13 6906.12c0,17.29 -9.66,25.93 -29.01,25.93 -18.55,0 -27.79,-8.98 -27.79,-26.94 0,-7 1.6,-13.16 4.81,-18.51 3.2,-5.35 8.81,-8.05 16.78,-8.05l2.49 6.2c-3.71,4.13 -5.57,10.92 -5.57,20.37 0,3.96 1.02,5.94 3.08,5.94 2.91,0 4.35,-1.65 4.35,-4.93l0 -67.47c-6.62,-8.73 -13.62,-13.92 -21,-15.56l-4.94 -15.05c1.94,-8.43 5.86,-16.61 11.72,-24.58 5.82,-8.01 12.15,-12.02 18.89,-12.02 5.1,0 11.47,1.85 19.02,5.57 7.59,3.71 12.61,5.57 15.09,5.57 3.2,0 5.91,-0.55 8.14,-1.6 -1.64,17.03 -7.21,25.55 -16.7,25.55 -9.44,0 -17.46,-2.36 -23.95,-7.17 -5.9,0 -9.82,3.46 -11.72,10.29 24.2,6.49 36.31,14.93 36.31,25.3l0 71.18z"/>
  <path id="_1_66" class="fil8" d="M1931.58 6932.06l0 -63.88c0,-3.71 -1.18,-5.56 -3.59,-5.56 -2.36,0 -4.13,2.36 -5.31,7.08 -3.54,-1.52 -5.31,-4.85 -5.31,-10.04 0,-12.69 6.92,-19.02 20.66,-19.02 16.28,0 24.46,7.13 24.46,21.38l0 40.77 15.56 -11.76c2.78,-2.03 5.56,-3.08 8.26,-3.08 2.99,0 5.9,1.14 8.77,3.46l15.56 12.1 0 -67.8c0,-6.83 -2.53,-11.55 -7.63,-14.08 -9.23,7.25 -19.44,10.88 -30.65,10.88 -27.16,0 -40.77,-11.55 -40.77,-34.62 0,-7.8 2.06,-14.29 6.2,-19.44 4.09,-5.15 6.16,-10.63 6.16,-16.36 0,-7 -6.16,-10.5 -18.51,-10.5 0,-8.18 6.58,-12.23 19.77,-12.23 19.74,0 29.64,7.55 29.64,22.73 0,6.16 -2.07,12.02 -6.2,17.59 -4.09,5.56 -6.16,11.64 -6.16,18.22 0,9.32 3.29,13.96 9.87,13.96 6.91,0 13.32,-1.98 19.14,-6.03 -6.15,-4.64 -9.23,-9.65 -9.23,-15.09 0,-12.82 7.8,-19.27 23.44,-19.27 16.49,0 24.71,6.45 24.71,19.27 0,7.17 -2.78,13.32 -8.39,18.42 1.73,0.68 3.5,1.39 5.31,2.24 9.49,4.76 14.21,12.86 14.21,24.33l0 96.35 -27.2 0 -27.79 -23.49 -27.79 23.49 -27.2 0zm76.23 -141.34c0,-3.46 -1.22,-5.19 -3.71,-5.19 -3.04,0 -4.55,1.73 -4.55,5.19 0,2.4 1.94,4.81 5.78,7.17 1.65,-2.19 2.49,-4.6 2.49,-7.17z"/>
  <path id="_2_67" class="fil8" d="M2018.44 6985.61c-13.37,9.61 -28.29,14.38 -44.86,14.38 -12.91,0 -22.64,-1.48 -29.14,-4.51 -6.5,-3 -9.74,-9.49 -9.78,-19.44l0 -9.4c15.6,-0.09 30.4,-1.86 44.44,-5.36 14.04,-3.5 27.37,-11.17 39.93,-23.06 12.94,0 19.4,3.46 19.4,10.41 0,15.05 -6.66,27.37 -19.99,36.98zm-19.82 -18.05c-4.43,2.45 -9.87,4.47 -16.4,6.11 -6.5,1.65 -13.45,2.57 -20.87,2.74 0,2.7 1.22,4.55 3.67,5.48 2.4,0.97 6.03,1.43 10.79,1.43 9.65,0 17.63,-2.28 23.9,-6.79 6.28,-4.55 9.53,-9.7 9.7,-15.43l-0.51 0.21c-0.8,0.68 -1.64,1.27 -2.44,1.81 -0.84,0.5 -3.46,2.02 -7.84,4.43z"/>
  <path id="_3_68" class="fil8" d="M2085.99 6932.06l0 -63.88c0,-3.71 -1.18,-5.56 -3.59,-5.56 -2.36,0 -4.13,2.36 -5.31,7.08 -3.54,-1.52 -5.31,-4.85 -5.31,-10.04 0,-12.69 6.92,-19.02 20.66,-19.02 16.28,0 24.46,7.13 24.46,21.38l0 40.77 15.56 -11.76c2.78,-2.03 5.56,-3.08 8.26,-3.08 2.99,0 5.9,1.14 8.77,3.46l15.56 12.1 0 -67.8c0,-6.83 -2.53,-11.55 -7.63,-14.08 -9.23,7.25 -19.44,10.88 -30.65,10.88 -27.16,0 -40.77,-11.55 -40.77,-34.62 0,-7.8 2.06,-14.29 6.2,-19.44 4.09,-5.15 6.16,-10.63 6.16,-16.36 0,-7 -6.16,-10.5 -18.51,-10.5 0,-8.18 6.58,-12.23 19.77,-12.23 19.74,0 29.64,7.55 29.64,22.73 0,6.16 -2.07,12.02 -6.2,17.59 -4.09,5.56 -6.16,11.64 -6.16,18.22 0,9.32 3.29,13.96 9.87,13.96 6.91,0 13.32,-1.98 19.14,-6.03 -6.15,-4.64 -9.23,-9.65 -9.23,-15.09 0,-12.82 7.8,-19.27 23.44,-19.27 16.49,0 24.71,6.45 24.71,19.27 0,7.17 -2.78,13.32 -8.39,18.42 1.73,0.68 3.5,1.39 5.31,2.24 9.49,4.76 14.21,12.86 14.21,24.33l0 96.35 -27.2 0 -27.79 -23.49 -27.79 23.49 -27.2 0zm76.23 -141.34c0,-3.46 -1.22,-5.19 -3.71,-5.19 -3.04,0 -4.55,1.73 -4.55,5.19 0,2.4 1.94,4.81 5.78,7.17 1.65,-2.19 2.49,-4.6 2.49,-7.17z"/>
  <path id="_4_69" class="fil8" d="M2156.4 6685l0 53.09c0,6.62 -5.15,10.71 -15.43,12.35 -10.29,-1.65 -15.43,-5.73 -15.43,-12.35l0 -53.09 30.87 0z"/>
  <path id="_5_70" class="fil8" d="M2271.31 6867.58l0 27.41c0,11.55 8.01,17.29 24.08,17.29 16.07,0 24.08,-5.74 24.08,-17.29l0 -27.41 -48.16 0zm0 -19.77l48.16 0 0 -9.15c0,-8.73 -3.71,-13.92 -11.09,-15.56l-4.93 -15.05c1.94,-8.43 5.44,-16.61 10.5,-24.58 5.02,-8.01 10.08,-12.02 15.18,-12.02 5.1,0 10.63,1.85 16.53,5.57 5.95,3.71 10.17,5.57 12.61,5.57 3.2,0 5.94,-0.55 8.18,-1.6 -1.65,17.03 -7.21,25.55 -16.7,25.55 -6.15,0 -12.52,-2.36 -19.02,-7.17 -2.66,0 -4.89,3.46 -6.79,10.29 17.63,4.85 26.44,12.48 26.44,22.85l0 62.49c0,24.71 -18.34,37.07 -54.99,37.07 -36.64,0 -54.98,-12.35 -54.98,-37.07l0 -56.33c0,-8.73 -3.71,-13.92 -11.09,-15.56l-4.94 -15.05c1.94,-8.43 5.44,-16.61 10.5,-24.58 5.02,-8.01 10.08,-12.02 15.18,-12.02 5.1,0 10.63,1.85 16.53,5.57 5.94,3.71 10.16,5.57 12.61,5.57 3.2,0 5.95,-0.55 8.18,-1.6 -1.65,17.03 -7.21,25.55 -16.7,25.55 -6.16,0 -12.52,-2.36 -19.02,-7.17 -2.66,0 -4.89,3.46 -6.79,10.29 17.63,4.85 26.44,12.48 26.44,22.85l0 15.31z"/>
  <path id="_6_71" class="fil8" d="M2310.82 6999.99c-16.7,0 -26.65,-2.91 -29.81,-8.77 -3.2,-5.82 -4.76,-10.33 -4.76,-13.45 0,-1.31 0.25,-2.7 0.72,-4.09l6.2 -15.18c0.33,-1.01 0.5,-1.94 0.5,-2.83 0,-3.88 -3.46,-6.33 -10.37,-7.3 0,-6.75 6.58,-10.16 19.74,-10.16 12.61,0 18.93,4.22 18.89,12.61 0.04,3.54 -0.84,7.8 -2.57,12.74l-5.06 12.99c-0.59,1.22 -0.89,2.28 -0.89,3.2 0,2.61 2.49,3.96 7.42,3.96 6.03,0 12.44,-7.59 19.23,-22.77 6.79,-15.14 12.4,-22.73 16.87,-22.73 6.16,0 9.24,2.32 9.24,6.96 0,5.91 -3.42,16.53 -10.25,31.84 -6.83,15.35 -18.51,22.98 -35.08,22.98z"/>
  <path id="_7_72" class="fil8" d="M2578.91 6894.99c0,24.71 -17.33,37.07 -51.91,37.07 -34.57,0 -51.86,-12.35 -51.86,-37.07l0 -86.48c0,-11.51 -8.26,-17.29 -24.71,-17.29 -16.49,0 -24.71,5.78 -24.71,17.29l0 95.13c0,4.93 1.86,7.42 5.57,7.42 4.51,0 6.79,-4.05 6.79,-12.1 0,-9.49 -3.08,-16.28 -9.28,-20.41l2.49 -8.65c7.17,0 13.37,2.7 18.64,8.05 5.27,5.35 7.93,12.35 7.93,21 0,22.05 -10.5,33.1 -31.54,33.1 -21,0 -31.5,-9.49 -31.5,-28.42l0 -95.13c0,-24.71 18.55,-37.07 55.62,-37.07 37.07,0 55.58,12.35 55.58,37.07l0 86.48c0,11.55 7,17.29 21,17.29 14,0 21,-5.74 21,-17.29l0 -56.33c0,-8.73 -3.71,-13.92 -11.09,-15.56l-4.97 -15.05c1.98,-8.43 5.48,-16.61 10.5,-24.58 5.02,-8.01 10.12,-12.02 15.22,-12.02 5.1,0 10.63,1.85 16.53,5.57 5.94,3.71 10.16,5.57 12.61,5.57 3.2,0 5.94,-0.55 8.14,-1.6 -1.64,17.03 -7.17,25.55 -16.65,25.55 -6.2,0 -12.52,-2.36 -19.02,-7.17 -2.66,0 -4.89,3.46 -6.79,10.29 17.63,4.85 26.44,12.48 26.44,22.85l0 62.49z"/>
  <path id="_8_73" class="fil8" d="M2673.03 6817.28c1.9,-0.09 3.88,-0.13 5.94,-0.13 37.07,0 55.58,12.36 55.58,37.07l0 40.77c0,11.55 7,17.29 21,17.29 14,0 21,-5.74 21,-17.29l0 -56.33c0,-8.73 -3.71,-13.92 -11.09,-15.56l-4.97 -15.05c1.98,-8.43 5.48,-16.61 10.5,-24.58 5.02,-8.01 10.12,-12.02 15.22,-12.02 5.1,0 10.63,1.85 16.53,5.57 5.94,3.71 10.16,5.57 12.61,5.57 3.2,0 5.94,-0.55 8.14,-1.6 -1.64,17.03 -7.17,25.55 -16.65,25.55 -6.2,0 -12.52,-2.36 -19.02,-7.17 -2.66,0 -4.89,3.46 -6.79,10.29 17.63,4.85 26.44,12.48 26.44,22.85l0 62.49c0,24.71 -17.33,37.07 -51.91,37.07 -34.57,0 -51.86,-12.35 -51.86,-37.07l0 -40.77c0,-11.51 -8.26,-17.29 -24.71,-17.29 -16.49,0 -24.71,5.78 -24.71,17.29l0 49.42c0,4.93 1.86,7.42 5.57,7.42 4.51,0 6.79,-4.05 6.79,-12.1 0,-9.49 -3.08,-16.28 -9.28,-20.41l2.49 -8.65c7.17,0 13.37,2.7 18.64,8.05 5.27,5.35 7.93,12.35 7.93,21 0,22.05 -10.5,33.1 -31.54,33.1 -21,0 -31.5,-9.49 -31.5,-28.42l0 -49.42c0,-15.22 7.08,-25.76 21.25,-31.62 -3.2,-1.39 -6.58,-2.44 -10.12,-3.2l-4.93 -15.05c2.78,-6.74 7.55,-13.91 14.21,-21.5 6.67,-7.59 13.37,-11.39 20.11,-11.39 5.1,0 11.47,1.85 19.06,5.57 7.55,3.71 12.99,5.57 16.28,5.57 4.85,0 8.39,-0.55 10.63,-1.6 -1.65,17.03 -8.43,25.55 -20.37,25.55 -7.84,0 -15.81,-2.36 -24,-7.17 -5.9,0 -11.05,2.61 -15.43,7.8 9.49,3.2 17.12,6.58 22.98,10.12z"/>
  <path id="_9_74" class="fil8" d="M2727.76 6982.57l5.57 -5.78c8.31,-8.68 14.51,-12.99 18.51,-12.99 8.26,0 12.35,2.57 12.35,7.8 0,5.18 -4.09,7.76 -12.35,7.76 -4.09,0 -8.77,2.74 -13.96,8.27l-5.78 6.2c-2.91,2.95 -4.35,5.02 -4.35,6.16l-27.2 0 0 -35.8c0.04,-9.83 4.13,-16.57 12.35,-20.28 8.26,-3.8 21.42,-5.69 39.55,-5.69 18.13,0 31.29,1.9 39.51,5.69 8.26,3.71 12.35,10.58 12.35,20.66l0 35.42 -27.16 0 0 -35.55c0,-7.93 -8.22,-11.89 -24.71,-11.89 -16.49,0 -24.71,3.96 -24.71,11.89l0 18.13z"/>
  <path id="_10_75" class="fil8" d="M2882.81 6814.33c0,14.08 26.36,32.93 79.06,56.59l0 29.01c0,21.42 -12.06,32.13 -36.22,32.13 -7.55,0 -14.97,-3.63 -22.14,-10.92 -7.21,-7.3 -14.13,-10.96 -20.7,-10.96l0 21.89 -30.9 0 0 -64.22 30.9 0 0 22.6c8.81,0 17.25,3.63 25.3,10.92 8.09,7.3 13.91,10.92 17.54,10.92 3.54,0 5.31,-4.09 5.31,-12.36l0 -21c-52.71,-23.7 -79.06,-45.25 -79.06,-64.6 0,-28.59 18.34,-42.88 54.98,-42.88 36.64,0 54.99,14.29 54.99,42.88 0,15.9 -8.77,23.82 -26.31,23.82 -12.52,0 -18.8,-5.48 -18.8,-16.53 0,-4.39 1.77,-7.3 5.31,-8.77 1.18,3.88 2.95,5.78 5.31,5.78 2.4,0 3.58,-1.43 3.58,-4.3 0,-15.39 -8.01,-23.11 -24.08,-23.11 -16.07,0 -24.08,7.72 -24.08,23.11z"/>
  <path id="_11_76" class="fil8" d="M2922.32 6685l0 53.09c0,6.62 -5.15,10.71 -15.43,12.35 -10.29,-1.65 -15.43,-5.73 -15.43,-12.35l0 -53.09 30.87 0z"/>
  <polygon id="_12_77" class="fil8" points="3071.08,6946.22 3071.08,6735.22 3254,6840.76 "/>
  <g>
   <g>
    <circle class="fil14 str7" cx="7546.24" cy="7008.97" r="46.77"/>
    <circle class="fil15 str7" cx="7546.24" cy="6896.19" r="46.77"/>
    <circle class="fil16 str7" cx="7546.24" cy="6783.42" r="46.77"/>
   </g>
   <rect class="fil2 str8" x="7471.52" y="6710.69" width="149.46" height="371" rx="20" ry="20"/>
  </g>
  <rect class="fil2" width="12461.94" height="8267.44"/>
 </g>
</svg>
