<?xml version="1.0" encoding="UTF-8"?>
<!DOCTYPE svg PUBLIC "-//W3C//DTD SVG 1.1//EN" "http://www.w3.org/Graphics/SVG/1.1/DTD/svg11.dtd">
<!-- Creator: CorelDRAW 2021 (64-Bit) -->
<svg xmlns="http://www.w3.org/2000/svg" xml:space="preserve" width="4.52746in" height="0.187138in" version="1.1" style="shape-rendering:geometricPrecision; text-rendering:geometricPrecision; image-rendering:optimizeQuality; fill-rule:evenodd; clip-rule:evenodd"
viewBox="0 0 10385.86 429.29"
 xmlns:xlink="http://www.w3.org/1999/xlink"
 xmlns:xodm="http://www.corel.com/coreldraw/odm/2003">
 <defs>
  <style type="text/css">
   <![CDATA[
    .str0 {stroke:#F17193;stroke-width:27.09;stroke-linecap:round;stroke-miterlimit:2.61313}
    .str2 {stroke:#F17193;stroke-width:27.09;stroke-linecap:round;stroke-miterlimit:2.61313}
    .str1 {stroke:#F17193;stroke-width:27.09;stroke-linecap:round;stroke-miterlimit:2.61313}
    .fil0 {fill:none}
    .fil1 {fill:#F17193;fill-rule:nonzero}
   ]]>
  </style>
 </defs>
 <g id="__x0023_Layer_x0020_1">
  <metadata id="CorelCorpID_0Corel-Layer"/>
  <g>
   <line class="fil0 str0" x1="559.88" y1="216.76" x2="4445" y2= "216.76" />
  </g>
  <g>
   <path class="fil0 str0" d="M4585.64 319.73c0,0 -42.3,-11.7 -42.3,-64.61 0,-85.65 161.09,-94.21 177.24,19.84 10.05,71.01 -46.79,138.54 -118.33,138.54 -190.61,0 -224.57,-341.68 15.75,-341.68 240.32,0 316.77,344.01 457.71,343.92 80.45,-0.05 117.22,-52.41 117.22,-93.6 0,-116.35 -143.14,-116.34 -148.39,-27.17 -2.3,39.11 42.56,62.11 60.96,39.11"/>
  </g>
  <g>
   <path class="fil0 str0" d="M5192.93 235.24c-141.7,-78.27 0,-216.33 0,-216.33 0,0 141.7,138.06 0,216.33z"/>
  </g>
  <g>
   <path class="fil1" d="M543.74 157.95l6.32 26.34c-7.25,1.74 -14.55,-2.73 -16.29,-10 -1.74,-7.27 2.72,-14.59 9.97,-16.34zm39.72 -17.55l0 0 -0.09 3.1 -0.27 2.99 -0.42 2.89 -0.6 2.79 -0.75 2.71 -0.9 2.56 -1.01 2.43 -1.15 2.3 -1.23 2.18 -1.35 2.05 -1.38 1.88 -1.46 1.79 -1.5 1.63 -1.51 1.5 -1.54 1.38 -1.52 1.25 -1.54 1.17 -1.5 1.04 -1.46 0.94 -1.4 0.82 -1.37 0.76 -1.35 0.69 -1.22 0.57 -1.17 0.51 -1.05 0.43 -1.01 0.39 -0.95 0.33 -0.79 0.26 -0.67 0.2 -0.43 0.14 -0.32 0.08 -0.49 0.13 -6.32 -26.34 -0.36 0.09 0.08 -0.03 0.18 -0.05 0.18 -0.05 0.23 -0.08 0.3 -0.1 0.38 -0.15 0.51 -0.2 0.51 -0.23 0.59 -0.28 0.54 -0.27 0.61 -0.34 0.66 -0.39 0.65 -0.42 0.65 -0.44 0.61 -0.46 0.63 -0.52 0.61 -0.55 0.61 -0.6 0.56 -0.61 0.52 -0.63 0.51 -0.7 0.46 -0.71 0.45 -0.79 0.41 -0.82 0.38 -0.91 0.34 -0.96 0.28 -1.03 0.25 -1.17 0.19 -1.26 0.13 -1.38 0.04 -1.51 0 0 27.02 0zm-123.42 7.25l0 0 1.33 -6.24 1.92 -5.92 2.46 -5.54 2.97 -5.14 3.4 -4.71 3.79 -4.26 4.12 -3.82 4.41 -3.38 4.63 -2.94 4.8 -2.52 4.94 -2.12 5.05 -1.73 5.12 -1.37 5.18 -1 5.19 -0.66 5.19 -0.32 5.17 0.01 5.13 0.35 5.05 0.68 4.95 1 4.84 1.35 4.71 1.7 4.53 2.08 4.34 2.46 4.1 2.86 3.81 3.31 3.46 3.77 3 4.23 2.47 4.65 1.84 5.07 1.13 5.36 0.38 5.55 -27.02 0 -0.13 -1.87 -0.33 -1.61 -0.54 -1.47 -0.77 -1.44 -0.99 -1.39 -1.27 -1.38 -1.59 -1.37 -1.9 -1.33 -2.2 -1.25 -2.47 -1.12 -2.74 -0.99 -2.94 -0.81 -3.12 -0.64 -3.28 -0.44 -3.36 -0.23 -3.44 -0.01 -3.46 0.21 -3.46 0.44 -3.4 0.66 -3.31 0.89 -3.21 1.1 -3.06 1.31 -2.89 1.51 -2.66 1.7 -2.47 1.9 -2.24 2.07 -2.02 2.28 -1.8 2.47 -1.54 2.68 -1.3 2.94 -1.06 3.23 -0.77 3.59 0 0 -26.66 -4.35zm77.81 81.59l0 0 -4.33 -0.11 -4.26 -0.33 -4.19 -0.53 -4.15 -0.75 -4.04 -0.95 -3.96 -1.13 -3.87 -1.32 -3.79 -1.51 -3.66 -1.67 -3.56 -1.83 -3.45 -2 -3.34 -2.17 -3.19 -2.3 -3.06 -2.44 -2.94 -2.59 -2.79 -2.73 -2.64 -2.84 -2.48 -2.98 -2.31 -3.09 -2.16 -3.21 -1.97 -3.31 -1.81 -3.44 -1.59 -3.52 -1.4 -3.59 -1.18 -3.72 -0.96 -3.76 -0.74 -3.83 -0.51 -3.92 -0.25 -3.97 0 -3.99 0.25 -4.01 0.52 -4.04 26.66 4.35 -0.29 2.28 -0.14 2.28 0 2.26 0.14 2.22 0.28 2.2 0.43 2.22 0.56 2.2 0.7 2.15 0.84 2.17 0.96 2.13 1.08 2.07 1.23 2.05 1.35 2.01 1.48 1.97 1.58 1.9 1.7 1.83 1.82 1.77 1.91 1.69 2.03 1.63 2.12 1.53 2.2 1.43 2.29 1.33 2.4 1.24 2.47 1.13 2.53 1 2.59 0.89 2.69 0.77 2.74 0.64 2.77 0.5 2.85 0.37 2.89 0.23 2.94 0.07 0 0 0 27.09zm-8.58 -189.53l0 0 12.91 0.51 12.14 1.5 11.35 2.46 10.55 3.37 9.74 4.23 8.9 5.05 8.03 5.79 7.15 6.48 6.25 7.06 5.34 7.56 4.43 7.97 3.53 8.3 2.65 8.53 1.8 8.72 0.95 8.81 0.13 8.84 -0.66 8.81 -1.45 8.72 -2.21 8.59 -2.96 8.38 -3.73 8.11 -4.44 7.78 -5.17 7.39 -5.91 6.94 -6.62 6.39 -7.3 5.76 -7.98 5.08 -8.62 4.3 -9.24 3.46 -9.81 2.55 -10.34 1.56 -10.81 0.53 0 -27.09 8.16 -0.41 7.61 -1.15 7.1 -1.84 6.58 -2.47 6.11 -3.05 5.64 -3.59 5.17 -4.08 4.71 -4.54 4.21 -4.95 3.73 -5.33 3.23 -5.64 2.7 -5.91 2.17 -6.11 1.62 -6.28 1.06 -6.36 0.48 -6.39 -0.09 -6.37 -0.68 -6.27 -1.26 -6.14 -1.85 -5.95 -2.43 -5.72 -3.03 -5.45 -3.64 -5.16 -4.26 -4.82 -4.93 -4.45 -5.63 -4.06 -6.38 -3.62 -7.17 -3.12 -8.02 -2.56 -8.9 -1.93 -9.83 -1.21 -10.77 -0.42 0 0 0 -27.09zm-249.4 163.5l0 0 5.35 -0.35 5.26 -1.05 5.29 -1.72 5.37 -2.43 5.49 -3.12 5.6 -3.8 5.69 -4.45 5.81 -5.07 5.89 -5.62 6 -6.11 6.1 -6.54 6.2 -6.91 6.33 -7.21 6.48 -7.46 6.64 -7.62 6.82 -7.76 7.04 -7.79 7.26 -7.79 7.52 -7.71 7.81 -7.59 8.13 -7.38 8.47 -7.12 8.84 -6.78 9.24 -6.39 9.67 -5.92 10.12 -5.36 10.58 -4.74 11.08 -4.04 11.58 -3.26 12.07 -2.42 12.58 -1.48 13.07 -0.51 0 27.09 -10.97 0.42 -10.45 1.25 -10.02 2 -9.59 2.7 -9.22 3.37 -8.9 3.98 -8.59 4.55 -8.32 5.08 -8.07 5.57 -7.83 6.02 -7.62 6.39 -7.41 6.73 -7.22 7.01 -7.05 7.24 -6.92 7.41 -6.77 7.51 -6.66 7.56 -6.58 7.57 -6.52 7.5 -6.48 7.39 -6.48 7.2 -6.49 6.97 -6.56 6.67 -6.65 6.34 -6.8 5.93 -6.99 5.46 -7.23 4.9 -7.53 4.28 -7.87 3.53 -8.22 2.68 -8.58 1.68 -8.85 0.59 0 0 0.02 -27.09zm-50.38 -30.95l0 0 0.04 0.99 0.09 1.06 0.17 1.07 0.25 1.14 0.32 1.17 0.41 1.18 0.51 1.25 0.58 1.24 0.68 1.25 0.79 1.28 0.86 1.27 0.98 1.26 1.07 1.27 1.18 1.25 1.28 1.24 1.39 1.21 1.51 1.18 1.63 1.16 1.76 1.13 1.86 1.07 2 1.03 2.12 0.98 2.25 0.9 2.39 0.84 2.53 0.78 2.66 0.69 2.83 0.61 2.95 0.51 3.09 0.41 3.25 0.3 3.41 0.19 3.56 0.06 -0.02 27.09 -4.52 -0.08 -4.41 -0.24 -4.26 -0.39 -4.17 -0.55 -4.02 -0.7 -3.89 -0.84 -3.77 -0.98 -3.63 -1.1 -3.51 -1.24 -3.39 -1.37 -3.24 -1.48 -3.1 -1.59 -2.98 -1.72 -2.83 -1.82 -2.69 -1.9 -2.56 -2.01 -2.42 -2.1 -2.26 -2.18 -2.12 -2.26 -1.97 -2.32 -1.82 -2.39 -1.67 -2.45 -1.51 -2.47 -1.38 -2.56 -1.21 -2.59 -1.05 -2.58 -0.91 -2.66 -0.75 -2.67 -0.58 -2.67 -0.42 -2.72 -0.25 -2.7 -0.09 -2.71 0 0 27.02 0zm53.88 -12l0 0.01 -0.3 -2.29 -0.5 -2.01 -0.7 -1.81 -0.87 -1.64 -1.07 -1.52 -1.26 -1.44 -1.46 -1.33 -1.66 -1.23 -1.88 -1.1 -2.1 -0.99 -2.27 -0.83 -2.4 -0.67 -2.5 -0.49 -2.62 -0.28 -2.7 -0.09 -2.67 0.11 -2.68 0.33 -2.65 0.52 -2.56 0.73 -2.47 0.92 -2.34 1.11 -2.21 1.31 -2.06 1.47 -1.87 1.63 -1.7 1.82 -1.54 2.01 -1.35 2.23 -1.17 2.47 -0.97 2.76 -0.74 3.06 -0.47 3.41 -0.17 3.8 -27.02 0 0.28 -6.24 0.83 -6 1.37 -5.7 1.89 -5.38 2.38 -5.03 2.82 -4.65 3.22 -4.24 3.58 -3.83 3.87 -3.39 4.1 -2.95 4.29 -2.52 4.45 -2.12 4.58 -1.72 4.66 -1.33 4.71 -0.94 4.76 -0.58 4.77 -0.2 4.71 0.16 4.7 0.51 4.65 0.89 4.55 1.26 4.42 1.64 4.28 2.02 4.12 2.44 3.9 2.87 3.61 3.3 3.26 3.71 2.87 4.14 2.4 4.55 1.87 4.88 1.29 5.19 0.68 5.4 0 0.01 -26.95 1.82zm-9.81 8.51l-0.05 -0.05 -0.05 -0.04 -0.04 -0.03 -0.05 -0.02 0.02 0 0.18 0.05 0.18 0.04 0.25 0.03 0.38 0 0.43 -0.02 0.51 -0.07 0.53 -0.09 0.58 -0.16 0.63 -0.21 0.6 -0.24 0.66 -0.31 0.61 -0.33 0.57 -0.37 0.6 -0.42 0.53 -0.44 0.48 -0.44 0.44 -0.48 0.4 -0.49 0.33 -0.46 0.29 -0.48 0.25 -0.51 0.18 -0.42 0.14 -0.47 0.13 -0.5 0.06 -0.46 0.03 -0.52 -0.01 -0.59 26.95 -1.82 0.08 2.84 -0.17 2.84 -0.41 2.77 -0.61 2.65 -0.81 2.56 -1.03 2.48 -1.16 2.28 -1.32 2.19 -1.45 2.07 -1.57 1.91 -1.67 1.78 -1.78 1.67 -1.85 1.51 -1.9 1.38 -2.01 1.27 -2.07 1.14 -2.09 0.99 -2.19 0.88 -2.19 0.71 -2.26 0.6 -2.32 0.45 -2.34 0.29 -2.38 0.13 -2.4 -0.05 -2.49 -0.24 -2.47 -0.47 -2.42 -0.68 -2.47 -0.94 -2.42 -1.21 -2.29 -1.45 -2.16 -1.72 -2.01 -1.97 19.89 -18.33zm0 0l-19.89 18.33c-5.04,-5.5 -4.69,-14.08 0.8,-19.14 5.49,-5.06 14.04,-4.7 19.08,0.8z"/>
  </g>
  <g>
   <path class="fil1" d="M543.74 275.59c-7.25,-1.74 -11.71,-9.07 -9.97,-16.34 1.74,-7.27 9.04,-11.74 16.29,-10l-6.32 26.34zm39.72 17.55l-27.02 0 0 0 -0.04 -1.51 -0.13 -1.38 -0.19 -1.26 -0.25 -1.17 -0.28 -1.03 -0.34 -0.96 -0.38 -0.91 -0.41 -0.82 -0.45 -0.79 -0.46 -0.71 -0.51 -0.7 -0.52 -0.63 -0.56 -0.61 -0.61 -0.6 -0.61 -0.55 -0.63 -0.52 -0.61 -0.46 -0.65 -0.44 -0.65 -0.42 -0.66 -0.39 -0.61 -0.34 -0.54 -0.27 -0.59 -0.28 -0.51 -0.23 -0.51 -0.2 -0.38 -0.15 -0.3 -0.1 -0.23 -0.08 -0.18 -0.05 -0.18 -0.05 -0.08 -0.03 0.36 0.09 6.32 -26.34 0.49 0.13 0.32 0.08 0.43 0.14 0.67 0.2 0.79 0.26 0.95 0.33 1.01 0.39 1.05 0.43 1.17 0.51 1.22 0.57 1.35 0.69 1.37 0.76 1.4 0.82 1.46 0.94 1.5 1.04 1.54 1.17 1.52 1.25 1.54 1.38 1.51 1.5 1.5 1.63 1.46 1.79 1.38 1.88 1.35 2.05 1.23 2.18 1.15 2.3 1.01 2.43 0.9 2.56 0.75 2.71 0.6 2.79 0.42 2.89 0.27 2.99 0.09 3.1 0 0zm-123.42 -7.25l26.66 -4.35 0 0 0.77 3.59 1.06 3.23 1.3 2.94 1.55 2.68 1.78 2.46 2.03 2.28 2.24 2.08 2.47 1.88 2.68 1.71 2.89 1.52 3.05 1.31 3.2 1.1 3.31 0.88 3.41 0.66 3.46 0.44 3.46 0.21 3.44 -0.01 3.36 -0.23 3.28 -0.44 3.12 -0.64 2.94 -0.81 2.74 -0.99 2.47 -1.12 2.2 -1.25 1.91 -1.34 1.58 -1.35 1.26 -1.38 1 -1.4 0.77 -1.44 0.54 -1.47 0.33 -1.61 0.13 -1.87 27.02 0 -0.38 5.55 -1.13 5.36 -1.84 5.07 -2.47 4.65 -2.99 4.22 -3.47 3.78 -3.82 3.31 -4.09 2.85 -4.34 2.46 -4.53 2.08 -4.71 1.7 -4.84 1.35 -4.95 1 -5.05 0.68 -5.13 0.35 -5.17 0.01 -5.19 -0.32 -5.19 -0.66 -5.17 -1 -5.13 -1.36 -5.06 -1.73 -4.95 -2.12 -4.8 -2.53 -4.62 -2.94 -4.42 -3.38 -4.12 -3.83 -3.78 -4.24 -3.42 -4.71 -2.96 -5.16 -2.46 -5.53 -1.92 -5.92 -1.33 -6.24 0 0zm77.81 -81.59l0 27.09 0 0 -2.94 0.07 -2.89 0.23 -2.85 0.37 -2.77 0.5 -2.74 0.64 -2.69 0.77 -2.59 0.89 -2.53 1 -2.47 1.13 -2.4 1.24 -2.29 1.33 -2.2 1.43 -2.12 1.53 -2.03 1.63 -1.91 1.69 -1.82 1.77 -1.7 1.83 -1.58 1.9 -1.48 1.97 -1.35 2.01 -1.23 2.05 -1.08 2.07 -0.97 2.14 -0.83 2.15 -0.69 2.15 -0.57 2.21 -0.43 2.22 -0.28 2.2 -0.14 2.22 0 2.26 0.14 2.28 0.29 2.28 -26.66 4.35 -0.52 -4.04 -0.25 -4.01 0 -3.99 0.25 -3.97 0.51 -3.92 0.74 -3.83 0.95 -3.75 1.19 -3.74 1.41 -3.59 1.58 -3.51 1.81 -3.44 1.97 -3.31 2.16 -3.21 2.31 -3.09 2.48 -2.98 2.64 -2.84 2.79 -2.73 2.94 -2.59 3.06 -2.44 3.19 -2.3 3.34 -2.17 3.45 -2 3.56 -1.83 3.66 -1.67 3.79 -1.51 3.87 -1.32 3.96 -1.13 4.04 -0.95 4.15 -0.75 4.19 -0.53 4.26 -0.33 4.33 -0.11 0 0zm-8.58 189.54l0 -27.09 0 0 10.77 -0.42 9.83 -1.21 8.9 -1.93 8.02 -2.56 7.17 -3.12 6.38 -3.61 5.63 -4.07 4.93 -4.44 4.26 -4.82 3.64 -5.16 3.03 -5.45 2.43 -5.72 1.85 -5.96 1.26 -6.13 0.68 -6.27 0.09 -6.38 -0.48 -6.39 -1.06 -6.35 -1.62 -6.28 -2.17 -6.11 -2.7 -5.91 -3.23 -5.64 -3.73 -5.33 -4.21 -4.95 -4.71 -4.53 -5.17 -4.09 -5.63 -3.59 -6.11 -3.05 -6.58 -2.47 -7.1 -1.84 -7.61 -1.15 -8.16 -0.41 0 -27.09 10.81 0.53 10.34 1.56 9.81 2.55 9.24 3.46 8.62 4.3 7.99 5.08 7.29 5.77 6.62 6.38 5.91 6.94 5.17 7.39 4.44 7.78 3.73 8.11 2.96 8.39 2.21 8.57 1.45 8.73 0.66 8.81 -0.13 8.85 -0.95 8.81 -1.8 8.72 -2.65 8.54 -3.53 8.3 -4.43 7.97 -5.34 7.56 -6.25 7.06 -7.15 6.47 -8.03 5.79 -8.9 5.06 -9.74 4.23 -10.55 3.37 -11.35 2.46 -12.14 1.5 -12.91 0.51 0 0zm-249.4 -163.51l-0.02 -27.09 0 0 8.85 0.59 8.58 1.68 8.22 2.68 7.87 3.53 7.53 4.28 7.23 4.9 6.99 5.46 6.8 5.93 6.65 6.34 6.56 6.67 6.49 6.97 6.48 7.22 6.48 7.37 6.52 7.5 6.58 7.57 6.66 7.57 6.78 7.51 6.91 7.41 7.05 7.24 7.22 7 7.41 6.74 7.61 6.39 7.83 6.01 8.07 5.58 8.32 5.08 8.59 4.55 8.9 3.98 9.22 3.37 9.59 2.7 10.02 2 10.45 1.25 10.97 0.42 0 27.09 -13.07 -0.51 -12.58 -1.48 -12.07 -2.42 -11.58 -3.26 -11.08 -4.04 -10.58 -4.74 -10.12 -5.36 -9.67 -5.92 -9.24 -6.39 -8.84 -6.77 -8.48 -7.12 -8.12 -7.39 -7.81 -7.58 -7.52 -7.71 -7.27 -7.79 -7.04 -7.81 -6.82 -7.75 -6.64 -7.62 -6.48 -7.44 -6.33 -7.23 -6.2 -6.91 -6.1 -6.54 -6 -6.11 -5.89 -5.62 -5.81 -5.07 -5.69 -4.45 -5.6 -3.8 -5.49 -3.12 -5.37 -2.43 -5.29 -1.72 -5.26 -1.05 -5.35 -0.35 0 0zm-50.38 30.95l-27.02 0 0 0 0.09 -2.71 0.25 -2.7 0.42 -2.72 0.58 -2.67 0.75 -2.67 0.91 -2.66 1.05 -2.58 1.21 -2.59 1.38 -2.56 1.51 -2.47 1.67 -2.45 1.82 -2.39 1.97 -2.32 2.12 -2.26 2.26 -2.18 2.42 -2.1 2.56 -2.01 2.69 -1.9 2.83 -1.82 2.98 -1.72 3.1 -1.59 3.24 -1.48 3.39 -1.37 3.51 -1.24 3.63 -1.1 3.77 -0.98 3.89 -0.84 4.02 -0.7 4.17 -0.55 4.26 -0.39 4.41 -0.24 4.52 -0.08 0.02 27.09 -3.56 0.06 -3.41 0.19 -3.25 0.3 -3.09 0.41 -2.95 0.51 -2.83 0.61 -2.66 0.69 -2.53 0.78 -2.39 0.84 -2.25 0.9 -2.12 0.98 -2 1.03 -1.86 1.07 -1.76 1.13 -1.63 1.16 -1.51 1.18 -1.39 1.21 -1.28 1.24 -1.18 1.25 -1.07 1.27 -0.98 1.26 -0.86 1.27 -0.79 1.28 -0.68 1.25 -0.58 1.24 -0.51 1.25 -0.41 1.18 -0.32 1.17 -0.25 1.14 -0.17 1.07 -0.09 1.06 -0.04 0.99 0 0zm53.88 12l26.95 1.82 0 0.01 -0.68 5.4 -1.29 5.19 -1.87 4.88 -2.4 4.55 -2.87 4.14 -3.26 3.71 -3.61 3.3 -3.9 2.87 -4.12 2.44 -4.28 2.02 -4.42 1.64 -4.55 1.26 -4.65 0.89 -4.7 0.51 -4.72 0.16 -4.75 -0.21 -4.74 -0.56 -4.72 -0.95 -4.66 -1.33 -4.58 -1.72 -4.45 -2.12 -4.29 -2.52 -4.1 -2.95 -3.87 -3.39 -3.58 -3.83 -3.22 -4.24 -2.82 -4.65 -2.38 -5.03 -1.89 -5.38 -1.37 -5.7 -0.83 -6 -0.28 -6.24 27.02 0 0.17 3.8 0.47 3.41 0.74 3.06 0.97 2.76 1.17 2.47 1.35 2.23 1.54 2.01 1.7 1.82 1.87 1.63 2.06 1.47 2.21 1.31 2.34 1.11 2.47 0.92 2.56 0.73 2.63 0.51 2.7 0.33 2.69 0.12 2.68 -0.09 2.62 -0.28 2.5 -0.49 2.4 -0.67 2.27 -0.83 2.1 -0.99 1.88 -1.1 1.66 -1.23 1.46 -1.33 1.26 -1.44 1.07 -1.52 0.87 -1.64 0.7 -1.81 0.5 -2.01 0.3 -2.29 0 0.01zm-9.81 -8.51l-19.89 -18.33 2.01 -1.97 2.16 -1.72 2.29 -1.45 2.42 -1.21 2.47 -0.94 2.42 -0.68 2.47 -0.47 2.49 -0.24 2.4 -0.05 2.38 0.13 2.34 0.29 2.32 0.45 2.26 0.6 2.19 0.71 2.19 0.88 2.09 0.99 2.07 1.14 2.01 1.27 1.9 1.38 1.85 1.51 1.78 1.67 1.67 1.78 1.57 1.91 1.45 2.07 1.32 2.19 1.16 2.28 1.03 2.48 0.81 2.56 0.61 2.65 0.41 2.77 0.17 2.84 -0.08 2.84 -26.95 -1.82 0.01 -0.59 -0.03 -0.52 -0.06 -0.46 -0.13 -0.5 -0.14 -0.47 -0.18 -0.42 -0.25 -0.51 -0.29 -0.48 -0.33 -0.46 -0.4 -0.49 -0.44 -0.48 -0.48 -0.44 -0.53 -0.44 -0.6 -0.42 -0.57 -0.37 -0.61 -0.33 -0.66 -0.31 -0.6 -0.24 -0.63 -0.21 -0.58 -0.16 -0.53 -0.09 -0.51 -0.07 -0.43 -0.02 -0.38 0 -0.25 0.03 -0.18 0.04 -0.18 0.05 -0.02 0 0.05 -0.02 0.04 -0.03 0.05 -0.04 0.05 -0.05zm0 0c-5.04,5.5 -13.59,5.86 -19.08,0.8 -5.49,-5.06 -5.84,-13.64 -0.8,-19.14l19.89 18.33z"/>
  </g>
  <g>
   <path class="fil1" d="M13.77 206.08l16.76 21.37 0 -21.37 0.2 0.16 1.06 0.78 1.77 1.28 2.46 1.72 3.08 2.1 3.7 2.43 4.28 2.7 4.81 2.92 5.31 3.05 5.76 3.15 6.18 3.18 6.57 3.16 6.9 3.08 7.2 2.94 7.44 2.75 7.66 2.48 7.83 2.18 7.96 1.83 8.04 1.41 8.08 0.96 8.09 0.45 8.04 -0.09 7.98 -0.69 7.89 -1.32 7.79 -1.98 7.67 -2.72 7.55 -3.49 7.42 -4.34 7.28 -5.25 7.14 -6.25 6.98 -7.34 6.8 -8.54 22.04 15.93 -8.21 10.31 -8.66 9.11 -9.06 7.93 -9.39 6.76 -9.68 5.65 -9.88 4.57 -10.02 3.55 -10.12 2.59 -10.12 1.68 -10.08 0.87 -9.99 0.13 -9.84 -0.56 -9.69 -1.14 -9.48 -1.66 -9.28 -2.12 -8.99 -2.5 -8.72 -2.83 -8.38 -3.09 -8.05 -3.28 -7.66 -3.42 -7.24 -3.49 -6.81 -3.5 -6.34 -3.46 -5.82 -3.36 -5.28 -3.19 -4.7 -2.97 -4.1 -2.68 -3.46 -2.36 -2.76 -1.94 -2.04 -1.48 -1.29 -0.96 -0.6 -0.45 0 -21.37zm0 21.37l-13.77 -10.68 13.77 -10.68 0 21.37zm235.73 -2.72l-22.04 -15.93 0 15.93 -6.8 -8.54 -6.98 -7.34 -7.14 -6.25 -7.28 -5.25 -7.42 -4.34 -7.55 -3.49 -7.67 -2.72 -7.79 -1.98 -7.89 -1.32 -7.98 -0.69 -8.04 -0.09 -8.09 0.45 -8.08 0.96 -8.04 1.41 -7.96 1.83 -7.83 2.18 -7.66 2.48 -7.44 2.75 -7.2 2.94 -6.9 3.08 -6.57 3.16 -6.18 3.18 -5.76 3.15 -5.31 3.05 -4.81 2.92 -4.28 2.7 -3.7 2.43 -3.08 2.1 -2.46 1.72 -1.77 1.28 -1.06 0.78 -0.2 0.16 -16.76 -21.37 0.6 -0.45 1.29 -0.96 2.04 -1.48 2.76 -1.94 3.46 -2.36 4.1 -2.68 4.7 -2.97 5.28 -3.19 5.82 -3.36 6.34 -3.46 6.81 -3.5 7.24 -3.49 7.66 -3.42 8.05 -3.28 8.38 -3.09 8.72 -2.83 8.99 -2.5 9.28 -2.12 9.48 -1.66 9.69 -1.14 9.84 -0.56 9.99 0.13 10.08 0.87 10.12 1.68 10.12 2.59 10.02 3.55 9.88 4.57 9.68 5.65 9.39 6.76 9.06 7.93 8.66 9.11 8.21 10.31 0 15.93zm0 -15.93l5.82 7.97 -5.82 7.97 0 -15.93z"/>
  </g>
  <g>
   <line class="fil0 str1" x1="9825.98" y1="216.76" x2="5940.87" y2= "216.76" />
  </g>
  <g>
   <path class="fil0 str2" d="M5800.22 319.73c0,0 42.3,-11.7 42.3,-64.61 0,-85.65 -161.09,-94.21 -177.24,19.84 -10.05,71.01 46.79,138.54 118.33,138.54 190.61,0 224.57,-341.68 -15.75,-341.68 -240.32,0 -316.77,344.01 -457.71,343.92 -80.45,-0.05 -117.22,-52.41 -117.22,-93.6 0,-116.35 143.14,-116.34 148.39,-27.17 2.3,39.11 -42.56,62.11 -60.96,39.11"/>
  </g>
  <g>
   <path class="fil1" d="M9842.12 157.95c7.25,1.74 11.71,9.07 9.97,16.34 -1.74,7.27 -9.04,11.74 -16.29,10l6.32 -26.34zm-39.72 -17.55l27.02 0 0 0 0.04 1.51 0.13 1.38 0.19 1.26 0.25 1.17 0.28 1.03 0.34 0.96 0.38 0.91 0.41 0.82 0.45 0.79 0.46 0.71 0.51 0.7 0.52 0.63 0.56 0.61 0.61 0.6 0.61 0.55 0.63 0.52 0.61 0.46 0.65 0.44 0.65 0.42 0.66 0.39 0.61 0.34 0.54 0.27 0.59 0.28 0.51 0.23 0.51 0.2 0.38 0.15 0.3 0.1 0.23 0.08 0.18 0.05 0.18 0.05 0.08 0.03 -0.36 -0.09 -6.32 26.34 -0.49 -0.13 -0.32 -0.08 -0.43 -0.14 -0.67 -0.2 -0.79 -0.26 -0.95 -0.33 -1.01 -0.39 -1.05 -0.43 -1.17 -0.51 -1.22 -0.57 -1.35 -0.69 -1.37 -0.76 -1.4 -0.82 -1.46 -0.94 -1.5 -1.04 -1.54 -1.17 -1.52 -1.25 -1.54 -1.38 -1.51 -1.5 -1.5 -1.63 -1.46 -1.79 -1.38 -1.88 -1.35 -2.05 -1.23 -2.18 -1.15 -2.3 -1.01 -2.43 -0.9 -2.56 -0.75 -2.71 -0.6 -2.79 -0.42 -2.89 -0.27 -2.99 -0.09 -3.1 0 0zm123.42 7.25l-26.66 4.35 0 0 -0.77 -3.59 -1.06 -3.23 -1.3 -2.94 -1.54 -2.68 -1.8 -2.47 -2.02 -2.28 -2.24 -2.07 -2.47 -1.9 -2.66 -1.7 -2.89 -1.51 -3.06 -1.31 -3.21 -1.1 -3.31 -0.89 -3.4 -0.66 -3.46 -0.44 -3.46 -0.21 -3.44 0.01 -3.36 0.23 -3.28 0.44 -3.12 0.64 -2.94 0.81 -2.74 0.99 -2.47 1.12 -2.2 1.25 -1.9 1.33 -1.59 1.37 -1.27 1.38 -0.99 1.39 -0.77 1.44 -0.54 1.47 -0.33 1.61 -0.13 1.87 -27.02 0 0.38 -5.55 1.13 -5.36 1.84 -5.07 2.47 -4.65 3 -4.23 3.46 -3.77 3.81 -3.31 4.1 -2.86 4.34 -2.46 4.53 -2.08 4.71 -1.7 4.84 -1.35 4.95 -1 5.05 -0.68 5.13 -0.35 5.17 -0.01 5.19 0.32 5.19 0.66 5.18 1 5.12 1.37 5.05 1.73 4.94 2.12 4.8 2.52 4.63 2.94 4.41 3.38 4.12 3.82 3.79 4.26 3.4 4.71 2.97 5.14 2.46 5.54 1.92 5.92 1.33 6.24 0 0zm-77.81 81.59l0 -27.09 0 0 2.94 -0.07 2.89 -0.23 2.85 -0.37 2.77 -0.5 2.74 -0.64 2.69 -0.77 2.59 -0.89 2.53 -1 2.47 -1.13 2.4 -1.24 2.29 -1.33 2.2 -1.43 2.12 -1.53 2.03 -1.63 1.91 -1.69 1.82 -1.77 1.7 -1.83 1.58 -1.9 1.48 -1.97 1.35 -2.01 1.23 -2.05 1.08 -2.07 0.96 -2.13 0.84 -2.17 0.7 -2.15 0.56 -2.2 0.43 -2.22 0.28 -2.2 0.14 -2.22 0 -2.26 -0.14 -2.28 -0.29 -2.28 26.66 -4.35 0.52 4.04 0.25 4.01 0 3.99 -0.25 3.97 -0.51 3.92 -0.74 3.83 -0.96 3.76 -1.18 3.72 -1.4 3.59 -1.59 3.52 -1.81 3.44 -1.97 3.31 -2.16 3.21 -2.31 3.09 -2.48 2.98 -2.64 2.84 -2.79 2.73 -2.94 2.59 -3.06 2.44 -3.19 2.3 -3.34 2.17 -3.45 2 -3.56 1.83 -3.66 1.67 -3.79 1.51 -3.87 1.32 -3.96 1.13 -4.04 0.95 -4.15 0.75 -4.19 0.53 -4.26 0.33 -4.33 0.11 0 0zm8.58 -189.53l0 27.09 0 0 -10.77 0.42 -9.83 1.21 -8.9 1.93 -8.02 2.56 -7.17 3.12 -6.38 3.62 -5.63 4.06 -4.93 4.45 -4.26 4.82 -3.64 5.16 -3.03 5.45 -2.43 5.72 -1.85 5.95 -1.26 6.14 -0.68 6.27 -0.09 6.37 0.48 6.39 1.06 6.36 1.62 6.28 2.17 6.11 2.7 5.91 3.23 5.64 3.73 5.33 4.21 4.95 4.71 4.54 5.17 4.08 5.64 3.59 6.11 3.05 6.58 2.47 7.1 1.84 7.61 1.15 8.16 0.41 0 27.09 -10.81 -0.53 -10.34 -1.56 -9.81 -2.55 -9.24 -3.46 -8.62 -4.3 -7.98 -5.08 -7.3 -5.76 -6.62 -6.39 -5.91 -6.94 -5.17 -7.39 -4.44 -7.78 -3.73 -8.11 -2.96 -8.38 -2.21 -8.59 -1.45 -8.72 -0.66 -8.81 0.13 -8.84 0.95 -8.81 1.8 -8.72 2.65 -8.53 3.53 -8.3 4.43 -7.97 5.34 -7.56 6.25 -7.06 7.15 -6.48 8.03 -5.79 8.9 -5.05 9.74 -4.23 10.55 -3.37 11.35 -2.46 12.14 -1.5 12.91 -0.51 0 0zm249.4 163.5l0.02 27.09 0 0 -8.85 -0.59 -8.58 -1.68 -8.22 -2.68 -7.87 -3.53 -7.53 -4.28 -7.23 -4.9 -6.99 -5.46 -6.8 -5.93 -6.65 -6.34 -6.56 -6.67 -6.49 -6.97 -6.48 -7.2 -6.48 -7.39 -6.52 -7.5 -6.58 -7.57 -6.66 -7.56 -6.77 -7.51 -6.92 -7.41 -7.05 -7.24 -7.22 -7.01 -7.41 -6.73 -7.62 -6.39 -7.83 -6.02 -8.07 -5.57 -8.32 -5.08 -8.59 -4.55 -8.9 -3.98 -9.22 -3.37 -9.59 -2.7 -10.02 -2 -10.45 -1.25 -10.97 -0.42 0 -27.09 13.07 0.51 12.58 1.48 12.07 2.42 11.58 3.26 11.08 4.04 10.58 4.74 10.12 5.36 9.67 5.92 9.24 6.39 8.84 6.78 8.47 7.12 8.13 7.38 7.81 7.59 7.52 7.71 7.26 7.79 7.04 7.79 6.82 7.76 6.64 7.62 6.48 7.46 6.33 7.21 6.2 6.91 6.1 6.54 6 6.11 5.89 5.62 5.81 5.07 5.69 4.45 5.6 3.8 5.49 3.12 5.37 2.43 5.29 1.72 5.26 1.05 5.35 0.35 0 0zm50.38 -30.95l27.02 0 0 0 -0.09 2.71 -0.25 2.7 -0.42 2.72 -0.58 2.67 -0.75 2.67 -0.91 2.66 -1.05 2.58 -1.21 2.59 -1.38 2.56 -1.51 2.47 -1.67 2.45 -1.82 2.39 -1.97 2.32 -2.12 2.26 -2.26 2.18 -2.42 2.1 -2.56 2.01 -2.69 1.9 -2.83 1.82 -2.98 1.72 -3.1 1.59 -3.24 1.48 -3.39 1.37 -3.51 1.24 -3.63 1.1 -3.77 0.98 -3.89 0.84 -4.02 0.7 -4.17 0.55 -4.26 0.39 -4.41 0.24 -4.52 0.08 -0.02 -27.09 3.56 -0.06 3.41 -0.19 3.25 -0.3 3.09 -0.41 2.95 -0.51 2.83 -0.61 2.66 -0.69 2.53 -0.78 2.39 -0.84 2.25 -0.9 2.12 -0.98 2 -1.03 1.86 -1.07 1.76 -1.13 1.63 -1.16 1.51 -1.18 1.39 -1.21 1.28 -1.24 1.18 -1.25 1.07 -1.27 0.98 -1.26 0.86 -1.27 0.79 -1.28 0.68 -1.25 0.58 -1.24 0.51 -1.25 0.41 -1.18 0.32 -1.17 0.25 -1.14 0.17 -1.07 0.09 -1.06 0.04 -0.99 0 0zm-53.88 -12l-26.95 -1.82 0 -0.01 0.68 -5.4 1.29 -5.19 1.87 -4.88 2.4 -4.55 2.87 -4.14 3.26 -3.71 3.61 -3.3 3.9 -2.87 4.12 -2.44 4.28 -2.02 4.42 -1.64 4.55 -1.26 4.65 -0.89 4.7 -0.51 4.71 -0.16 4.77 0.2 4.76 0.58 4.71 0.94 4.66 1.33 4.58 1.72 4.45 2.12 4.29 2.52 4.1 2.95 3.87 3.39 3.58 3.83 3.22 4.24 2.82 4.65 2.38 5.03 1.89 5.38 1.37 5.7 0.83 6 0.28 6.24 -27.02 0 -0.17 -3.8 -0.47 -3.41 -0.74 -3.06 -0.97 -2.76 -1.17 -2.47 -1.35 -2.23 -1.54 -2.01 -1.7 -1.82 -1.87 -1.63 -2.06 -1.47 -2.21 -1.31 -2.34 -1.11 -2.47 -0.92 -2.56 -0.73 -2.65 -0.52 -2.68 -0.33 -2.67 -0.11 -2.7 0.09 -2.62 0.28 -2.5 0.49 -2.4 0.67 -2.27 0.83 -2.1 0.99 -1.88 1.1 -1.66 1.23 -1.46 1.33 -1.26 1.44 -1.07 1.52 -0.87 1.64 -0.7 1.81 -0.5 2.01 -0.3 2.29 0 -0.01zm9.81 8.51l19.89 18.33 -2.01 1.97 -2.16 1.72 -2.29 1.45 -2.42 1.21 -2.47 0.94 -2.42 0.68 -2.47 0.47 -2.49 0.24 -2.4 0.05 -2.38 -0.13 -2.34 -0.29 -2.32 -0.45 -2.26 -0.6 -2.19 -0.71 -2.19 -0.88 -2.09 -0.99 -2.07 -1.14 -2.01 -1.27 -1.9 -1.38 -1.85 -1.51 -1.78 -1.67 -1.67 -1.78 -1.57 -1.91 -1.45 -2.07 -1.32 -2.19 -1.16 -2.28 -1.03 -2.48 -0.81 -2.56 -0.61 -2.65 -0.41 -2.77 -0.17 -2.84 0.08 -2.84 26.95 1.82 -0.01 0.59 0.03 0.52 0.06 0.46 0.13 0.5 0.14 0.47 0.18 0.42 0.25 0.51 0.29 0.48 0.33 0.46 0.4 0.49 0.44 0.48 0.48 0.44 0.53 0.44 0.6 0.42 0.57 0.37 0.61 0.33 0.66 0.31 0.6 0.24 0.63 0.21 0.58 0.16 0.53 0.09 0.51 0.07 0.43 0.02 0.38 0 0.25 -0.03 0.18 -0.04 0.18 -0.05 0.02 0 -0.05 0.02 -0.04 0.03 -0.05 0.04 -0.05 0.05zm0 0c5.04,-5.5 13.59,-5.86 19.08,-0.8 5.49,5.06 5.84,13.64 0.8,19.14l-19.89 -18.33z"/>
  </g>
  <g>
   <path class="fil1" d="M9842.12 275.59l-6.32 -26.34c7.25,-1.74 14.55,2.73 16.29,10 1.74,7.27 -2.72,14.59 -9.97,16.34zm-39.72 17.55l0 0 0.09 -3.1 0.27 -2.99 0.42 -2.89 0.6 -2.79 0.75 -2.71 0.9 -2.56 1.01 -2.43 1.15 -2.3 1.23 -2.18 1.35 -2.05 1.38 -1.88 1.46 -1.79 1.5 -1.63 1.51 -1.5 1.54 -1.38 1.52 -1.25 1.54 -1.17 1.5 -1.04 1.46 -0.94 1.4 -0.82 1.37 -0.76 1.35 -0.69 1.22 -0.57 1.17 -0.51 1.05 -0.43 1.01 -0.39 0.95 -0.33 0.79 -0.26 0.67 -0.2 0.43 -0.14 0.32 -0.08 0.49 -0.13 6.32 26.34 0.36 -0.09 -0.08 0.03 -0.18 0.05 -0.18 0.05 -0.23 0.08 -0.3 0.1 -0.38 0.15 -0.51 0.2 -0.51 0.23 -0.59 0.28 -0.54 0.27 -0.61 0.34 -0.66 0.39 -0.65 0.42 -0.65 0.44 -0.61 0.46 -0.63 0.52 -0.61 0.55 -0.61 0.6 -0.56 0.61 -0.52 0.63 -0.51 0.7 -0.46 0.71 -0.45 0.79 -0.41 0.82 -0.38 0.91 -0.34 0.96 -0.28 1.03 -0.25 1.17 -0.19 1.26 -0.13 1.38 -0.04 1.51 0 0 -27.02 0zm123.42 -7.25l0 0 -1.33 6.24 -1.92 5.92 -2.46 5.53 -2.96 5.16 -3.42 4.71 -3.78 4.24 -4.12 3.83 -4.42 3.38 -4.62 2.94 -4.8 2.53 -4.95 2.12 -5.06 1.73 -5.13 1.36 -5.17 1 -5.19 0.66 -5.19 0.32 -5.17 -0.01 -5.13 -0.35 -5.05 -0.68 -4.95 -1 -4.84 -1.35 -4.71 -1.7 -4.53 -2.08 -4.34 -2.46 -4.09 -2.85 -3.82 -3.31 -3.47 -3.78 -2.99 -4.22 -2.47 -4.65 -1.84 -5.07 -1.13 -5.36 -0.38 -5.55 27.02 0 0.13 1.87 0.33 1.61 0.54 1.47 0.77 1.44 1 1.4 1.26 1.38 1.58 1.35 1.91 1.34 2.2 1.25 2.47 1.12 2.74 0.99 2.94 0.81 3.12 0.64 3.28 0.44 3.36 0.23 3.44 0.01 3.46 -0.21 3.46 -0.44 3.41 -0.66 3.31 -0.88 3.2 -1.1 3.05 -1.31 2.89 -1.52 2.68 -1.71 2.47 -1.88 2.24 -2.08 2.03 -2.28 1.78 -2.46 1.55 -2.68 1.3 -2.94 1.06 -3.23 0.77 -3.59 0 0 26.66 4.35zm-77.81 -81.59l0 0 4.33 0.11 4.26 0.33 4.19 0.53 4.15 0.75 4.04 0.95 3.96 1.13 3.87 1.32 3.79 1.51 3.66 1.67 3.56 1.83 3.45 2 3.34 2.17 3.19 2.3 3.06 2.44 2.94 2.59 2.79 2.73 2.64 2.84 2.48 2.98 2.31 3.09 2.16 3.21 1.97 3.31 1.81 3.44 1.58 3.51 1.41 3.59 1.19 3.74 0.95 3.75 0.74 3.83 0.51 3.92 0.25 3.97 0 3.99 -0.25 4.01 -0.52 4.04 -26.66 -4.35 0.29 -2.28 0.14 -2.28 0 -2.26 -0.14 -2.22 -0.28 -2.2 -0.43 -2.22 -0.57 -2.21 -0.69 -2.15 -0.83 -2.15 -0.97 -2.14 -1.08 -2.07 -1.23 -2.05 -1.35 -2.01 -1.48 -1.97 -1.58 -1.9 -1.7 -1.83 -1.82 -1.77 -1.91 -1.69 -2.03 -1.63 -2.12 -1.53 -2.2 -1.43 -2.29 -1.33 -2.4 -1.24 -2.47 -1.13 -2.53 -1 -2.59 -0.89 -2.69 -0.77 -2.74 -0.64 -2.77 -0.5 -2.85 -0.37 -2.89 -0.23 -2.94 -0.07 0 0 0 -27.09zm8.58 189.54l0 0 -12.91 -0.51 -12.14 -1.5 -11.35 -2.46 -10.55 -3.37 -9.74 -4.23 -8.9 -5.06 -8.03 -5.79 -7.15 -6.47 -6.25 -7.06 -5.34 -7.56 -4.43 -7.97 -3.53 -8.3 -2.65 -8.54 -1.8 -8.72 -0.95 -8.81 -0.13 -8.85 0.66 -8.81 1.45 -8.73 2.21 -8.57 2.96 -8.39 3.73 -8.11 4.44 -7.78 5.17 -7.39 5.91 -6.94 6.62 -6.38 7.29 -5.77 7.99 -5.08 8.62 -4.3 9.24 -3.46 9.81 -2.55 10.34 -1.56 10.81 -0.53 0 27.09 -8.16 0.41 -7.61 1.15 -7.1 1.84 -6.58 2.47 -6.11 3.05 -5.63 3.59 -5.17 4.09 -4.71 4.53 -4.21 4.95 -3.73 5.33 -3.23 5.64 -2.7 5.91 -2.17 6.11 -1.62 6.28 -1.06 6.35 -0.48 6.39 0.09 6.38 0.68 6.27 1.26 6.13 1.85 5.96 2.43 5.72 3.03 5.45 3.64 5.16 4.26 4.82 4.93 4.44 5.63 4.07 6.38 3.61 7.17 3.12 8.02 2.56 8.9 1.93 9.83 1.21 10.77 0.42 0 0 0 27.09zm249.4 -163.51l0 0 -5.35 0.35 -5.26 1.05 -5.29 1.72 -5.37 2.43 -5.49 3.12 -5.6 3.8 -5.69 4.45 -5.81 5.07 -5.89 5.62 -6 6.11 -6.1 6.54 -6.2 6.91 -6.33 7.23 -6.48 7.44 -6.64 7.62 -6.82 7.75 -7.04 7.81 -7.27 7.79 -7.52 7.71 -7.81 7.58 -8.12 7.39 -8.48 7.12 -8.84 6.77 -9.24 6.39 -9.67 5.92 -10.12 5.36 -10.58 4.74 -11.08 4.04 -11.58 3.26 -12.07 2.42 -12.58 1.48 -13.07 0.51 0 -27.09 10.97 -0.42 10.45 -1.25 10.02 -2 9.59 -2.7 9.22 -3.37 8.9 -3.98 8.59 -4.55 8.32 -5.08 8.07 -5.58 7.83 -6.01 7.61 -6.39 7.41 -6.74 7.22 -7 7.05 -7.24 6.91 -7.41 6.78 -7.51 6.66 -7.57 6.58 -7.57 6.52 -7.5 6.48 -7.37 6.48 -7.22 6.49 -6.97 6.56 -6.67 6.65 -6.34 6.8 -5.93 6.99 -5.46 7.23 -4.9 7.53 -4.28 7.87 -3.53 8.22 -2.68 8.58 -1.68 8.85 -0.59 0 0 -0.02 27.09zm50.38 30.95l0 0 -0.04 -0.99 -0.09 -1.06 -0.17 -1.07 -0.25 -1.14 -0.32 -1.17 -0.41 -1.18 -0.51 -1.25 -0.58 -1.24 -0.68 -1.25 -0.79 -1.28 -0.86 -1.27 -0.98 -1.26 -1.07 -1.27 -1.18 -1.25 -1.28 -1.24 -1.39 -1.21 -1.51 -1.18 -1.63 -1.16 -1.76 -1.13 -1.86 -1.07 -2 -1.03 -2.12 -0.98 -2.25 -0.9 -2.39 -0.84 -2.53 -0.78 -2.66 -0.69 -2.83 -0.61 -2.95 -0.51 -3.09 -0.41 -3.25 -0.3 -3.41 -0.19 -3.56 -0.06 0.02 -27.09 4.52 0.08 4.41 0.24 4.26 0.39 4.17 0.55 4.02 0.7 3.89 0.84 3.77 0.98 3.63 1.1 3.51 1.24 3.39 1.37 3.24 1.48 3.1 1.59 2.98 1.72 2.83 1.82 2.69 1.9 2.56 2.01 2.42 2.1 2.26 2.18 2.12 2.26 1.97 2.32 1.82 2.39 1.67 2.45 1.51 2.47 1.38 2.56 1.21 2.59 1.05 2.58 0.91 2.66 0.75 2.67 0.58 2.67 0.42 2.72 0.25 2.7 0.09 2.71 0 0 -27.02 0zm-53.88 12l0 -0.01 0.3 2.29 0.5 2.01 0.7 1.81 0.87 1.64 1.07 1.52 1.26 1.44 1.46 1.33 1.66 1.23 1.88 1.1 2.1 0.99 2.27 0.83 2.4 0.67 2.5 0.49 2.62 0.28 2.68 0.09 2.69 -0.12 2.7 -0.33 2.63 -0.51 2.56 -0.73 2.47 -0.92 2.34 -1.11 2.21 -1.31 2.06 -1.47 1.87 -1.63 1.7 -1.82 1.54 -2.01 1.35 -2.23 1.17 -2.47 0.97 -2.76 0.74 -3.06 0.47 -3.41 0.17 -3.8 27.02 0 -0.28 6.24 -0.83 6 -1.37 5.7 -1.89 5.38 -2.38 5.03 -2.82 4.65 -3.22 4.24 -3.58 3.83 -3.87 3.39 -4.1 2.95 -4.29 2.52 -4.45 2.12 -4.58 1.72 -4.66 1.33 -4.72 0.95 -4.74 0.56 -4.75 0.21 -4.72 -0.16 -4.7 -0.51 -4.65 -0.89 -4.55 -1.26 -4.42 -1.64 -4.28 -2.02 -4.12 -2.44 -3.9 -2.87 -3.61 -3.3 -3.26 -3.71 -2.87 -4.14 -2.4 -4.55 -1.87 -4.88 -1.29 -5.19 -0.68 -5.4 0 -0.01 26.95 -1.82zm9.81 -8.51l0.05 0.05 0.05 0.04 0.04 0.03 0.05 0.02 -0.02 0 -0.18 -0.05 -0.18 -0.04 -0.25 -0.03 -0.38 0 -0.43 0.02 -0.51 0.07 -0.53 0.09 -0.58 0.16 -0.63 0.21 -0.6 0.24 -0.66 0.31 -0.61 0.33 -0.57 0.37 -0.6 0.42 -0.53 0.44 -0.48 0.44 -0.44 0.48 -0.4 0.49 -0.33 0.46 -0.29 0.48 -0.25 0.51 -0.18 0.42 -0.14 0.47 -0.13 0.5 -0.06 0.46 -0.03 0.52 0.01 0.59 -26.95 1.82 -0.08 -2.84 0.17 -2.84 0.41 -2.77 0.61 -2.65 0.81 -2.56 1.03 -2.48 1.16 -2.28 1.32 -2.19 1.45 -2.07 1.57 -1.91 1.67 -1.78 1.78 -1.67 1.85 -1.51 1.9 -1.38 2.01 -1.27 2.07 -1.14 2.09 -0.99 2.19 -0.88 2.19 -0.71 2.26 -0.6 2.32 -0.45 2.34 -0.29 2.38 -0.13 2.4 0.05 2.49 0.24 2.47 0.47 2.42 0.68 2.47 0.94 2.42 1.21 2.29 1.45 2.16 1.72 2.01 1.97 -19.89 18.33zm0 0l19.89 -18.33c5.04,5.5 4.69,14.08 -0.8,19.14 -5.49,5.06 -14.04,4.7 -19.08,-0.8z"/>
  </g>
  <g>
   <path class="fil1" d="M10372.09 206.08l0 21.37 -0.6 0.45 -1.29 0.96 -2.04 1.48 -2.76 1.94 -3.46 2.36 -4.1 2.68 -4.7 2.97 -5.28 3.19 -5.82 3.36 -6.34 3.46 -6.81 3.5 -7.24 3.49 -7.66 3.42 -8.05 3.28 -8.38 3.09 -8.72 2.83 -8.99 2.5 -9.28 2.12 -9.48 1.66 -9.69 1.14 -9.84 0.56 -9.99 -0.13 -10.08 -0.87 -10.12 -1.68 -10.12 -2.59 -10.02 -3.55 -9.88 -4.57 -9.68 -5.65 -9.39 -6.76 -9.06 -7.93 -8.66 -9.11 -8.21 -10.31 22.04 -15.93 6.8 8.54 6.98 7.34 7.14 6.25 7.28 5.25 7.42 4.34 7.55 3.49 7.67 2.72 7.79 1.98 7.89 1.32 7.98 0.69 8.04 0.09 8.09 -0.45 8.08 -0.96 8.04 -1.41 7.96 -1.83 7.83 -2.18 7.66 -2.48 7.44 -2.75 7.2 -2.94 6.9 -3.08 6.57 -3.16 6.18 -3.18 5.76 -3.15 5.31 -3.05 4.81 -2.92 4.28 -2.7 3.7 -2.43 3.08 -2.1 2.46 -1.72 1.77 -1.28 1.06 -0.78 0.2 -0.16 0 21.37 16.76 -21.37zm0 0l13.77 10.68 -13.77 10.68 0 -21.37zm-235.73 18.65l0 -15.93 8.21 -10.31 8.66 -9.11 9.06 -7.93 9.39 -6.76 9.68 -5.65 9.88 -4.57 10.02 -3.55 10.12 -2.59 10.12 -1.68 10.08 -0.87 9.99 -0.13 9.84 0.56 9.69 1.14 9.48 1.66 9.28 2.12 8.99 2.5 8.72 2.83 8.38 3.09 8.05 3.28 7.66 3.42 7.24 3.49 6.81 3.5 6.34 3.46 5.82 3.36 5.28 3.19 4.7 2.97 4.1 2.68 3.46 2.36 2.76 1.94 2.04 1.48 1.29 0.96 0.6 0.45 -16.76 21.37 -0.2 -0.16 -1.06 -0.78 -1.77 -1.28 -2.46 -1.72 -3.08 -2.1 -3.7 -2.43 -4.28 -2.7 -4.81 -2.92 -5.31 -3.05 -5.76 -3.15 -6.18 -3.18 -6.57 -3.16 -6.9 -3.08 -7.2 -2.94 -7.44 -2.75 -7.66 -2.48 -7.83 -2.18 -7.96 -1.83 -8.04 -1.41 -8.08 -0.96 -8.09 -0.45 -8.04 0.09 -7.98 0.69 -7.89 1.32 -7.79 1.98 -7.67 2.72 -7.55 3.49 -7.42 4.34 -7.28 5.25 -7.14 6.25 -6.98 7.34 -6.8 8.54 0 -15.93 -22.04 15.93zm0 0l-5.82 -7.97 5.82 -7.97 0 15.93z"/>
  </g>
 </g>
</svg>
