<?xml version="1.0" encoding="UTF-8"?>
<!DOCTYPE svg PUBLIC "-//W3C//DTD SVG 1.1//EN" "http://www.w3.org/Graphics/SVG/1.1/DTD/svg11.dtd">
<!-- Creator: CorelDRAW 2021 (64-Bit) -->
<svg xmlns="http://www.w3.org/2000/svg" xml:space="preserve" width="3.12134in" height="0.715024in" version="1.1" style="shape-rendering:geometricPrecision; text-rendering:geometricPrecision; image-rendering:optimizeQuality; fill-rule:evenodd; clip-rule:evenodd"
viewBox="0 0 3121.33 715.02"
 xmlns:xlink="http://www.w3.org/1999/xlink"
 xmlns:xodm="http://www.corel.com/coreldraw/odm/2003">
 <defs>
  <style type="text/css">
   <![CDATA[
    .fil0 {fill:#F17193}
   ]]>
  </style>
 </defs>
 <g id="__x0023_Layer_x0020_1">
  <metadata id="CorelCorpID_0Corel-Layer"/>
  <path class="fil0" d="M70.55 573.62c0,79.6 -10.59,122.24 -31.68,132.6 -21.95,10.78 -34.87,-21.61 -38.87,-102.47 0,-66.54 0,-100.89 0,-165.3 0,-16.02 3.7,-34.74 11.09,-55.77 7.39,-21.02 15.75,-33.18 25.07,-37.13 4.63,-1.96 10.72,1.07 18.3,9.36 7.57,8.28 21.87,8.13 21.99,8.22 1.91,1.43 -4.52,30.94 -8.85,43.65 -4.31,12.71 -9.83,20.72 -15.31,24.16 -0.61,0.39 -1.25,0.78 -1.89,1.05 -5.1,2.2 -9.4,1.13 -12.94,-3.04 -3.94,-4.65 -8.01,-6.15 -11.75,-4.43 -3.81,1.76 -7.13,8.13 -9.87,18.93 -2.73,10.8 -4.1,22.73 -4.1,35.81 0,28.63 0,43.17 0,72.19 0,18.56 1.95,35.8 5.87,51.58 3.44,13.86 9.9,18.44 19.39,13.94 1.33,-0.63 2.7,-1.46 4.11,-2.43 11.66,-8.05 17.67,-21.65 17.67,-41.13 0,-6.55 -1.05,-11.42 -3.18,-14.28 -0.89,-1.2 -1.85,-1.61 -2.7,-1.22 -1.26,0.58 -2.42,2.54 -3.54,5.81 -2.06,6.05 -6.17,10.48 -12.12,13.26 -11.13,5.19 -16.7,-6.89 -16.7,-36.32 0,-39.36 7.9,-62.41 23.75,-69.41 4,-1.77 8.28,-0.63 12.83,3.39 4.55,4.03 7.94,12.09 10.14,24.17 2.2,12.1 3.3,37.13 3.3,74.8zm2980.34 -330.84c0,10.54 0.99,19.13 2.83,25.34 1.83,6.16 4.59,10.12 8.37,11.63 4.23,1.69 6.41,-1.09 6.35,-8.03 -0.04,-4.8 -5.02,-8.11 -6,-9.56 -2.13,-3.15 1.2,-14.56 3.65,-17.71 2.45,-3.17 6.24,-3.73 11.19,-1.7 4.87,2 8.54,5.52 11.06,10.63 2.43,4.94 3.64,11.44 3.64,19.68 0,13.53 -2.5,23.14 -7.53,28.29 -4.94,5.06 -12.38,5.58 -22.36,1.56 -13.59,-5.47 -23.77,-14.29 -30.55,-26.23 -6.81,-12 -10.29,-27.33 -10.29,-45.06 0,-18.38 2.39,-30.43 6.85,-37.16 4.51,-6.8 11.3,-8.42 20.42,-4.91 9.05,3.49 15.84,7.55 20.39,12.08 4.56,4.54 9.07,7.76 13.54,9.63 4.55,1.89 6.82,0.83 6.82,-3.13 0,-6.15 -5.67,-10.26 -6.82,-11.98 -1.53,-2.31 1.14,-10.18 3.41,-12.12 2.28,-1.93 5.68,-1.88 10.22,0.1 4.46,1.94 7.81,5.09 10.09,9.39 2.24,4.22 3.4,9.65 3.4,16.57 0,11.44 -2.39,19.59 -6.81,23.77 -4.45,4.21 -11.23,4.66 -20.32,0.89 -8.14,-3.38 -12.21,-5.03 -20.37,-8.27 -3.77,-1.5 -6.56,-0.94 -8.37,1.66 -1.87,2.7 -2.83,7.54 -2.83,14.64zm-16.64 295.74c0,38.26 -7.86,68.54 -23.63,89.95 -15.77,21.41 -37.09,24.86 -64.02,12.09 -29.32,-13.9 -51.39,-34.35 -66.11,-61.42 -14.72,-27.07 -25.68,-91.31 -24.5,-92.16 2.67,-1.9 33.85,10.5 44.18,8.16 10.33,-2.33 15.49,-8.82 15.49,-19.43 0,-9.04 -5.08,-15.58 -15.26,-19.56 -1.51,-0.59 -3.15,-1.18 -4.89,-1.68 -13.23,-3.8 -26.6,-4.12 -39.52,-1.5 0,-52.11 0,-78.46 0,-128.79 0,-11.11 5.74,-22.06 17.21,-32.91 11.47,-10.85 18.94,-15.65 22.44,-14.57 3.49,1.08 9.76,7.22 18.78,18.76 9.01,11.56 28.82,22.73 30.75,27.16 5.92,13.59 -19.73,50.64 -24.14,51.08 -0.11,0.01 -0.28,0.12 -0.36,0.1 -7.38,-2.63 -13.85,-7.65 -19.43,-14.8 -3.54,-4.54 -7.27,-7.47 -11.09,-8.76 -2.22,-0.75 -4.46,-0.98 -6.67,-0.68 -6.28,0.86 -17.54,26.93 -16.61,28.05 1.15,1.38 18.63,0.14 26.5,2.93 8.82,3.12 16.54,8.55 23,16.31 12.24,14.7 18.33,38.6 18.33,71.26 0,23.24 -20.41,45.86 -23.8,55.27 -1.44,4 6.82,17.2 15.95,26.61 9.13,9.41 21.25,17.52 36.37,24.31 16.22,7.29 29.14,8.46 38.81,3.26 9.67,-5.21 14.49,-19.15 14.49,-41.81 0,-8.91 -3.98,-19.26 -12.07,-30.24 -2.99,-4.06 -7.06,-7.15 -11.94,-9.22 -8.22,-3.49 -19.16,-4.07 -32.85,-1.84 0,-49.91 0,-75.12 0,-123.48 0,-11.69 7.84,-24.2 23.48,-37.29 15.65,-13.08 32.13,-16.18 49.46,-9.45 21.25,8.25 41.35,24.82 60.31,50.41 18.96,25.59 28.41,47.15 28.41,63.81 0,93.26 0,144.97 0,239.08 0,9.7 -2.34,19 -7.03,27.8 -4.69,8.8 -10.17,11.55 -16.43,8.46 -12.61,-6.21 -23.56,-23.61 -32.94,-52.57 -9.36,-28.87 -14.15,-52.61 -14.15,-70.99 0,-11.54 9.84,-18.46 29.45,-20.72 19.61,-2.27 29.38,-17.01 29.38,-44.11 0,-18.36 -10.89,-44.5 -32.79,-77.11 -21.93,-32.66 -39.68,-51.02 -53.06,-56.38 -11.11,-4.45 -21.53,-4.98 -31.22,-1.75 -9.77,3.25 -20.91,25.94 -20.87,25.99 0.8,0.85 15.77,-1.61 22.41,1.02 9.62,3.83 17.63,12.44 24.01,25.97 10.8,22.89 16.18,54.83 16.18,95.38zm71.7 81.14c2.43,1.16 3.65,-1.86 3.65,-9.11 0,-11.57 0,-17.38 0,-29.01 -4.62,6.93 -7.79,11.58 -9.52,13.84 -0.91,1.2 -1.4,2.96 -1.4,5.27 0,2.14 0.41,4.73 1.17,7.71 1.59,6.28 3.6,10.09 6.1,11.29zm-388.05 -296.59c-0,68.87 -0,105.09 -0,173.61 0,8.21 -2.4,16.1 -7.23,23.51 -4.83,7.41 -10.46,9.64 -16.9,6.95 -12.96,-5.42 -24.22,-20.2 -33.85,-44.06 -9.6,-23.79 -14.51,-42.98 -14.51,-57.89 0,-9.37 10.1,-15.18 30.24,-17.72 20.15,-2.54 30.19,-15.33 30.2,-37.96 0,-15.33 -6.31,-33.14 -18.96,-52.51 -12.68,-19.41 -23.65,-29.85 -32.76,-32.13 -9.2,-2.31 -26.11,14.9 -28.1,14.91 -5.09,0.03 -28.15,-28.6 -40.15,-31.26 -8.75,-1.94 -16.74,3.17 -23.58,14.97 -6.9,11.9 -10.34,28.29 -10.34,49.33 0,21.54 2.43,39.65 7.31,54.45 4.28,13.02 11.35,21.2 21.14,24.47 1.45,0.48 2.93,0.84 4.37,1.09 12.09,2.08 18.22,-1.14 18.22,-9.99 0,-5.13 -1.08,-9.67 -3.28,-13.37 -0.94,-1.58 -1.91,-2.52 -2.79,-2.8 -1.3,-0.41 -2.5,0.33 -3.65,2.1 -2.11,3.25 -6.36,3.89 -12.51,1.93 -11.5,-3.66 -17.26,-16.55 -17.26,-38.78 0,-29.72 8.19,-42.46 24.55,-38.17 18.06,4.73 27.06,29.53 27.06,74.26 0,72.35 -10.87,102.8 -32.64,94.42 -30.86,-11.87 -46.34,-62.16 -46.34,-153.88 0,-44.02 5.53,-76.2 16.43,-97.39 10.89,-21.17 23.15,-30.59 36.83,-28.06 8.82,1.63 17.09,6.6 24.81,15.15 7.71,8.54 21.52,30.4 21.52,30.4 2.74,-0.1 19.98,-32.65 28.44,-30.89 11.69,2.43 23.61,12.04 35.65,29.66 10.94,16.02 17.98,44.09 17.98,44.09 0.17,0.02 6.73,-19.62 11.45,-28.2 10.14,-18.45 19.39,-26.67 27.82,-24.62 13.23,3.22 27.05,14.78 41.44,35.82 14.4,21.04 21.6,39.58 21.6,54.61 0,82.44 0,126.97 0,209.81 0,8.72 -2.41,17.1 -7.2,24.98 -4.8,7.88 -10.39,10.27 -16.8,7.43 -12.88,-5.72 -24.06,-21.43 -33.64,-46.89 -9.55,-25.41 -14.44,-45.98 -14.44,-61.96 0,-10.04 10.05,-16.2 30.07,-18.79 20.01,-2.58 30,-16.13 30,-40.25 0,-16.33 -7.26,-35.74 -21.84,-57.18 -14.61,-21.49 -27.73,-33.41 -39.2,-36.65 -7.78,-2.2 -17.51,2.37 -29.16,13.47zm-15.8 125.19c2.5,0.92 3.74,-1.65 3.74,-7.7 0,-9.67 0,-14.52 0,-24.22 -4.75,5.96 -8,9.93 -9.77,11.86 -0.94,1.02 -1.46,2.5 -1.46,4.41 0,1.78 0.42,3.92 1.2,6.38 1.64,5.19 3.7,8.32 6.28,9.27zm102.28 39.09c2.48,0.98 3.71,-1.74 3.71,-8.19 0,-10.31 0,-15.47 0,-25.81 -4.71,6.32 -7.95,10.54 -9.71,12.58 -0.94,1.09 -1.44,2.65 -1.44,4.7 0,1.9 0.43,4.19 1.21,6.81 1.63,5.52 3.68,8.89 6.24,9.9zm-393.86 -434.31c18.68,1.59 34.98,9.91 48.91,26 13.96,16.13 25.82,39.61 27.95,65.24 0.41,4.94 -8.75,8.33 -20.87,5.31 -20.91,-5.2 -42.08,-13.34 -58.08,-15.27 -12.81,-1.54 -28.17,2.19 -39.57,2.92 -7.92,0.51 -16.74,-5.44 -21.34,-12.46 -4.58,-7 -7,-13.53 -7,-19.6 0,-15.38 5.85,-28.29 17.54,-39.05 11.7,-10.77 29.18,-15.06 52.45,-13.09zm-32.59 58.17c1.88,1.69 19.98,-1.02 30.5,0.12 15.92,1.72 54.54,14.22 54.54,14.22 0.7,-0.61 -7.52,-15.65 -16.99,-23.18 -9.45,-7.54 -21.19,-11.88 -35.22,-13.26 -10.2,-1 -18.22,0.7 -24.06,5.09 -5.83,4.39 -9.73,16.14 -8.76,17.01zm17.76 214.3c0,61.41 -10.98,87.76 -32.96,81.13 -31.16,-9.4 -46.78,-52.05 -46.78,-130.05 0,-37.44 5.58,-65.05 16.58,-83.48 10.98,-18.39 23.37,-26.81 37.18,-24.91 8.91,1.23 17.26,5.36 25.06,12.56 7.79,7.2 21.23,25.68 21.73,25.67 3.22,-0.07 20.19,-25.91 28.74,-25.71 0.98,0.04 1.96,0.13 2.93,0.28 10.83,1.65 21.88,9.01 33.1,22.68 12.2,14.86 18.29,28.68 18.29,40.82 0,67.97 0,103.94 0,172.24 0,7.04 -2.43,13.84 -7.31,20.25 -4.88,6.41 -10.57,8.39 -17.08,6.13 -13.11,-4.54 -24.48,-17.14 -34.22,-37.4 -9.7,-20.21 -14.67,-36.45 -14.67,-49.14 0,-7.97 10.2,-13.06 30.56,-15.53 20.37,-2.47 30.53,-13.52 30.53,-32.84 0,-13.08 -6.38,-28.18 -19.17,-44.44 -12.82,-16.31 -23.91,-24.98 -33.11,-26.73 -9.3,-1.76 -25.45,13.28 -28.39,13.32 -5.8,0.08 -28.43,-23.82 -40.56,-25.86 -8.85,-1.49 -16.9,3.03 -23.8,13.22 -6.96,10.27 -10.44,24.3 -10.44,42.17 0,18.3 2.46,33.62 7.37,46.09 4.33,10.97 11.46,17.77 21.35,20.34 1.46,0.38 2.95,0.65 4.41,0.83 12.21,1.52 18.39,-1.33 18.39,-8.84 0,-4.35 -1.09,-8.2 -3.31,-11.29 -0.95,-1.32 -1.92,-2.1 -2.81,-2.32 -1.31,-0.32 -2.53,0.33 -3.69,1.85 -2.13,2.8 -6.42,3.42 -12.63,1.88 -11.61,-2.87 -17.43,-13.69 -17.43,-32.57 0,-25.23 8.27,-36.22 24.78,-32.89 18.23,3.68 27.33,24.56 27.33,62.52zm87.91 49.98c2.52,0.75 3.78,-1.45 3.78,-6.62 0,-8.26 0,-12.39 0,-20.67 -4.81,5.15 -8.09,8.59 -9.88,10.25 -0.95,0.89 -1.47,2.15 -1.47,3.78 0,1.52 0.43,3.33 1.22,5.43 1.66,4.4 3.74,7.06 6.35,7.83zm-278.29 -288.18c0,7.49 1.04,13.26 2.96,17.24 1.9,3.93 4.8,6.21 8.75,6.65 4.43,0.5 6.7,-1.74 6.65,-6.5 -0.04,-3.28 -5.49,-4.77 -6.28,-5.65 -1.34,-1.49 1.27,-10.44 3.81,-13.13 2.58,-2.72 6.53,-3.81 11.7,-3.27 5.09,0.53 8.95,2.38 11.58,5.57 2.55,3.09 3.81,7.52 3.81,13.31 0,9.5 -2.62,16.46 -7.88,20.75 -5.17,4.2 -12.97,5.67 -23.41,4.45 -14.22,-1.67 -24.87,-6.16 -31.94,-13.24 -7.12,-7.13 -10.75,-17.02 -10.75,-29.59 0,-13.04 2.48,-22.47 7.16,-28.39 4.7,-5.95 11.81,-8.52 21.34,-7.52 9.46,0.99 16.57,2.76 21.33,5.36 4.76,2.59 9.49,4.13 14.17,4.59 4.76,0.47 7.14,-0.87 7.14,-4 0,-4.87 -6.24,-7 -7.14,-7.99 -1.11,-1.22 1.19,-8.63 3.57,-10.85 2.38,-2.22 5.95,-3.09 10.71,-2.64 4.67,0.44 8.19,2.21 10.57,5.2 2.34,2.94 3.57,7.2 3.57,12.8 0,9.28 -2.47,16.08 -7.14,20.29 -4.67,4.21 -11.77,5.98 -21.29,5.01 -8.52,-0.87 -12.79,-1.3 -21.32,-2.19 -3.95,-0.41 -6.87,0.5 -8.75,2.72 -1.96,2.3 -2.96,5.97 -2.96,11.02zm-17.39 186.81c0,22.67 -8.21,41.22 -24.67,55.35 -16.46,14.13 -38.69,18.18 -66.72,13.34 -30.51,-5.27 -53.41,-14.24 -68.68,-29.05 -15.28,-14.8 -27.58,-51.76 -25.4,-53.84 3.25,-3.11 35.1,2.56 45.83,0.07 10.73,-2.47 16.09,-6.83 16.09,-13.16 0,-5.4 -5.28,-8.86 -15.84,-10.31 -1.57,-0.22 -3.27,-0.42 -5.08,-0.56 -13.83,-1.07 -27.6,0.04 -40.99,3.03 0,-32.04 0,-48.06 0,-80.1 0,-7.07 5.95,-14.53 17.84,-22.29 11.89,-7.76 19.65,-11.35 23.28,-10.86 3.63,0.5 10.14,4.15 19.5,11.02 9.36,6.87 30.94,13.23 31.97,15.24 2.91,5.66 -19.42,32.39 -25.1,33.11 -0.13,0.02 -0.3,0.09 -0.37,0.08 -7.67,-1.1 -14.41,-3.71 -20.17,-7.72 -3.68,-2.56 -7.55,-4.11 -11.52,-4.65 -2.3,-0.31 -4.62,-0.3 -6.92,0.06 -6.52,0.99 -17.22,18.69 -17.22,18.69 0.8,1.07 19.32,-1.39 27.49,-0.29 9.16,1.24 17.16,3.98 23.88,8.2 12.69,7.97 19.05,21.79 19.05,41.15 0,13.77 -22.43,29.14 -24.74,35.22 -0.68,1.8 7.09,9.6 16.57,14.24 9.49,4.64 22.1,8.22 37.85,10.9 16.89,2.88 30.37,2.54 40.46,-1.31 10.09,-3.85 15.13,-12.47 15.13,-25.86 0,-5.26 -4.22,-11.11 -12.6,-16.9 -3.14,-2.17 -7.36,-3.65 -12.46,-4.48 -8.57,-1.39 -19.98,-0.85 -34.24,1.61 0,-29.41 0,-44.12 0,-73.5 0,-7.1 8.16,-15.38 24.47,-25 16.32,-9.63 33.51,-13.41 51.61,-11.15 22.21,2.77 43.24,10.74 63.09,24.48 19.87,13.75 29.79,26.16 29.79,36.61 0,58.5 0,88.67 0,147.32 0,6.05 -2.45,11.98 -7.38,17.71 -4.92,5.73 -10.67,7.7 -17.23,6.04 -13.21,-3.35 -24.69,-13.76 -34.5,-30.9 -9.79,-17.11 -14.8,-31 -14.8,-41.98 0,-6.9 10.28,-11.7 30.81,-14.43 20.53,-2.73 30.78,-12.41 30.78,-28.92 0,-11.19 -11.44,-26.18 -34.35,-43.84 -22.96,-17.7 -41.51,-27.06 -55.48,-29.03 -11.61,-1.63 -22.47,-0.97 -32.59,1.85 -10.2,2.84 -21.75,17.4 -21.75,17.4 0.55,0.7 16.43,-2.3 23.35,-1.3 10.04,1.46 18.39,5.91 25.06,13.42 11.27,12.72 16.9,31.24 16.9,55.26zm75.04 43.85c2.54,0.56 3.82,-1.36 3.82,-5.78 0,-7.06 0,-10.6 0,-17.67 -4.85,4.53 -8.18,7.57 -9.98,9.04 -0.96,0.79 -1.47,1.89 -1.47,3.29 0,1.3 0.44,2.85 1.23,4.61 1.66,3.7 3.78,5.93 6.4,6.51zm-403.18 -147.57c0,46.61 0,69.91 0,116.52 0,5.58 -2.48,11.42 -7.45,17.52 -4.97,6.1 -10.77,8.89 -17.39,8.39 -13.34,-1.03 -24.92,-9.08 -34.8,-24 -9.86,-14.89 -14.91,-27.57 -14.91,-38.09 0,-6.61 10.36,-12.51 31.07,-17.44 20.71,-4.94 31.07,-14.89 31.07,-30.15 0,-10.33 -6.51,-21.57 -19.51,-33.48 -13.04,-11.95 -24.31,-18.22 -33.67,-18.83 -9.46,-0.62 -24.74,13.69 -28.85,14 -6.42,0.47 -28.87,-17.4 -41.16,-17.9 -8.99,-0.37 -17.13,4.47 -24.13,14.33 -7.06,9.92 -10.58,22.86 -10.58,38.68 0,16.19 2.49,29.36 7.47,39.49 4.38,8.91 11.61,13.57 21.64,14.01 1.49,0.06 2.99,0.03 4.47,-0.07 12.39,-0.89 18.67,-4.41 18.67,-10.83 0,-3.72 -1.13,-6.83 -3.36,-9.1 -0.96,-0.98 -1.95,-1.49 -2.85,-1.54 -1.33,-0.06 -2.57,0.7 -3.74,2.19 -2.17,2.77 -6.52,4.02 -12.81,3.74 -11.78,-0.52 -17.67,-9.02 -17.67,-25.58 0,-22.14 8.38,-32.91 25.13,-32.13 18.5,0.86 27.74,17.44 27.74,49.54 0,51.91 -11.15,77.21 -33.45,76.21 -31.6,-1.42 -47.41,-36.69 -47.41,-106.47 0,-33.49 5.65,-59.15 16.8,-76.88 11.13,-17.69 23.68,-26.3 37.7,-25.65 9.04,0.43 17.51,3.51 25.43,9.24 7.91,5.73 21.1,20.59 22.07,20.52 3.93,-0.31 20.52,-25.93 29.21,-25.33 12.02,0.82 24.27,6.98 36.67,18.47 11.26,10.44 18.51,29.13 18.51,29.13 0.25,0.04 6.93,-14.12 11.8,-20.47 10.43,-13.63 19.99,-20.12 28.68,-19.29 13.65,1.3 27.93,8.46 42.8,21.51 14.89,13.04 22.33,24.48 22.33,34.15 0,53.03 0,79.54 0,132.57 0,5.58 -2.49,11.35 -7.45,17.3 -4.96,5.96 -10.75,8.57 -17.36,7.87 -13.31,-1.42 -24.88,-9.83 -34.74,-25.03 -9.85,-15.18 -14.9,-28.02 -14.9,-38.53 0,-6.61 10.35,-12.2 31.04,-16.52 20.67,-4.32 31,-13.97 31,-29.22 0,-10.33 -7.53,-21.88 -22.57,-34.38 -15.1,-12.55 -28.63,-19.35 -40.46,-20.44 -8.02,-0.74 -18.05,3.24 -30.06,12zm-16.27 86.44c2.57,0.2 3.85,-1.74 3.85,-5.83 0,-6.53 0,-9.8 0,-16.33 -4.89,4.73 -8.24,7.94 -10.06,9.53 -0.98,0.85 -1.5,1.93 -1.5,3.23 0,1.21 0.44,2.6 1.24,4.14 1.68,3.24 3.81,5.04 6.46,5.25zm105.51 9.96c2.57,0.28 3.84,-1.62 3.84,-5.71 0,-6.53 0,-9.8 0,-16.33 -4.87,4.58 -8.23,7.7 -10.04,9.23 -0.97,0.82 -1.49,1.89 -1.49,3.19 0,1.21 0.44,2.61 1.25,4.18 1.67,3.27 3.8,5.15 6.44,5.44zm-517.17 18.27c-9.96,13.39 -18.24,20.24 -24.89,20.52 -13.34,0.57 -24.94,-6.1 -34.82,-19.82 -9.86,-13.69 -17.6,-37.33 -14.93,-40.48 3.99,-4.71 36.61,-12.34 58.08,-28.38 0.25,-0.01 0.37,-0.02 0.62,-0.03 -2.31,-2.33 -5.83,-4.57 -10.44,-6.54 -3.43,-1.46 -7.89,-2.03 -13.19,-1.78 -9.04,0.43 -20.73,3.34 -35.07,8.81 0,-32.04 0,-48.06 0,-80.1 0,-7.07 5.35,-15.57 16.05,-25.44 10.69,-9.86 17.54,-14.84 20.51,-14.98 2.98,-0.14 9.19,2.73 18.6,8.67 9.41,5.93 25.2,7.89 25.69,8.51 3.27,4.1 -15.53,37.36 -20.53,38.86 -0.14,0.04 -0.29,0.16 -0.38,0.16 -6.88,0.28 -13.24,-1.12 -19.03,-4.07 -3.7,-1.89 -7.33,-2.73 -10.82,-2.56 -1.99,0.1 -3.95,0.52 -5.84,1.26 -5.3,2.09 -11.7,20.15 -11.7,20.15 0.7,0.59 14.39,-4.66 21.03,-4.97 6.3,-0.3 12.24,0.59 17.79,2.69 11.43,4.32 19.2,11.19 23.26,20.44 0,39.63 0,59.44 0,99.07zm-16.3 -36.5c2.57,-0.11 3.87,-2.2 3.87,-6.29 0,-6.53 0,-9.8 0,-16.33 -4.9,5.31 -8.26,8.93 -10.09,10.74 -0.98,0.97 -1.48,2.11 -1.48,3.41 0,1.21 0.44,2.55 1.24,4 1.67,3.03 3.81,4.58 6.46,4.47zm23.52 -42.88c0.89,-0.51 17.63,10.04 24.76,9.84 0.49,-0.01 1.02,-0.11 1.49,-0.18 6.95,-1.06 25.39,-6.03 25.39,-6.03 1.17,1.02 -8.18,20.8 -17.05,26.61 -5.76,3.78 -13.68,5.78 -23.64,6.09 -5.22,0.16 -17.23,-0.59 -17.42,-0.96 -0.74,-1.44 6.84,-17.54 6.84,-27.86 0,-2.52 -0.38,-7.52 -0.38,-7.52zm42.69 -42.09c0.48,0.49 14.39,-4.2 21.03,-4.31 6.3,-0.1 12.25,0.97 17.8,3.24 11.44,4.68 19.21,11.79 23.27,21.17 0,39.63 0,59.44 0,99.07 -9.94,13.07 -18.25,19.66 -24.89,19.74 -13.36,0.16 -24.96,-6.87 -34.85,-20.91 -9.87,-14.01 -17.52,-37.98 -14.92,-40.95 3.91,-4.47 58.33,-22.24 58.74,-26.56 0.07,-0.8 -5.83,-4.76 -10.46,-6.87 -3.43,-1.56 -7.87,-2.28 -13.19,-2.19 -9.04,0.14 -20.73,2.69 -35.09,7.71 0,-29.25 0,-43.87 0,-73.12 0,-7.07 7.8,-16.64 23.39,-28.57 15.6,-11.93 32.1,-17.96 49.54,-18.05 22.4,-0.12 43.64,5.24 63.71,16.01 20.09,10.77 30.12,21.11 30.12,30.79 0,54.15 0,81.22 0,135.36 0,5.58 -2.48,11.57 -7.46,17.99 -4.98,6.41 -10.78,9.57 -17.42,9.48 -13.36,-0.19 -24.96,-7.52 -34.86,-21.81 -9.88,-14.26 -14.94,-26.64 -14.94,-37.15 0,-6.61 10.37,-13.16 31.12,-19.39 20.74,-6.24 31.12,-16.84 31.12,-32.1 0,-10.33 -11.59,-22.46 -34.73,-35.89 -23.09,-13.4 -40.99,-19.93 -53.52,-19.84 -0.35,0 -0.52,0 -0.87,0.01 -12.28,0.09 -23.13,2.33 -32.49,6.53 -9.74,4.37 -20.15,20.63 -20.15,20.63zm49.65 76c0,-6.53 0,-9.8 0,-16.33 -4.9,5.16 -8.25,8.67 -10.07,10.42 -0.98,0.94 -1.5,2.06 -1.5,3.37 0,1.21 0.44,2.56 1.24,4.03 1.69,3.09 3.81,4.7 6.48,4.67 2.57,-0.02 3.85,-2.08 3.85,-6.17zm92.1 0.43c0,-6.53 0,-9.8 0,-16.33 -4.9,5.04 -8.27,8.46 -10.09,10.16 -0.98,0.92 -1.49,2.02 -1.49,3.33 0,1.21 0.44,2.57 1.24,4.06 1.67,3.12 3.81,4.8 6.47,4.84 2.57,0.04 3.87,-1.98 3.87,-6.07zm-489.79 -82.96c0,-7.07 5.95,-15.98 17.85,-26.66 11.91,-10.67 19.68,-16.17 23.31,-16.57 3.63,-0.39 10.16,1.67 19.54,6.24 9.39,4.57 31.43,6.56 32.07,7.52 2.93,4.31 -19.61,37.17 -25.19,39.16 -0.14,0.05 -0.3,0.17 -0.37,0.18 -7.7,0.78 -14.46,-0.18 -20.23,-2.78 -3.69,-1.66 -7.57,-2.26 -11.54,-1.82 -2.31,0.26 -4.63,0.84 -6.94,1.75 -6.53,2.59 -17.24,22.91 -17.24,22.91 0.66,0.67 19.34,-6.13 27.52,-7.02 9.18,-1 17.2,-0.23 23.94,2.35 12.7,4.85 19.11,17.12 19.11,36.47 0,13.77 -22.5,32.91 -24.81,41.29 -0.55,1.97 7.1,7.86 16.62,10.17 9.52,2.31 22.17,2.72 37.99,1.32 16.97,-1.5 30.52,-5.38 40.67,-11.75 10.15,-6.37 15.22,-16.03 15.22,-29.05 0,-5.12 -5.12,-9.7 -15.16,-13.24 -3.76,-1.32 -8.5,-1.72 -14.04,-1.27 -9.28,0.75 -21.08,4.07 -35.4,10.03 0,-32.04 0,-48.06 0,-80.1 0,-7.07 5.34,-15.76 16.02,-25.98 10.69,-10.23 17.52,-15.43 20.5,-15.67 2.98,-0.24 9.59,2.39 19.82,7.94 10.23,5.56 26.21,7.05 26.66,7.58 3.25,3.9 -15.26,37.88 -20.25,39.52 -0.14,0.05 -0.3,0.17 -0.37,0.17 -6.89,0.5 -13.24,-0.68 -19.02,-3.44 -3.69,-1.76 -7.49,-2.47 -11.3,-2.16 -2.24,0.18 -4.44,0.69 -6.59,1.52 -6.12,2.36 -12.92,20.65 -12.92,20.65 0.8,0.65 16.69,-6.03 23.97,-6.62 10.44,-0.84 19.52,1.63 27.22,7.39 13,9.73 19.5,26.26 19.5,49.43 0,21.86 -8.28,41.83 -24.85,60.09 -16.57,18.26 -38.93,28.54 -67.07,31.17 -30.63,2.86 -53.57,-1.01 -68.87,-12.07 -15.3,-11.06 -28.75,-43.55 -25.42,-47.62 3.89,-4.75 35.13,-6.04 45.89,-11.15 10.75,-5.1 16.13,-10.78 16.13,-17.11 0,-5.39 -5.3,-7.56 -15.89,-6.43 -1.57,0.17 -3.28,0.38 -5.09,0.69 -13.89,2.33 -27.64,6.81 -41.04,13.07 0,-32.04 0,-48.06 0,-80.1zm-37.15 231.29c-4.13,14.5 -12.38,26.04 -24.77,34.72 -12.37,8.69 -28.87,14.18 -49.48,17.87 -24.72,4.42 -43.28,4.3 -55.61,-1.08 -12.29,-5.37 -18.51,-16.1 -18.51,-32.57 -0,-14.13 3.07,-25.48 9.25,-33.89 6.17,-8.42 15.43,-13.88 27.79,-16.3 10.3,-2.02 18.05,-1.64 23.23,0.93 5.08,2.52 7.67,7.28 7.67,14.26 0,6.98 -1.85,12.54 -5.43,16.66 -3.64,4.19 -9.03,7.02 -16.2,8.44 -6.18,1.23 -14.11,-0.82 -15.44,-3.87 -1.13,-2.57 -2.06,-6.61 -6.17,-5.74 -4.12,0.86 -6.17,3.66 -6.17,8.35 0,7.04 4.64,11.24 13.83,12.79 9.28,1.56 23.23,0.5 41.77,-2.85 18.56,-3.35 32.53,-8.53 41.82,-16.81 9.23,-8.23 13.85,-19.36 13.85,-33.31 0,-97.68 0,-146.52 0,-244.2 0,-25.96 -15.93,-36.13 -47.75,-32.13 -14.59,1.83 -24.83,22.51 -31.28,27.57 -3.71,2.91 -16.88,-2.3 -21.5,-6.66 -5.64,-5.31 -10.74,-10.73 -10.74,-16.5 0,-17.91 0,-26.82 0,-44.5 0,-11.57 -10.38,-18.73 -12.34,-21.46 -2.43,-3.38 7.81,-15.84 23.46,-17.84 15.65,-2 23.47,8.15 23.47,30.85 0,16.39 0,24.61 0,41.09 14.43,-18.63 29.27,-29.04 44.53,-31.25 33.81,-4.92 50.74,18.11 50.74,68.35 -0,111.63 -0,167.45 0,279.09zm-55.69 -67.62c-9.9,14.48 -18.13,22.41 -24.74,23.58 -13.26,2.35 -24.8,-2.73 -34.6,-15.29 -9.79,-12.54 -17.82,-35.28 -14.82,-39.27 4.28,-5.7 36.37,-16.92 57.71,-35.36 0.25,-0.04 0.37,-0.06 0.62,-0.09 -2.3,-2.08 -5.8,-3.95 -10.38,-5.41 -3.41,-1.09 -7.84,-1.19 -13.11,-0.37 -8.98,1.4 -20.6,5.58 -34.84,12.73 0,-32.73 0,-49.13 0,-81.71 0,-7.19 5.31,-16.23 15.94,-26.98 10.62,-10.75 17.43,-16.26 20.38,-16.63 2.96,-0.37 9.13,2.03 18.49,7.18 9.35,5.14 25.24,5.59 25.54,5.91 3.07,3.41 -15.46,39.11 -20.41,41.05 -0.15,0.06 -0.28,0.18 -0.37,0.19 -6.83,0.93 -13.16,0.12 -18.91,-2.32 -3.67,-1.56 -7.28,-2.09 -10.75,-1.62 -1.98,0.27 -3.93,0.86 -5.8,1.78 -5.27,2.57 -11.62,21.44 -11.62,21.44 0.64,0.49 14.29,-6.02 20.89,-6.96 6.26,-0.89 12.17,-0.55 17.68,1.02 11.36,3.24 19.09,9.25 23.12,18.06 0,39.63 0,59.44 0,99.07zm-16.21 -34.65c2.56,-0.41 3.85,-2.66 3.85,-6.75 0,-6.54 -0,-9.8 -0,-16.34 -4.87,5.87 -8.21,9.89 -10.02,11.91 -0.97,1.09 -1.48,2.29 -1.48,3.6 0,1.21 0.44,2.51 1.23,3.86 1.66,2.84 3.79,4.14 6.43,3.72zm-94.97 5.07c0,47.15 -11.07,72.85 -33.17,78.12 -23,5.49 -36.57,-15.5 -40.76,-64.92 0,-40.45 0,-60.85 0,-100.95 0,-9.97 3.89,-21.26 11.64,-33.6 7.75,-12.34 16.52,-18.98 26.29,-20.21 4.85,-0.61 11.23,2.2 19.16,8.39 7.93,6.17 22.49,7.22 23.01,7.76 1.38,1.43 -4.73,18.56 -9.26,25.85 -4.51,7.28 -10.11,11.51 -16.03,13.08 -0.64,0.17 -1.31,0.34 -1.97,0.44 -5.34,0.8 -9.85,-0.3 -13.55,-3.22 -4.15,-3.29 -8.35,-4.67 -12.31,-4.03 -3.99,0.64 -7.48,4.19 -10.35,10.52 -2.87,6.33 -4.3,13.5 -4.3,21.48 0,17.44 0,26.2 0,43.72 0,11.19 2.05,21.74 6.15,31.52 3.61,8.59 10.38,11.75 20.33,9.64 1.4,-0.3 2.83,-0.7 4.3,-1.2 12.26,-4.1 18.5,-11.78 18.5,-23.34 0,-3.89 -1.12,-6.87 -3.33,-8.71 -0.95,-0.79 -1.94,-1.09 -2.83,-0.92 -1.32,0.25 -2.54,1.34 -3.7,3.19 -2.16,3.44 -6.46,5.8 -12.69,7.03 -11.67,2.31 -17.5,-5.32 -17.5,-23.01 0,-23.66 8.29,-36.87 24.89,-39.57 4.19,-0.69 8.67,0.4 13.44,3.22 4.76,2.82 8.31,7.91 10.61,15.26 2.3,7.35 3.45,22.18 3.45,44.49zm-202.85 -150.8c-14.37,1.77 -25.11,-0.84 -32.2,-7.73 -7.04,-6.85 -10.64,-18.17 -10.64,-33.38 0,-15 3.54,-26.22 10.64,-34.03 7.09,-7.81 17.83,-12.2 32.2,-13.41 14.37,-1.21 25.11,1.34 32.22,7.76 7.13,6.41 10.68,16.63 10.68,31.07 0,14.64 -3.61,26.2 -10.68,34.45 -7.11,8.3 -17.85,13.49 -32.22,15.26zm0.11 -16.77c3.27,-0.37 5.71,-3.06 7.36,-7.95 1.69,-5.01 2.57,-12.22 2.57,-21.46 0,-9.44 -0.93,-16.27 -2.57,-20.6 -1.67,-4.39 -4.09,-6.52 -7.36,-6.22 -3.35,0.3 -5.8,2.86 -7.47,7.59 -1.65,4.67 -2.57,11.71 -2.57,21.24 0,9.32 0.88,16.43 2.57,21.09 1.65,4.56 4.13,6.69 7.47,6.31zm33.59 425.6c-4.83,1.79 -8.87,2.2 -12.15,1.18 -3.26,-1.02 -4.91,-4.4 -4.91,-10.23 0,-5.73 1.99,-10.65 5.95,-14.63 3.96,-3.97 9.71,-7.34 17.23,-10.02 8.91,-3.19 15.41,-3.08 19.45,0.18 4.06,3.25 6.13,7.48 6.2,12.7 0,8.36 0,12.49 0,20.64 0,6.3 -1.63,12.08 -4.91,17.45 -3.26,5.37 -9.77,9.77 -19.51,13.39 -16.36,6.09 -27.48,-21.22 -26.37,-22.07 0.82,-0.63 12.88,1.07 21.71,-2.21 1.18,-0.44 1.77,-0.65 2.94,-1.09 10.13,-4.2 15.21,-9.39 15.21,-15.81 0,-4.65 -4.08,-6.4 -4.91,-5.25 -0.85,1.17 -1.56,6.32 -4.43,9.04 -2.86,2.72 -6.71,4.96 -11.52,6.75zm58.32 -113.32c0,16.85 -4.23,30.54 -12.67,41.55 -8.43,11 -21.07,19.33 -37.93,25.25 -23.96,8.42 -43.3,10.78 -57.96,6.12 -14.73,-4.68 -28.43,-4.83 -40.98,0 -10.02,3.86 -34.18,29.51 -34.18,29.51 -0.43,-0.21 9.71,-32.13 17.7,-43.33 7.98,-11.21 18.04,-19 30.18,-23.38 17.69,-6.36 34.97,-5.56 51.77,1.42 16.87,7.01 33.8,7.26 50.65,1.66 5.65,-1.87 9.91,-5.18 12.77,-9.81 2.83,-4.57 4.3,-10.56 4.3,-18.02 0,-9.96 -2.37,-14.29 -7.12,-12.83 -5,1.54 -5.24,14.37 -7.49,17.45 -2.08,2.85 -14.34,2.67 -18.42,0.19 -4.03,-2.45 -6.13,-7.51 -6.13,-15.24 0,-7.74 2.1,-14.23 6.26,-19.33 4.26,-5.23 10.54,-9.1 18.9,-11.56 10.15,-2.98 17.73,-1.74 22.72,3.32 5.02,5.1 7.63,14.14 7.63,27.03zm-183.73 -171.39c0,-53.64 30.45,-84.12 91.69,-92.81 61.26,-8.69 92.03,11.86 92.03,62.22 0,25.02 -10.76,46.61 -32.24,65.78 -21.48,19.19 -91.03,40.33 -96.49,50.83 -2.58,4.96 22.16,21.09 51.91,12.91 29.74,-8.19 76.82,-75.33 76.82,-75.33 1.87,0.45 -30.78,109.06 -92.03,128.34 -61.24,19.28 -107.2,-54.14 -91.69,-74.58 8.8,-11.61 66.79,-22.48 93.91,-37.29 27.1,-14.81 40.69,-31.87 40.69,-52.26 0,-26.65 -18.42,-36.83 -55.15,-30.36 -36.73,6.47 -55.03,20.18 -55.03,40.82 0,8.83 1.46,15.48 4.39,19.87 0,-0.62 0,-0.94 0,-1.56 0,-5.62 1.48,-11.33 4.47,-17.1 2.97,-5.75 7.1,-10.54 12.4,-14.34 5.3,-3.82 10.76,-6.24 16.39,-7.32 5.54,-1.07 10.96,-0.74 16.27,0.94 5.3,1.67 9.48,4.68 12.5,9 3.02,4.33 4.53,9.15 4.53,14.5 0,5.36 -1.46,10.78 -4.41,16.31 -2.94,5.54 -7.05,10.3 -12.31,14.28 -5.26,3.99 -10.8,6.7 -16.58,8.08 -41.43,9.89 -62.07,-3.61 -62.07,-40.93zm-200.11 52.54c0.1,0.11 11.52,-5.98 16.92,-7.44 9.35,-2.52 18.04,-2.03 25.89,1.38 12.4,5.39 18.65,21.59 18.65,48.77 0,19.33 -21.28,47.02 -24.22,62.73 -0.67,3.59 6.93,9.81 16.22,11.09 9.29,1.29 21.65,-0.86 37.11,-6.22 16.59,-5.74 30.72,-16.71 42.41,-32.6 11.68,-15.89 30.55,-59.06 30.55,-59.06 0.61,0.11 -8.12,72.39 -24.34,100.26 -16.22,27.87 -38.11,47.39 -65.59,58.22 -29.92,11.8 -52.29,12.34 -67.2,0.01 -14.91,-12.33 -31.01,-55.02 -24.76,-64.39 4.57,-6.85 34.23,-14.98 44.71,-24.18 10.41,-9.14 15.73,-18.07 15.73,-27.09 0,-7.69 -5.17,-9.95 -15.49,-6.74 -1.54,0.48 -3.2,1.04 -4.97,1.75 -13.54,5.42 -26.94,13.94 -39.98,25.21 0,-38.63 0,-58.07 0,-95.94 7.25,-21.45 18.69,-41.87 34.37,-60.82 15.68,-18.96 36.43,-30.5 62.31,-35.42 23.54,-4.48 43.63,1.23 60.26,16.47 16.63,15.25 24.95,33.42 24.95,55.26 0,17.04 -4.01,33.39 -12.05,49.33 -8.04,15.95 -19.68,26.31 -34.91,30.78 -24.63,7.22 -36.91,-2.22 -36.91,-28.57 0,-26.35 7.71,-41.3 23.18,-45.02 0.19,-0.05 0.29,-0.07 0.48,-0.12 10.29,-2.47 20.24,1.76 21.39,7.7 0.12,0.62 -0.13,1.76 -0.13,2.63 0,7.8 3.32,10.99 9.97,9.57 0.3,-0.07 0.44,-0.11 0.73,-0.19 6.73,-1.69 10.1,-5.77 10.1,-12.23 0,-11.83 -6.58,-20.36 -19.7,-25.87 -13.15,-5.5 -28.78,-6.39 -46.89,-2.24 -23.52,5.39 -40.65,12.96 -51.42,22.69 -10.78,9.73 -27.39,30.29 -27.39,30.29zm-69.55 -231.6c10.03,-1.74 15.05,5.18 15.05,22.17 0,16.56 -11.09,47.28 -12.52,77.97 -0.05,1.02 0.41,2.45 0.47,3.49 0.4,5.87 -8.54,13.13 -20.56,14.13 -19.16,1.61 -41.33,0.02 -56.99,3.97 -12.54,3.17 -26.59,14.09 -38.64,20.18 -6.99,3.54 -16.29,-0.01 -20.77,-7.45 -4.43,-7.36 -6.8,-15.09 -6.8,-23.07 0,-20.22 5.69,-38.95 17.06,-56.26 11.39,-17.32 27.63,-27.82 48.79,-32.43 12.69,-2.76 27.87,1.99 45.09,15.55 7.52,5.92 15.6,20.81 19.11,22.3 1.93,0.81 7.66,-7.78 7.7,-18.96 0.02,-5.81 -10,-11.28 -12.15,-14.75 -4.13,-6.66 5.01,-25.06 15.04,-26.8 0.05,-0.01 0.07,-0.01 0.13,-0.02zm-104.35 104.29c1.32,0.79 19.5,-8.94 29.79,-11.42 15.57,-3.74 52.26,-1.09 53.51,-2.47 1.14,-1.26 -8.83,-15.59 -20.9,-20.76 -12.07,-5.15 -22.98,-6.56 -32.72,-4.32 -8.39,1.93 -15.43,6.6 -21.13,14.19 -5.69,7.58 -8.65,24.72 -8.55,24.78zm-129.37 341.68c6.63,14.43 15.54,23.08 26.74,26.09 11.2,3.01 26.9,-0.07 47.14,-8.87 16.27,-7.09 30.5,-18.17 42.63,-33.08 12.15,-14.93 18.23,-30.51 18.23,-47.13 0,-8.31 -4.98,-14.46 -14.58,-17.8 -3.57,-1.24 -8.17,-0.77 -13.49,1.28 -8.92,3.44 -20.25,11.69 -33.98,25.02 0,-53.68 0,-80.85 0,-132.6 0,-11.42 5.12,-26.33 15.37,-44.15 10.26,-17.82 16.82,-26.78 19.68,-27.65 2.87,-0.86 9.22,2.03 19.05,8.76 9.84,6.73 25.45,6.72 25.66,6.91 4.81,4.22 -15.41,62.72 -19.5,65.59 -0.15,0.11 -0.28,0.33 -0.36,0.35 -6.62,2.2 -12.74,1.57 -18.29,-1.71 -3.54,-2.09 -7.2,-2.51 -10.85,-1.27 -2.15,0.73 -4.26,1.96 -6.32,3.72 -5.89,4.99 -12.41,36.2 -12.41,36.2 0.59,0.3 16.02,-13.26 23.02,-15.69 10.04,-3.5 18.77,-1.36 26.17,6.25 12.52,12.87 18.78,37.83 18.78,75.11 0,20.52 -9.67,58.61 -8.13,60.66 1.08,1.45 19.23,-2.44 32.1,-7.72 16.39,-6.72 29.49,-16.35 39.31,-28.8 9.81,-12.45 14.73,-28.51 14.73,-48.53 0,-7.87 -5,-13.72 -14.67,-16.97 -3.6,-1.21 -8.22,-0.81 -13.57,1.08 -8.97,3.18 -20.37,10.88 -34.2,23.44 0,-51.14 0,-76.99 0,-126.42 0,-10.91 5.15,-25.03 15.48,-41.76 10.31,-16.73 16.91,-25.08 19.8,-25.82 2.88,-0.74 9.27,2.22 19.17,8.91 9.9,6.67 25.54,6.96 25.81,7.22 4.68,4.3 -15.41,59.05 -19.61,61.78 -0.15,0.09 -0.29,0.3 -0.36,0.32 -6.66,1.96 -12.8,1.24 -18.39,-1.98 -3.56,-2.06 -7.25,-2.53 -10.93,-1.43 -2.16,0.65 -4.29,1.78 -6.36,3.4 -5.92,4.63 -12.48,34.22 -12.48,34.22 0.62,0.33 16.12,-12.31 23.16,-14.5 10.09,-3.14 18.88,-0.96 26.33,6.37 12.59,12.38 18.89,36.02 18.89,71.24 0,33.23 -8.03,65.53 -24.06,97.9 -16.03,32.37 -36.85,54.43 -62.41,65.96 -19.57,8.83 -45.92,4.14 -51.54,5.89 -8.56,2.67 -29.71,31.43 -49.94,40.95 -57.91,27.28 -86.59,-23.66 -86.59,-157.56 0,-108.08 15.35,-162.94 46.2,-173.71 24.52,-8.56 36.83,20.82 36.83,93.57 -0,37.22 -3.74,65.39 -11.17,83.87 -6.59,16.39 -13.9,26.39 -21.97,29.81 -1.11,0.47 -2.27,0.79 -3.45,1 -9.32,1.64 -16.39,-3.75 -20.98,-16.54 -2.35,-6.54 -3.55,-13.76 -3.55,-21.62 0,-7.7 1.12,-16 3.31,-24.86 4.45,-18 17.24,-38.97 17.43,-38.94 1.23,0.24 7.23,12.24 12.58,12.31 1.17,0.02 2.24,-0.16 3.19,-0.53 4.28,-1.66 7.15,-7.56 7.96,-17.11 0.09,-1.09 0.12,-2.14 0.12,-3.07 0,-9.8 -5.33,-14.78 -15.68,-15.29 -1.41,-0.07 -2.89,0.15 -4.39,0.72 -5.93,2.24 -11.89,9.33 -17.9,21.41 -7.48,15.03 -12.11,31.2 -13.85,48.41 -0.25,2.5 -0.36,6.07 -0.36,10.73 0,5.61 0.23,12.71 0.59,21.2 0.68,15.77 4.26,31.07 10.89,45.48z"/>
 </g>
</svg>
